<svg width="889" height="1020" viewBox="0 0 889 1020" fill="none" xmlns="http://www.w3.org/2000/svg">
<g clip-path="url(#clip0_636_106)">
<path fill-rule="evenodd" clip-rule="evenodd" d="M119.875 354.517C127.529 353.331 133.571 358.599 136.639 365.63C140.22 373.854 140.047 384.502 138.516 390.089C133.531 408.254 142.316 416.165 145.544 424.622C146.968 428.351 147.587 433.239 147.407 438.606C147.194 445.112 143.414 448.461 140.306 454.281C139.514 460.228 138.05 465.741 135.728 470.383C127.109 487.636 98.1604 495.953 70.3627 494.681C48.1152 493.662 26.6131 485.785 16.8836 476.702C6.19578 466.793 4.81821 441.576 22.7599 439.006C26.9392 438.406 31.804 437.501 35.4043 433.172C37.86 430.196 35.4842 422.351 34.8985 411.91C34.3262 401.795 36.6355 391.154 51.3229 387.612C56.953 386.28 62.4367 385.694 67.1284 382.604C77.3903 375.865 73.6303 363.346 84.764 355.968C91.4855 351.52 102.293 350.554 114.106 353.831C115.989 354.064 117.919 354.304 119.875 354.517Z" fill="url(#paint0_linear_636_106)"/>
<path fill-rule="evenodd" clip-rule="evenodd" d="M126.517 364.039C127.182 368.973 125.346 373.275 122.418 377.417C115.576 387.072 111.983 386.32 108.243 398.619C102.087 394.51 97.8675 393.884 96.0906 397.92C93.2356 404.406 95.0391 408.248 94.3736 414.96C93.2955 425.874 80.2585 410.918 70.0365 419.275C59.9876 427.492 66.8821 433.259 63.0022 444.905C61.5515 449.26 60.4201 454.987 56.3473 456.891C43.7029 462.885 38.8714 477.954 61.3718 485.432C75.3072 490.093 95.5449 488.908 112.462 483.141C134.789 475.523 148.558 442.568 142.862 426.913C140.506 420.434 134.137 415.593 134.104 410.532C133.997 393.152 137.358 381.998 126.517 364.039Z" fill="#22043D"/>
<path fill-rule="evenodd" clip-rule="evenodd" d="M233.229 449.44C235.265 452.39 231.432 454.434 229.715 454.528C226.967 454.887 223.06 453.482 222.082 455.32C220.991 457.378 208.14 453.136 208.28 453.003C213.557 449.2 218.422 448.282 219.254 448.341C227.479 448.881 225.083 450.732 233.229 449.44Z" fill="url(#paint1_linear_636_106)"/>
<path fill-rule="evenodd" clip-rule="evenodd" d="M210.11 464.975C198.317 468.305 182.212 479.832 170.992 482.369C167.452 483.168 161.915 484.719 159.126 481.703C144.699 466.107 164.756 471.235 166.447 465.342C176.709 457.704 192.774 461.306 205.917 454.228C206.74 453.673 207.596 453.168 208.479 452.716C213.63 450.146 216.512 450.359 225.463 454.854C228.072 456.186 229.409 455.992 231.685 455.926L240.689 454.807C243.451 454.707 245.208 455.367 245.634 456.266C246.113 457.271 245.128 462.964 243.511 465.202C243.165 466.247 241.129 467.046 237.921 467.093L224.764 471.128L224.152 470.782C216.286 466.314 212.958 464.836 210.11 464.975Z" fill="#FFA698"/>
<path fill-rule="evenodd" clip-rule="evenodd" d="M154.075 483.088C143.427 473.166 128.367 458.756 122.977 447.362C119.47 439.958 118.817 419.168 130.124 416.545C133.911 414.161 139.661 429.636 143.534 435.889C150.535 447.209 155.726 453.935 163.945 464.356C172.676 458.689 184.728 458.123 196.068 455.313C197.771 454.854 199.559 454.804 201.285 455.167C202.651 454.866 203.976 454.403 205.232 453.788C206.516 454.141 210.775 461.499 210.043 465.834C209.138 466.087 207.142 466.707 206.197 467.04C204.866 467.513 204.1 468.798 202.769 469.51C198.257 471.941 177.98 482.029 167.878 484.313C164.031 485.179 157.849 487.183 154.821 483.914L154.075 483.088Z" fill="url(#paint2_linear_636_106)"/>
<g style="mix-blend-mode:multiply" opacity="0.35">
<path fill-rule="evenodd" clip-rule="evenodd" d="M154.075 483.088C143.427 473.166 128.367 458.756 122.977 447.363C119.949 440.963 119.05 424.582 126.151 418.549C129.851 418.163 131.981 418.07 133.744 419.548C135.954 421.393 136.846 425.981 140.047 432.759C144.898 443.021 152.258 449.001 152.851 461.067C153.29 469.976 157.349 480.478 163.978 485.225C160.65 485.891 156.957 486.218 154.827 483.894L154.075 483.088Z" fill="#59CAAF"/>
</g>
<g style="mix-blend-mode:multiply" opacity="0.35">
<path fill-rule="evenodd" clip-rule="evenodd" d="M171.91 796.838L80.7378 744.898C70.802 740.357 56.5804 736.741 46.4516 742.008C37.2279 746.809 22.0346 756.658 15.3131 760.474C10.2088 763.384 -7.50665 774.005 3.52724 780.011C35.9834 797.671 68.0801 817.534 101.069 835.473C107.304 838.87 116.422 840.095 125.991 839.296C135.561 838.497 145.291 835.726 152.991 831.252L169.155 821.836C176.303 817.667 180.096 812.746 180.469 808.192C180.868 803.737 178.006 799.628 171.91 796.838Z" fill="#59CAAF"/>
</g>
<path fill-rule="evenodd" clip-rule="evenodd" d="M74.3225 722.564C74.8083 724.722 73.4374 727.851 73.1978 728.204C67.9138 735.882 74.2093 735.236 73.9298 746.183C73.9298 747.189 78.3753 764.502 78.3753 764.502C78.3753 764.502 88.9168 767.059 89.6887 766.919C90.4607 766.78 96.8761 764.303 96.8761 764.303C96.337 763.364 95.6183 761.08 95.1791 760.221C92.1444 754.301 90.5206 747.129 89.3693 739.924C88.5973 735.163 87.1399 727.758 88.1248 722.757L74.3225 722.564Z" fill="#FFA698"/>
<path fill-rule="evenodd" clip-rule="evenodd" d="M97.2287 764.183C98.4019 766.425 99.3923 768.759 100.19 771.161C100.376 771.614 100.46 772.103 100.436 772.592C100.412 773.081 100.28 773.559 100.05 773.991C97.6413 777.461 84.7973 771.714 80.4383 768.111C77.6233 765.787 77.4702 762.931 76.7115 759.455C75.5669 754.247 75.3805 753.661 73.9497 748.321L73.018 762.971L71.8401 763.743C71.3935 757.415 70.578 751.118 69.3977 744.885C68.9652 742.887 68.2597 740.577 68.1333 739.458C67.388 732.852 70.5557 729.47 73.4972 727.525C72.5256 731.587 76.1259 738.04 77.7297 746.237C79.6663 756.185 88.4309 764.249 97.2287 764.183Z" fill="#161F69"/>
<path fill-rule="evenodd" clip-rule="evenodd" d="M143.747 520.531C142.748 525.033 147.347 540.588 146.169 546.568C145.051 566.258 141.591 582.919 128.334 622.3C128.334 622.746 116.222 646.825 115.41 649.349C107.151 675.039 96.8627 702.927 88.1248 728.877C84.8838 731.387 75.0744 730.608 73.8167 724.502C76.5186 698.579 73.5704 673.015 78.0159 655.249C81.4033 641.731 85.8421 635.571 93.096 625.55C95.3254 600.066 96.9359 548.972 102.732 529.368L143.747 520.531Z" fill="url(#paint3_linear_636_106)"/>
<g style="mix-blend-mode:multiply" opacity="0.3">
<path fill-rule="evenodd" clip-rule="evenodd" d="M143.747 520.531C142.749 525.033 139.754 533.376 138.603 539.356C134.902 548.419 127.116 560.825 121.859 571.252C120.281 583.904 120.727 600.685 112.841 624.105L105.701 678.242C99.8309 695.196 93.6617 712.429 88.1182 728.85C84.8772 731.361 75.0678 730.582 73.8101 724.475C76.512 698.552 73.5638 672.988 78.0093 655.222C81.3967 641.704 85.8355 635.545 93.0894 625.523C95.3188 600.039 96.9293 548.945 102.726 529.341L143.747 520.531Z" fill="#1E2353"/>
</g>
<path fill-rule="evenodd" clip-rule="evenodd" d="M84.7108 748.834C84.957 751.231 83.859 753.648 83.5795 756.039C82.9932 760.261 82.7307 764.522 82.7942 768.784C82.9578 776.498 83.9077 784.176 85.6292 791.697C86.3612 794.887 87.7787 796.252 88.737 800.62L107.517 803.69C105.667 796.578 103.125 782.182 101.202 770.129L97.6147 747.595L84.7108 748.834Z" fill="#FFA698"/>
<path fill-rule="evenodd" clip-rule="evenodd" d="M83.7457 754.78C82.6609 758.549 81.4165 760.567 81.2568 765.714C81.097 770.862 83.4662 778.906 83.2532 785.272L82.9405 795.386C82.7541 801.273 84.2714 805.375 90.9264 810.229C96.989 814.644 102.905 816.449 106.106 814.891C108.469 813.739 110.359 809.563 106.732 798.569C103.711 789.407 102.932 780.45 101.162 770.515C101.787 780.291 102.02 783.554 104.376 793.116C105.042 795.779 105.427 800.267 102.253 800.72C89.1295 802.598 88.4707 799.069 87.386 795.014C84.5177 784.186 82.4081 764.928 83.7457 754.78Z" fill="#161F69"/>
<path fill-rule="evenodd" clip-rule="evenodd" d="M78.9144 536.08C64.3335 554.345 63.9674 564.474 67.1285 586.422C69.2448 601.071 73.5506 618.904 74.622 644.694C73.3576 658.012 70.9817 672.895 72.7919 693.564C74.1229 708.767 78.3953 734.85 81.6163 753.295C84.6443 758.995 98.9724 756.511 101.315 753.575C100.649 727.145 101.055 709.026 102.32 687.651C103.544 666.888 106.02 647.631 107.577 627.154C108.862 610.207 114.006 587.167 114.685 568.862C117.413 560.205 143.234 531.652 137.857 532.024L78.9144 536.08Z" fill="url(#paint4_linear_636_106)"/>
<path fill-rule="evenodd" clip-rule="evenodd" d="M80.6845 494.987C87.233 510.15 76.0993 518.54 80.1055 528.981L78.8744 536.047C90.8533 544.63 133.565 545.269 144.279 528.249L144.505 519.759C146.349 515.697 145.138 505.422 144.592 502.712C142.875 494.095 143.674 489.52 142.735 479.552C142.496 477.035 142.023 475.45 141.797 472.893C151.313 465.775 150.714 452.01 145.071 443.767C142.158 439.676 139.678 435.293 137.671 430.688C137.283 428.158 136.732 425.656 136.02 423.197C135.612 421.723 134.936 420.337 134.024 419.109C131.309 415.226 126.916 414.76 117.946 416.825C100.17 420.913 81.8558 430.169 73.6902 438.826C67.7473 445.158 67.9802 452.184 71.3942 467.379C73.5837 477.168 77.3571 487.283 80.6845 494.987Z" fill="url(#paint5_linear_636_106)"/>
<g style="mix-blend-mode:multiply" opacity="0.35">
<path fill-rule="evenodd" clip-rule="evenodd" d="M80.558 494.894C87.1064 510.057 76.2456 518.72 80.2518 529.161L79.014 536.14C90.9929 545.462 133.704 545.003 144.419 527.983L144.192 520.578C144.192 520.285 123.209 539.223 99.3249 528.682C94.134 526.398 89.4357 515.038 96.1571 493.343C96.8226 491.278 104.409 491.139 115.19 483.188C107.204 486.564 92.2241 491.178 91.4854 470.929C91.1526 461.866 89.8216 455.06 85.1898 448.761C82.9404 445.704 69.7703 461.726 71.7735 469.404C74.1018 478.096 77.0372 486.614 80.558 494.894V494.894Z" fill="#59CAAF"/>
</g>
<path fill-rule="evenodd" clip-rule="evenodd" d="M74.8882 528.489C77.0643 529.82 81.024 531.085 82.6145 532.038C83.4398 532.53 89.3493 536.213 92.6701 538.444C96.2239 540.834 97.2288 544.284 99.3251 548.113C100.472 550.292 101.278 552.634 101.714 555.058C101.94 556.676 97.841 559.779 96.0974 559.393C92.1378 558.514 88.1115 553.653 87.0534 553.113C78.1823 548.512 73.9432 548.059 70.7355 544.397C69.3646 542.832 68.5327 538.264 65.7043 534.155L71.1414 529.228L74.8882 528.489Z" fill="url(#paint6_linear_636_106)"/>
<path fill-rule="evenodd" clip-rule="evenodd" d="M73.8099 437.74C60.6398 446.044 46.0855 468.944 33.0418 489.321C30.4597 492.65 31.1252 497.005 32.4894 499.442C33.1786 501.076 34.0397 502.632 35.0582 504.084C41.2606 513.173 47.3033 521.297 60.5599 532.571C61.5515 533.416 62.9424 533.769 64.4198 534.169C65.2517 534.835 66.4163 536.1 67.3014 536.832C66.2033 535.414 72.7917 528.309 75.7798 528.782C75.0145 527.829 74.2292 526.784 73.4306 525.705C73.3241 524.373 73.4306 523.501 72.8982 522.336C68.5858 512.52 63.0955 502.645 56.2609 495.147C68.1399 482.289 74.9479 479.166 86.0151 465.681C99.4448 449.287 82.5212 432.233 73.8099 437.74Z" fill="url(#paint7_linear_636_106)"/>
<path fill-rule="evenodd" clip-rule="evenodd" d="M101.268 404.199C102.584 411.846 101.973 419.701 99.4915 427.053C105.9 432.986 117.293 430.469 119.942 425.055C119.383 421.572 118.731 418.396 118.352 414.807L101.268 404.199Z" fill="#FFA698"/>
<path fill-rule="evenodd" clip-rule="evenodd" d="M101.268 404.199C101.916 407.848 102.109 411.563 101.841 415.26C103.724 422.864 117.939 427.998 119.416 421.919C119.01 419.581 118.618 417.257 118.358 414.807L101.268 404.199Z" fill="url(#paint8_linear_636_106)"/>
<path fill-rule="evenodd" clip-rule="evenodd" d="M127.742 371.057C130.936 376.138 132.64 381.232 131.901 388.457C131.7 389.871 131.908 391.313 132.5 392.613C135.488 399.365 135.222 401.456 133.738 406.863C132.3 412.123 132.407 414.853 130.603 416.678C128.8 418.503 126.011 418.955 123.676 419.109C118.891 419.408 110.678 416.252 105.907 413.642C102.366 411.704 102.506 410.379 101.009 407.023C96.011 402.674 99.2519 399.505 100.922 399.178C105.721 398.246 106.499 403.78 109.341 405.005C108.875 395.276 127.389 378.895 127.742 371.057Z" fill="#FFA698"/>
<path fill-rule="evenodd" clip-rule="evenodd" d="M129.865 374.953C131.784 379.178 132.489 383.854 131.901 388.457C131.7 389.871 131.907 391.313 132.5 392.612C135.488 399.358 135.222 401.456 133.738 406.863C133.072 409.22 132.753 411.071 132.407 412.563C131.82 413.452 130.935 414.103 129.912 414.399C128.889 414.696 127.794 414.618 126.823 414.181C124.827 413.295 122.83 410.931 122.371 406.989C122.018 404.192 116.288 402.328 115.111 399.505C114.132 397.147 116.774 394.517 118.378 393.159C124.002 388.397 127.495 381.945 129.865 374.953Z" fill="url(#paint9_linear_636_106)"/>
<path fill-rule="evenodd" clip-rule="evenodd" d="M127.742 371.057C125.08 382.997 109.474 392.033 109.341 405.018C113.607 391.547 128.72 382.304 127.742 371.057Z" fill="#FF8F7F"/>
<g style="mix-blend-mode:multiply" opacity="0.35">
<path fill-rule="evenodd" clip-rule="evenodd" d="M564.951 877.272L282.688 719.934C273.831 715.885 260.807 712.063 252.116 717.357L229.881 730.914C225.409 733.638 210.702 742.694 220.565 748.041C249.507 763.79 477.971 892.807 507.392 908.809C512.949 911.832 521.082 912.924 529.62 912.218C538.158 911.512 546.923 909.208 553.691 905.046L562.575 899.566C568.851 895.691 572.331 891.462 572.664 887.4C572.997 883.338 570.388 879.756 564.951 877.272Z" fill="#59CAAF"/>
</g>
<path fill-rule="evenodd" clip-rule="evenodd" d="M367.665 17.0936C362.461 14.137 356.352 13.0383 350.649 15.1891L332.98 22.1011C335.935 20.9491 646.641 204.084 644.305 220.052L535.523 895.937L553.192 889.038C560.679 886.088 564.605 878.291 565.703 870.713L661.974 213.147C661.975 213.122 661.975 213.098 661.974 213.074C663.544 202.013 660.217 190.506 654.141 181.264C650.873 176.283 646.567 171.721 641.283 168.858L367.665 17.0936Z" fill="#273087"/>
<path fill-rule="evenodd" clip-rule="evenodd" d="M623.621 175.797L350.003 23.9723C336.128 16.2812 322.918 23.666 320.469 40.4133L224.192 697.999C221.743 714.747 230.966 734.577 244.822 742.268L518.46 894.032C532.335 901.724 545.579 894.359 548.028 877.611L644.298 220.052C646.754 203.312 637.49 183.461 623.621 175.797Z" fill="url(#paint10_linear_636_106)"/>
<path style="mix-blend-mode:multiply" opacity="0.5" fill-rule="evenodd" clip-rule="evenodd" d="M520.416 699.624L265.725 558.354C260.062 555.218 254.525 554.772 249.893 556.576C243.957 558.887 239.518 564.9 238.234 573.656L221.33 692.805C219.047 708.394 227.632 726.852 240.543 734.011L495.241 875.274C508.158 882.432 520.483 875.574 522.765 859.992L539.662 740.836C541.958 725.261 533.333 706.782 520.416 699.624Z" fill="url(#paint11_linear_636_106)"/>
<path fill-rule="evenodd" clip-rule="evenodd" d="M517.368 726.926L496.585 858.893L498.914 859.173L505.27 856.702C512.237 853.959 515.918 846.714 516.916 839.642L533.819 720.5C533.821 720.478 533.821 720.455 533.819 720.433C535.277 710.138 532.189 699.424 526.499 690.821C523.451 686.16 519.451 681.938 514.52 679.267L259.869 538.011C255.024 535.261 249.347 534.235 244.03 536.24L238.427 538.43C235.605 539.489 234.733 540.335 234.753 540.515C237.395 565.173 521.082 701.635 517.368 726.926Z" fill="#273087"/>
<path fill-rule="evenodd" clip-rule="evenodd" d="M508.158 681.798L253.467 540.535C247.803 537.398 242.266 536.952 237.635 538.757C231.698 541.067 227.26 547.08 225.975 555.837L209.072 674.986C206.789 690.574 215.374 709.033 228.284 716.191L482.982 857.455C495.9 864.613 508.224 857.754 510.507 842.172L527.411 723.017C529.693 707.435 521.082 688.956 508.158 681.798Z" fill="#D0E7FF"/>
<path fill-rule="evenodd" clip-rule="evenodd" d="M227.699 640.972C227.153 644.694 229.203 649.109 232.291 650.82L493.717 795.926C496.805 797.637 499.753 795.999 500.298 792.27C504.544 766.533 507.685 740.244 511.346 714.36C511.891 710.638 509.828 706.216 506.747 704.505L245.314 559.413C244.755 559.063 244.125 558.843 243.469 558.77C242.814 558.696 242.151 558.77 241.528 558.987C240.11 559.539 239.045 560.984 238.739 563.069L227.699 640.972Z" fill="url(#paint12_linear_636_106)"/>
<path fill-rule="evenodd" clip-rule="evenodd" d="M494.329 817.894L232.923 672.782C232.363 672.433 231.733 672.214 231.077 672.142C230.422 672.069 229.759 672.145 229.136 672.362C227.719 672.915 226.654 674.36 226.348 676.444L225.376 682.317C224.831 686.04 226.887 690.454 229.968 692.166L491.394 837.278C494.482 838.989 497.43 837.351 497.976 833.622L498.948 827.749C499.473 824.02 497.417 819.605 494.329 817.894Z" fill="url(#paint13_linear_636_106)"/>
<path style="mix-blend-mode:multiply" opacity="0.5" fill-rule="evenodd" clip-rule="evenodd" d="M637.73 213.307L542.93 160.894C536.688 157.431 530.572 156.945 525.467 158.936C518.919 161.487 514.021 168.119 512.61 177.774L500.844 261.864C498.329 279.057 507.799 299.42 522.04 307.318L616.84 359.731C618.905 360.895 621.123 361.767 623.428 362.321L640.811 357.26L657.841 241.481C654.773 229.621 647.326 218.634 637.73 213.307Z" fill="url(#paint14_linear_636_106)"/>
<path fill-rule="evenodd" clip-rule="evenodd" d="M653.103 262.463L638.162 354.69L640.491 354.969L646.847 352.499C653.815 349.755 657.495 342.51 658.493 335.439L669.554 256.037C669.555 256.015 669.555 255.993 669.554 255.971C671.011 245.676 667.923 234.962 662.233 226.358C659.192 221.697 655.186 217.475 650.254 214.805L552.66 161.2C547.815 158.45 542.138 157.425 536.821 159.429L531.217 161.62C528.396 162.678 527.524 163.531 527.544 163.704C530.239 188.369 656.843 237.166 653.103 262.463Z" fill="#273087"/>
<path fill-rule="evenodd" clip-rule="evenodd" d="M643.892 217.329L546.304 163.724C540.641 160.588 535.104 160.141 530.472 161.946C524.536 164.257 520.097 170.27 518.812 179.026L507.772 258.434C505.489 274.023 514.074 292.482 526.985 299.64L624.573 353.245C637.49 360.403 649.815 353.544 652.097 337.962L663.158 258.548C665.427 242.972 656.802 224.494 643.892 217.329Z" fill="white"/>
<path fill-rule="evenodd" clip-rule="evenodd" d="M601.38 222.836C602.1 224.234 602.381 225.817 602.185 227.377C601.795 229.37 601.202 231.318 600.415 233.19L579.645 290.997C578.98 292.928 578.361 294.393 577.915 295.452C577.75 295.893 577.498 296.298 577.175 296.641C576.852 296.984 576.463 297.259 576.032 297.449C575.313 297.769 574.315 297.549 573.03 296.783C569.909 294.852 568.531 292.122 568.924 288.793C569.343 286.754 569.917 284.751 570.641 282.8L591.378 224.98C592.443 221.91 593.374 219.926 594.166 218.987C594.958 218.048 596.229 218.168 597.979 219.253C599.441 220.096 600.627 221.345 601.393 222.849L601.38 222.836ZM606.93 237.852L605.027 253.92L635.753 289.578L601.314 285.217L599.404 301.358L648.963 305.234L650.587 291.556L606.93 237.852ZM520.316 225.592L563.979 279.35L565.889 263.209L535.31 227.324L569.59 231.985L571.519 215.704L521.954 211.755L520.316 225.592Z" fill="url(#paint15_linear_636_106)"/>
<path style="mix-blend-mode:multiply" opacity="0.5" fill-rule="evenodd" clip-rule="evenodd" d="M337.173 298.734L287.107 271.233L265.419 419.308L316.056 447.123C330.158 454.94 343.615 447.456 346.103 430.442L358.182 343.742C360.698 326.729 351.268 306.552 337.173 298.734Z" fill="url(#paint16_linear_636_106)"/>
<path fill-rule="evenodd" clip-rule="evenodd" d="M333.858 338.688L318.911 430.915L321.241 431.195L327.596 428.724C334.564 425.981 338.244 418.736 339.242 411.664L350.303 332.282C350.305 332.26 350.305 332.238 350.303 332.216C351.76 321.921 348.672 311.207 342.982 302.603C339.941 297.942 335.935 293.72 331.004 291.05L233.409 237.445C228.564 234.695 222.887 233.67 217.57 235.674L211.967 237.865C209.145 238.924 208.273 239.776 208.293 239.949C210.962 264.594 337.565 313.391 333.858 338.688Z" fill="#273087"/>
<path fill-rule="evenodd" clip-rule="evenodd" d="M324.641 293.554L227.053 239.949C221.39 236.813 215.853 236.367 211.221 238.171C205.285 240.482 200.846 246.495 199.562 255.251L188.501 334.66C186.218 350.248 194.803 368.707 207.714 375.865L305.309 429.503C318.226 436.662 330.551 429.803 332.833 414.221L343.894 334.806C346.177 319.197 337.558 300.719 324.641 293.554Z" fill="url(#paint17_linear_636_106)"/>
<path fill-rule="evenodd" clip-rule="evenodd" d="M283.394 326.256L281.111 341.572L288.019 345.414C292.192 347.738 294.674 349.016 295.779 349.409C297.616 350.208 299.106 350.202 300.344 349.462C301.582 348.723 302.341 347.258 302.673 345.167C302.993 343.22 302.798 341.223 302.108 339.374C301.405 337.533 300.144 335.959 298.501 334.873C297.469 334.207 294.468 332.409 289.45 329.612L283.387 326.243L283.394 326.256ZM229.13 327.588L243.478 335.578L239.784 306.898L229.136 327.601L229.13 327.588ZM236.57 288.18L247.817 294.433L258.877 372.682L247.491 366.356L245.168 348.637L224.165 336.944L217.617 349.722L206.363 343.463L236.583 288.193L236.57 288.18ZM298.201 379.095C299.339 378.189 300.144 376.591 300.504 374.187C300.827 372.289 300.701 370.341 300.138 368.5C299.578 366.682 298.618 365.012 297.329 363.613C295.945 362.128 292.897 360.05 288.013 357.353L279.454 352.592L276.792 370.525L286.642 375.998C290.455 378.116 292.891 379.328 293.962 379.588C294.646 379.877 295.394 379.984 296.131 379.896C296.869 379.808 297.571 379.53 298.168 379.088L298.201 379.095ZM310.293 369.506C311.512 373.171 311.856 377.071 311.298 380.893C310.94 383.751 309.922 386.487 308.323 388.883C306.773 391.121 304.996 392.613 302.813 393.185C300.57 393.851 298.081 393.651 295.173 392.413C293.41 391.66 289.184 389.523 282.409 385.754L264.521 375.805L274.43 309.216L295.419 320.889C298.609 322.589 301.665 324.528 304.563 326.689C306.606 328.313 308.344 330.288 309.694 332.522C311.117 334.965 312.176 337.603 312.835 340.353C313.605 343.149 313.778 346.076 313.341 348.943C313.03 351.709 311.885 354.314 310.06 356.414C309.302 357.324 308.349 358.053 307.272 358.546C306.196 359.039 305.022 359.285 303.838 359.264C306.764 362.118 308.976 365.622 310.293 369.493V369.506Z" fill="white"/>
<path style="mix-blend-mode:multiply" opacity="0.5" fill-rule="evenodd" clip-rule="evenodd" d="M523.477 408.86C506.174 395.05 495.826 366.376 500.358 344.781C504.89 323.186 522.592 316.88 539.902 330.691C557.211 344.502 567.553 373.188 563.021 394.77C558.489 416.352 540.773 422.671 523.477 408.86Z" fill="url(#paint18_linear_636_106)"/>
<path fill-rule="evenodd" clip-rule="evenodd" d="M504.198 329.332C507.339 326.05 515.245 324.172 519.671 323.932C524.835 323.652 530.598 325.75 536.308 330.464C551.302 342.83 560.266 368.547 556.346 387.878C555.182 393.625 553.079 398.213 550.137 401.376C547.395 404.319 538.564 408.035 534.485 408.368C510.035 411.77 494.948 338.981 504.198 329.332Z" fill="#273087"/>
<path fill-rule="evenodd" clip-rule="evenodd" d="M516.11 402.008C501.11 389.636 492.153 363.939 496.072 344.595C499.992 325.25 515.372 319.597 530.352 331.943C545.332 344.288 554.31 370.025 550.39 389.356C546.47 408.687 531.104 414.374 516.11 402.008Z" fill="url(#paint19_linear_636_106)"/>
<path fill-rule="evenodd" clip-rule="evenodd" d="M538.172 354.803L542.245 357.72L512.737 386.053L501.649 356.881L507.087 360.004L514.347 370.332L538.172 354.803Z" fill="white"/>
<path style="mix-blend-mode:multiply" opacity="0.5" fill-rule="evenodd" clip-rule="evenodd" d="M331.622 470.163L298.294 451.384C291.906 447.842 285.65 447.342 280.433 449.387C273.738 451.997 268.727 458.776 267.282 468.651L262.87 499.722C260.295 517.308 269.984 538.131 284.552 546.208L317.887 564.986C332.454 573.064 346.363 565.326 348.932 547.746L353.337 516.669C355.913 499.089 346.183 478.24 331.622 470.163Z" fill="url(#paint20_linear_636_106)"/>
<path fill-rule="evenodd" clip-rule="evenodd" d="M329.18 513.965L321.394 554.325L323.723 554.605L330.078 552.135C337.046 549.391 340.726 542.146 341.724 535.074L345.631 507.533C345.633 507.511 345.633 507.488 345.631 507.466C347.088 497.172 344 486.457 338.31 477.854C335.263 473.193 331.263 468.971 326.332 466.301L296.777 449.653C291.932 446.903 286.256 445.878 280.938 447.882L275.335 450.073C272.513 451.131 271.641 451.984 271.661 452.157C274.35 476.835 332.893 488.668 329.18 513.965Z" fill="#273087"/>
<path fill-rule="evenodd" clip-rule="evenodd" d="M319.969 468.838L290.422 452.19C284.758 449.054 279.221 448.608 274.589 450.412C268.653 452.723 264.214 458.736 262.93 467.486L259.024 495.034C256.741 510.623 265.326 529.075 278.243 536.24L307.791 552.887C320.708 560.045 333.033 553.187 335.316 537.605L339.216 510.077C341.505 494.475 332.88 475.996 319.969 468.838Z" fill="url(#paint21_linear_636_106)"/>
<path fill-rule="evenodd" clip-rule="evenodd" d="M321.36 494.042C320.788 497.944 317.74 499.715 314.512 497.924C311.285 496.133 309.115 491.471 309.681 487.563C310.247 483.654 313.288 481.996 316.575 483.814C319.863 485.632 321.899 490.16 321.36 494.042V494.042ZM303.658 528.722C304.23 524.82 307.272 523.128 310.559 524.953C313.847 526.777 315.883 531.305 315.344 535.201C314.805 539.096 311.717 540.868 308.49 539.083C305.262 537.298 303.092 532.624 303.658 528.722V528.722ZM283.5 495.347C282.935 499.229 279.827 500.887 276.606 499.096C273.385 497.305 271.282 492.75 271.821 488.868C272.36 484.986 275.468 483.208 278.669 484.986C281.87 486.764 284.073 491.438 283.5 495.34V495.347ZM317.307 478.853C311.817 475.803 306.546 478.646 305.575 485.292V485.785L286.435 488.768C285.182 485.14 282.685 482.073 279.388 480.111C273.897 477.068 268.706 479.978 267.735 486.617C266.763 493.256 270.397 501.04 275.88 504.084C279.048 505.841 282.063 505.628 284.232 503.844L299.665 526.111L299.545 526.464C298.574 533.123 302.281 540.928 307.771 543.971C313.261 547.014 318.419 544.13 319.424 537.485C320.429 530.839 316.715 523.008 311.285 519.998C307.378 517.834 303.638 518.667 301.429 521.637L286.788 500.328C287.181 499.473 287.432 498.56 287.533 497.624C287.711 496.582 287.749 495.52 287.646 494.468L305.841 491.352C306.912 496.159 309.867 500.674 313.78 502.852C319.211 505.861 324.428 502.985 325.433 496.339C326.438 489.694 322.764 481.863 317.307 478.853Z" fill="white"/>
<path style="mix-blend-mode:multiply" opacity="0.5" fill-rule="evenodd" clip-rule="evenodd" d="M621.225 483.094L406.118 363.779C400.268 360.536 394.545 360.077 389.76 361.941C383.624 364.332 379.039 370.538 377.715 379.588L355.42 537.731C353.065 553.839 361.936 572.911 375.279 580.315L575.839 691.52L593.428 686.133L621.225 483.094Z" fill="url(#paint22_linear_636_106)"/>
<path fill-rule="evenodd" clip-rule="evenodd" d="M679.17 550.084L653.715 715.945L656.044 716.225L662.399 713.754C669.367 711.011 673.047 703.766 674.045 696.694L695.621 543.651C695.622 543.629 695.622 543.607 695.621 543.584C697.078 533.29 693.99 522.575 688.3 513.972C685.259 509.311 681.253 505.089 676.321 502.425L421.67 361.162C416.825 358.412 411.149 357.387 405.831 359.391L400.221 361.582C397.4 362.64 396.528 363.493 396.548 363.666C399.196 388.331 682.877 524.786 679.17 550.084Z" fill="#273087"/>
<path fill-rule="evenodd" clip-rule="evenodd" d="M669.959 504.949L415.268 363.686C409.605 360.55 404.068 360.103 399.436 361.908C393.5 364.219 389.061 370.232 387.777 378.988L366.195 532.051C363.912 547.64 372.497 566.099 385.408 573.257L640.112 714.507C653.029 721.665 665.354 714.807 667.637 699.225L689.212 546.175C691.488 530.593 682.87 512.114 669.959 504.949Z" fill="url(#paint23_linear_636_106)"/>
<path opacity="0.5" fill-rule="evenodd" clip-rule="evenodd" d="M657.295 598.681L395.869 453.569C395.31 453.22 394.679 453.001 394.024 452.929C393.368 452.856 392.705 452.931 392.083 453.149C390.665 453.702 389.6 455.147 389.294 457.231L388.323 463.104C387.777 466.827 389.833 471.241 392.914 472.953L654.347 618.058C657.435 619.77 660.383 618.132 660.929 614.403L661.901 608.529C662.446 604.807 660.383 600.392 657.295 598.681Z" fill="#F2F4FF"/>
<path opacity="0.5" fill-rule="evenodd" clip-rule="evenodd" d="M652.038 634.599L390.645 489.507C390.085 489.158 389.455 488.94 388.799 488.867C388.144 488.795 387.481 488.87 386.859 489.088C385.441 489.64 384.376 491.085 384.07 493.169L383.098 499.043C382.553 502.765 384.609 507.18 387.69 508.891L649.09 654.003C652.178 655.715 655.126 654.077 655.672 650.348L656.643 644.474C657.189 640.752 655.126 636.331 652.038 634.599Z" fill="#F2F4FF"/>
<path opacity="0.5" fill-rule="evenodd" clip-rule="evenodd" d="M523.551 601.604L385.361 525.452C384.802 525.102 384.172 524.883 383.516 524.809C382.861 524.735 382.197 524.809 381.575 525.026C380.157 525.579 379.092 527.024 378.786 529.108L377.815 534.981C377.269 538.703 379.319 543.118 382.406 544.83L520.603 620.982C523.691 622.693 526.639 621.055 527.185 617.326L528.156 611.453C528.702 607.73 526.639 603.302 523.551 601.604Z" fill="#F2F4FF"/>
<path opacity="0.5" fill-rule="evenodd" clip-rule="evenodd" d="M532.881 469.623C528.183 467.02 523.711 469.51 522.899 475.19C522.087 480.87 525.201 487.556 529.893 490.16C534.585 492.763 539.064 490.273 539.876 484.619C540.688 478.966 537.58 472.227 532.888 469.623H532.881ZM544.374 487.11C543.103 495.766 536.262 499.602 529.068 495.62C521.874 491.638 517.089 481.383 518.38 472.7C519.671 464.017 526.493 460.214 533.687 464.19C540.881 468.165 545.665 478.427 544.374 487.11ZM555.355 488.102L560.013 490.692C559.959 492.313 559.816 493.929 559.588 495.533C559.362 497.06 559.046 498.572 558.643 500.061L553.984 497.471C552.949 501.161 550.932 504.501 548.148 507.133L550.876 512.98C548.974 514.574 546.782 515.786 544.421 516.549L541.712 510.742C538.213 511.635 534.525 511.452 531.131 510.216L530.306 515.843C528.951 515.339 527.636 514.734 526.373 514.032C525.041 513.286 523.76 512.451 522.539 511.535L523.365 505.901C519.731 502.994 516.638 499.468 514.227 495.487L510.354 497.644C508.548 494.573 507.035 491.338 505.836 487.982L509.735 485.811C508.171 481.242 507.379 476.444 507.393 471.614L502.734 469.024C502.788 467.411 502.928 465.801 503.154 464.203C503.382 462.67 503.699 461.151 504.105 459.655L508.764 462.245C509.796 458.555 511.811 455.216 514.593 452.583L511.865 446.763C513.757 445.145 515.954 443.922 518.327 443.167L521.035 448.981C524.536 448.083 528.227 448.274 531.617 449.527L532.449 443.873C533.802 444.383 535.115 444.995 536.375 445.704C537.707 446.44 538.988 447.266 540.208 448.175L539.383 453.835C543.021 456.727 546.116 460.245 548.52 464.223L552.394 462.065C554.199 465.144 555.712 468.386 556.912 471.748L553.026 473.938C554.583 478.497 555.37 483.284 555.355 488.102Z" fill="#F2F4FF"/>
<path style="mix-blend-mode:multiply" opacity="0.5" fill-rule="evenodd" clip-rule="evenodd" d="M486.257 148.215L319.164 55.5358L291.24 239.723L458.858 332.662C472.168 340.047 484.892 332.975 487.248 316.9L506.108 190.733C508.437 174.658 499.58 155.6 486.257 148.215Z" fill="url(#paint24_linear_636_106)"/>
<path fill-rule="evenodd" clip-rule="evenodd" d="M484.333 191.738L464.428 316.108L466.758 316.387L473.113 313.917C480.081 311.173 483.761 303.928 484.759 296.857L500.784 185.312C500.786 185.29 500.786 185.268 500.784 185.246C502.242 174.951 499.154 164.237 493.464 155.633C490.422 150.972 486.416 146.75 481.485 144.08L226.834 2.81677C221.989 0.0666206 216.286 -0.95886 210.962 1.05215L205.358 3.24295C202.536 4.30172 201.665 5.15407 201.685 5.3272C204.36 29.9654 488.047 166.474 484.333 191.738Z" fill="#273087"/>
<path fill-rule="evenodd" clip-rule="evenodd" d="M475.123 146.61L220.432 5.32717C214.768 2.19079 209.231 1.74464 204.6 3.54922C198.663 5.85988 194.224 11.8729 192.94 20.6295L176.908 132.194C174.626 147.782 183.211 166.241 196.121 173.399L450.826 314.669C463.743 321.828 476.068 314.969 478.35 299.387L494.376 187.829C496.658 172.247 488.033 153.769 475.123 146.61Z" fill="white"/>
<path fill-rule="evenodd" clip-rule="evenodd" d="M237.508 62.1015C218.582 50.2219 200.573 59.7709 197.266 83.4102C193.958 107.05 206.583 135.823 225.523 147.702C244.463 159.582 262.458 150.033 265.772 126.394C269.086 102.754 256.415 73.9611 237.508 62.1015Z" fill="url(#paint25_linear_636_106)"/>
<path fill-rule="evenodd" clip-rule="evenodd" d="M220.059 72.6893L214.236 115.447L250.685 118.463L220.059 72.6893Z" fill="white"/>
<path opacity="0.5" fill-rule="evenodd" clip-rule="evenodd" d="M467.177 211.089L287.234 110.492C286.717 110.171 286.135 109.97 285.531 109.903C284.926 109.836 284.314 109.906 283.74 110.106C282.409 110.612 281.451 111.937 281.171 113.875L280.279 119.295C279.78 122.731 281.67 126.807 284.519 128.385L464.442 228.982C467.29 230.56 470.012 229.048 470.511 225.612L471.403 220.192C471.915 216.756 470.012 212.674 467.177 211.089Z" fill="#6D6AFD"/>
<path opacity="0.5" fill-rule="evenodd" clip-rule="evenodd" d="M462.851 244.384L282.921 143.794C282.404 143.473 281.823 143.272 281.218 143.205C280.614 143.139 280.002 143.208 279.428 143.407C278.097 143.914 277.138 145.245 276.859 147.176L275.96 152.597C275.455 156.033 277.351 160.108 280.199 161.686L460.129 262.283C462.977 263.861 465.699 262.35 466.198 258.914L467.09 253.493C467.603 250.057 465.699 245.975 462.851 244.384Z" fill="#6D6AFD"/>
<path opacity="0.5" fill-rule="evenodd" clip-rule="evenodd" d="M457.733 277.566L277.804 176.962C277.288 176.64 276.706 176.438 276.101 176.37C275.497 176.302 274.885 176.37 274.31 176.569C272.979 177.075 272.021 178.407 271.741 180.338L270.856 185.785C270.357 189.221 272.247 193.296 275.095 194.875L455.012 295.452C457.86 297.03 460.582 295.518 461.081 292.082L461.973 286.662C462.485 283.219 460.582 279.144 457.733 277.566Z" fill="#6D6AFD"/>
<path opacity="0.5" fill-rule="evenodd" clip-rule="evenodd" d="M472.015 175.91L292.085 75.3063C291.569 74.9843 290.987 74.7819 290.383 74.7139C289.778 74.6459 289.166 74.7141 288.592 74.9134C287.261 75.4261 286.302 76.7513 286.023 78.6824L285.131 84.1028C284.625 87.5388 286.522 91.6141 289.37 93.1922L469.293 193.776C472.141 195.354 474.863 193.842 475.362 190.406L476.261 184.986C476.767 181.563 474.863 177.488 472.015 175.91Z" fill="#44A7F7"/>
<g style="mix-blend-mode:multiply" opacity="0.35">
<path fill-rule="evenodd" clip-rule="evenodd" d="M877.667 963.872L757.831 895.577C744.768 889.584 726.067 884.85 712.757 891.782C700.632 898.094 680.654 911.019 671.816 916.06C665.108 919.889 641.816 933.853 656.324 941.744C699.002 964.964 741.234 991.074 784.564 1014.67C792.756 1019.13 804.749 1020.74 817.333 1019.69C829.918 1018.65 842.715 1015.03 852.824 1009.12L874.073 996.74C883.477 991.267 888.454 984.787 888.954 978.801C889.439 972.955 885.686 967.547 877.667 963.872Z" fill="#59CAAF"/>
</g>
<g style="mix-blend-mode:multiply" opacity="0.35">
<path fill-rule="evenodd" clip-rule="evenodd" d="M796.177 605.413C797.781 598.448 800.03 590.424 802.087 582.246C806.213 565.859 809.573 548.818 805.461 538.264C803.71 533.769 800.642 531.605 797.169 528.795C788.164 521.557 789.515 540.987 775.394 539.316C773.144 542.319 773.843 549.098 774.582 555.577C777.244 578.964 788.451 612.625 796.177 605.413Z" fill="#0960AC"/>
</g>
<path fill-rule="evenodd" clip-rule="evenodd" d="M706.342 529.767C707.939 524.82 713.662 527.436 715.299 529.341C718.128 532.191 721.402 535.78 725.282 536.992C727.944 537.831 734.472 539.036 737.261 548.312C737.926 550.663 736.083 550.51 733.767 553.866C726.4 548.119 718.094 547.873 717.422 546.834C710.747 536.892 715.013 538.044 706.342 529.767Z" fill="#FFA698"/>
<path fill-rule="evenodd" clip-rule="evenodd" d="M728.716 562.822L736.422 571.765L745.4 556.024C744.115 554.199 741.733 553.919 740.688 551.888C740.159 550.55 739.55 549.245 738.865 547.979C734.812 540.655 732.023 539.489 717.629 537.525C713.429 536.952 712.97 536.233 710.308 534.282L700.485 525.505C697.264 523.115 694.622 522.462 693.365 523.188C691.967 524.001 688.48 531.618 688.573 535.62C688.294 536.593 688.893 537.991 690.337 539.576C694.616 544.237 698.243 548.419 702.029 553.027C708.545 560.931 706.688 557.941 717.742 559.426C723.898 560.272 726.44 561.078 728.716 562.822Z" fill="#FFA698"/>
<path fill-rule="evenodd" clip-rule="evenodd" d="M695.335 536.047C695.707 534.275 698.243 525.732 699.135 525.485C700.892 524.993 703.254 527.909 705.497 530.147C708.824 533.476 714.541 540.541 719.12 541.54C729.994 543.924 734.945 547.533 740.029 562.682L737.234 560.904C731.345 542.865 720.996 556.563 710.289 549.837C703.773 545.695 695.042 537.425 695.335 536.047Z" fill="#FF9483"/>
<path fill-rule="evenodd" clip-rule="evenodd" d="M754.344 558.481C751.828 557.482 748.155 556.829 746.538 555.544C744.781 554.146 742.239 552.081 741.267 551.389C737.274 552.96 732.569 559.12 729.721 564.88C731.484 566.878 733.241 568.962 734.978 571.159C736.276 572.797 736.935 577.239 738.219 578.964C746.205 589.618 764.027 602.809 773.896 612.212C785.689 623.445 799.478 624.438 805.447 617.452C808.648 613.703 810.598 607.983 806.532 599.593C803.97 594.312 796.956 588.939 790.853 583.838C779.24 574.129 761.039 561.144 754.344 558.481Z" fill="url(#paint26_linear_636_106)"/>
<path fill-rule="evenodd" clip-rule="evenodd" d="M812.276 624.131C807.963 628.972 799.984 629.585 791.865 622.214C791.339 621.861 790.813 621.488 790.288 621.088L789.669 619.523C788.759 618.13 788.15 616.563 787.878 614.922C786.854 612.258 785.809 609.442 784.857 606.758C781.27 596.623 773.803 572.844 771.72 555.091C768.819 530.326 787.652 520.298 800.636 526.99C811.79 532.744 812.369 552.161 813.899 562.729C816.095 577.858 822.717 612.412 812.276 624.131Z" fill="url(#paint27_linear_636_106)"/>
<path fill-rule="evenodd" clip-rule="evenodd" d="M823.928 959.204C821.38 959.144 812.781 951.066 804.629 955.148C794.853 960.049 776.292 955.708 766.922 957.958C765.252 958.358 761.991 957.133 761.345 958.278C759.349 961.867 757.352 967.241 762.337 970.757C765.99 973.341 773.81 976.75 778.941 978.581C784.378 980.512 793.695 983.549 799.944 984.528C806.858 985.613 810.013 986.053 812.588 988.057C816.289 989.922 820.115 990.721 822.245 990.381C826.803 989.655 832.121 986.985 834.556 981.778C835.335 980.113 835.355 972.848 834.463 968.14C833.758 964.424 831.728 960.189 830.111 956.234L823.928 959.204Z" fill="white"/>
<path fill-rule="evenodd" clip-rule="evenodd" d="M803.917 941.824C807.011 949.255 806.059 960.749 813.386 964.737C818.285 967.401 825.958 967.401 829.305 959.81C831.169 955.561 828.693 948.303 829.245 938.974L803.917 941.824Z" fill="#FFA495"/>
<path fill-rule="evenodd" clip-rule="evenodd" d="M801.92 953.33C796.303 954.962 780.797 953.877 770.995 954.662C766.782 955.002 763.009 954.969 761.012 958.797C759.202 962.32 760.147 965.337 764.253 968.24C767.907 970.824 774.103 973.774 779.227 975.565C784.671 977.496 793.981 980.532 800.23 981.511C807.144 982.59 810.299 983.036 812.874 985.04C816.574 986.905 820.401 987.704 822.531 987.364C827.089 986.639 832.406 983.422 834.842 978.222C835.621 976.557 835.641 969.838 834.742 965.123C834.558 964.184 834.318 963.257 834.024 962.347C833.252 954.962 830.816 951.979 828.52 953.244C825.372 954.975 824.188 958.085 822.996 960.642C822.611 961.584 822.031 962.434 821.295 963.136C820.559 963.838 819.683 964.377 818.724 964.717C814.964 965.903 811.537 963.805 809.314 960.575C808.088 958.225 807.22 955.705 806.738 953.097C806.738 952.844 806.738 952.598 806.738 952.345C806 945.892 802.865 946.458 803.338 947.817C803.777 949.109 803.597 952.012 801.92 953.33Z" fill="#273087"/>
<path fill-rule="evenodd" clip-rule="evenodd" d="M762.976 957.712C763.049 960.209 759.229 960.442 760.314 964.824C758.477 963.019 761.039 957.852 762.177 957.066C762.656 956.746 763.049 956.613 762.976 957.712Z" fill="white"/>
<path fill-rule="evenodd" clip-rule="evenodd" d="M760.041 933.627C757.665 932.694 752.374 922.147 743.33 923.179C739.683 923.592 733.813 922.639 727.857 920.948C718.361 918.244 705.131 909.754 702.875 911.139C697.957 914.169 697.551 919.689 701.011 924.697C703.553 928.386 708.332 933.28 712.544 936.756C716.99 940.439 723.299 946.079 728.822 949.149C734.046 952.045 735.777 951.812 739.47 956.82C742.305 959.843 745.619 961.641 747.736 962.054C753.166 963.113 761.045 959.63 763.887 955.988C765.691 950.141 768.825 944.614 766.815 935.844L760.041 933.627Z" fill="white"/>
<path fill-rule="evenodd" clip-rule="evenodd" d="M747.496 908.735C747.643 916.779 742.532 927.121 747.882 933.533C751.456 937.815 758.584 940.658 764.52 934.805C767.847 931.536 768.18 923.878 772.12 915.408L747.496 908.735Z" fill="#FFA495"/>
<path fill-rule="evenodd" clip-rule="evenodd" d="M730.3 918.544L728.676 918.098C719.179 915.394 706.488 908.849 704.232 910.24C699.314 913.27 698.376 916.846 701.83 921.854C704.372 925.543 709.15 930.437 713.363 933.913C717.808 937.595 724.117 943.235 729.641 946.305C734.865 949.202 736.595 948.969 740.289 953.976C743.124 957 746.438 958.797 748.554 959.21C753.985 960.269 762.104 956.746 764.945 953.111C766.276 948.762 768.126 944.62 768.273 939.127C769.065 931.968 768.572 928.333 765.458 928.419C759.668 928.586 757.279 931.642 754.89 933.134C749.739 936.343 746.292 932.195 745.453 927.061C745.353 924.788 745.512 922.512 745.926 920.275C746.005 920.036 746.099 919.803 746.192 919.569C747.876 913.297 744.754 912.671 744.694 914.109C744.568 917.372 742.532 919.197 739.916 919.589C736.815 920.082 732.842 918.764 730.3 918.544Z" fill="#273087"/>
<path fill-rule="evenodd" clip-rule="evenodd" d="M704.811 911.046C703.806 913.33 700.259 911.898 699.367 916.327C698.482 913.909 703.027 910.334 704.385 910.127C704.944 910.034 705.357 910.087 704.811 911.046Z" fill="white"/>
<path fill-rule="evenodd" clip-rule="evenodd" d="M752.966 691.4C750.89 714.707 739.211 789.187 742.458 809.63C747.343 840.374 745.952 877.512 745.892 910.14C746.717 923.851 765.558 931.016 771.041 922.3C775.447 893.147 781.689 867.596 784.251 851.395C787.106 833.249 786.161 811.208 781.589 799.282C783.479 786.257 792.357 752.669 799.771 729.363C802.433 720.959 817.606 693.811 801.914 666.822L752.966 691.4Z" fill="url(#paint28_linear_636_106)"/>
<path fill-rule="evenodd" clip-rule="evenodd" d="M745.586 901.391C745.586 903.808 745.659 907.497 745.659 909.867C746.484 923.578 765.557 931.016 771.041 922.3C771.367 920.149 771.833 918.025 772.179 915.914C764.805 923.871 750.351 913.543 745.586 901.391Z" fill="#4C57B7"/>
<g style="mix-blend-mode:multiply" opacity="0.3">
<path fill-rule="evenodd" clip-rule="evenodd" d="M741.959 795.746C748.102 826.577 765.478 867.756 774.961 898.754C779.899 872.191 792.264 826.963 781.563 799.275C782.641 791.857 785.982 777.767 790.028 762.704C781.809 747.109 789.662 734.664 785.782 712.696C764.014 708.9 796.869 682.317 750.81 710.318C746.684 743.42 742.818 764.223 741.959 795.746Z" fill="#060921"/>
</g>
<path fill-rule="evenodd" clip-rule="evenodd" d="M754.477 824.999C767.035 853.439 790.201 909.241 802.519 944.148C808.895 953.417 831.621 952.452 831.581 943.808C826.564 914.622 820.667 869.607 810.192 844.01C806.985 836.179 795.166 817.328 790.893 811.734C787.566 798.856 783.426 764.063 780.245 745.238C783.12 729.663 795.678 703.613 771.547 680.979C761.811 687.911 731.717 692.239 718.068 684.528C715.859 746.05 730.952 771.714 754.477 824.999Z" fill="url(#paint29_linear_636_106)"/>
<path fill-rule="evenodd" clip-rule="evenodd" d="M799.964 938.061C800.51 939.586 801.601 942.669 802.12 944.128C808.682 953.67 832.067 952.678 832.067 943.775C831.819 942.332 831.568 940.854 831.315 939.34C825.712 945.033 808.835 945.107 799.964 938.061Z" fill="#4C57B7"/>
<path fill-rule="evenodd" clip-rule="evenodd" d="M807.69 607.764C805.694 626.042 811.157 644.015 805.567 660.709C805.314 662.434 805.155 669.199 804.862 671.037C801.175 692.652 755.482 714.527 717.369 693.784C717.156 691.12 717.369 688.304 717.196 683.336C717.902 678.675 715.899 673.727 715.912 670.904C715.965 659.137 719.625 653.124 717.868 640.033C714.295 613.397 699.554 587.807 707.706 566.851C709.457 562.356 712.525 560.192 715.998 557.382C725.009 550.144 771.587 526.404 785.709 524.753C826.717 519.399 809.906 587.933 807.69 607.764Z" fill="url(#paint30_linear_636_106)"/>
<path fill-rule="evenodd" clip-rule="evenodd" d="M728.13 524.54C730.726 525.825 743.883 523.961 743.497 525.139C743.31 531.032 741.553 534.608 740.988 542.672C755.455 540.675 774.435 538.557 775.194 527.456C775.134 526.564 775.081 525.679 775.048 524.793C775.048 524.693 775.048 524.593 774.994 524.487H775.034C774.881 520.451 775.074 516.795 776.199 514.978C779.26 510.023 785.556 504.496 787.785 496.998C791.352 485.012 790.054 471.648 778.861 462.751C758.424 446.51 732.276 458.09 725.668 481.816C724.377 486.477 728.031 488.968 727.904 492.93C727.904 493.702 726.853 494.515 726.021 496.259C724.863 498.617 724.956 522.968 728.13 524.54Z" fill="#E7A376"/>
<path fill-rule="evenodd" clip-rule="evenodd" d="M728.264 524.407C730.852 525.692 743.876 523.961 743.49 525.139C743.304 531.032 741.547 534.608 740.981 542.672C749.386 544.737 772.046 541.713 775.434 528.955C775.494 526.291 775.374 516.303 776.192 514.971C779.254 510.017 785.549 504.49 787.779 496.992C791.346 485.006 790.048 471.641 778.854 462.745C758.417 446.504 732.27 458.083 725.662 481.809C724.37 486.471 728.024 488.961 727.898 492.923C727.898 493.696 726.846 494.508 726.014 496.253C724.863 498.617 725.089 522.835 728.264 524.407Z" fill="url(#paint31_linear_636_106)"/>
<path fill-rule="evenodd" clip-rule="evenodd" d="M728.669 524.54C730.047 525.279 735.724 524.793 739.983 523.168C742.645 522.143 744.581 519.839 744.994 519.685C746.744 518.98 750.637 513.446 744.608 504.643C738.732 496.059 774.336 518.027 776.226 514.978C779.287 510.023 785.583 504.496 787.812 496.998C791.379 485.012 790.081 471.648 778.888 462.751C758.45 446.51 732.303 458.09 725.695 481.816C724.404 486.477 728.057 488.968 727.931 492.93C727.931 493.702 726.879 494.515 726.047 496.259C724.863 498.617 725.548 522.868 728.669 524.54Z" fill="url(#paint32_linear_636_106)"/>
<path fill-rule="evenodd" clip-rule="evenodd" d="M743.317 504.909C750.637 498.077 757.705 519.806 745.926 519.559C750.518 514.705 747.024 506.994 743.317 504.909Z" fill="#FFA698"/>
<path fill-rule="evenodd" clip-rule="evenodd" d="M743.357 508.079C742.258 505.042 743.183 503.937 744.521 504.263C745.992 504.623 748.075 506.734 749.18 509.877C750.93 514.951 748.421 521.37 743.523 518.866C747.736 519.113 747.343 514.025 746.078 510.876C745.193 508.745 743.862 507.253 743.357 508.079Z" fill="#FFB49C"/>
<path fill-rule="evenodd" clip-rule="evenodd" d="M745.287 509.457C744.109 511.655 743.696 512.96 744.082 513.712C744.348 514.238 745.16 514.838 746.491 513.546C746.489 512.096 746.071 510.677 745.287 509.457V509.457Z" fill="#FFA698"/>
<path fill-rule="evenodd" clip-rule="evenodd" d="M736.036 476.262L735.757 476.116C725.92 470.869 727.464 460.008 731.624 456.319C739.65 449.194 761.431 449.94 775.24 457.051C789.296 464.296 792.743 482.315 788.55 496.479C785.755 505.901 778.947 510.822 775.553 517.967C774.564 519.266 773.223 520.255 771.69 520.815C770.157 521.376 768.495 521.485 766.902 521.13C757.159 519.133 754.923 508.825 749.046 504.297C745.832 501.813 742.531 501.147 741.327 507.926C741.094 510.909 741.047 513.919 740.834 516.669C740.495 520.977 741.566 521.783 737.919 523.261C734.419 524.68 727.604 526.071 726.44 525.612C725.528 525.252 725.588 519.872 725.774 515.857C726.14 515.857 726.16 517.235 726.346 517.188C726.706 517.135 727.138 517.049 727.677 516.995C727.738 515.348 727.54 513.701 727.092 512.114C726.639 510.543 726.426 509.404 725.488 508.452C725.122 508.086 725.129 505.915 725.295 505.296C727.371 506.667 728.858 508.767 729.461 511.182C729.985 512.921 730.348 514.704 730.546 516.509C732.635 516.11 734.738 515.797 735.537 514.871C737.593 512.494 737.953 509.544 738.691 504.883C738.864 496.705 738.505 495.494 734.259 489.427C733.081 487.749 733.021 484.32 735.936 476.675C735.956 476.549 736.036 476.409 736.036 476.262Z" fill="#562E65"/>
<path fill-rule="evenodd" clip-rule="evenodd" d="M730.612 471.521C733.647 475.323 746.671 466.534 764.899 469.89C760.992 457.844 758.736 455.287 753.259 451.757C746.125 447.163 734.1 449.041 730.333 455.373C726.719 461.466 728.17 468.458 730.612 471.521Z" fill="url(#paint33_linear_636_106)"/>
<path fill-rule="evenodd" clip-rule="evenodd" d="M775.667 525.459C779.62 526.677 783.593 530.593 782.874 533.196C778.941 549.278 749.073 552.328 730.752 548.452C730.533 548.406 737.88 538.77 741.4 537.631C752.92 538.77 772.113 534.954 775.667 525.459Z" fill="#0AB7E4"/>
<g style="mix-blend-mode:multiply" opacity="0.35">
<path fill-rule="evenodd" clip-rule="evenodd" d="M716.837 654.576C715.506 622.254 709.59 586.814 708.851 575.514C708.525 570.7 710.368 567.417 712.325 563.415C714.282 559.413 737.913 559.559 744.156 578.031C746.684 626.608 729.115 658.192 716.837 654.576Z" fill="#0960AC"/>
</g>
<path fill-rule="evenodd" clip-rule="evenodd" d="M628.892 624.011L639.293 629.585L642.002 611.672C640.145 610.434 637.829 611.007 636.119 609.508C635.144 608.45 634.106 607.452 633.011 606.518C626.603 601.158 623.575 601.058 609.439 604.401C605.313 605.373 604.655 604.86 601.454 604.001L589.135 599.34C585.275 598.268 582.574 598.608 581.662 599.74C580.65 600.998 580.131 609.362 581.662 613.058C581.748 614.063 582.82 615.155 584.723 616.114C590.4 618.951 595.278 621.528 600.469 624.458C609.386 629.492 606.604 627.361 617.432 624.777C623.461 623.372 626.117 623.206 628.892 624.011Z" fill="#FFA698"/>
<path fill-rule="evenodd" clip-rule="evenodd" d="M588.097 611.013C587.811 609.222 587.591 602.356 588.33 601.81C589.787 600.718 593.241 603.102 596.123 604.361C600.628 606.325 604.069 605.852 605.626 605.127C610.95 608.982 626.037 603.668 639.353 619.776L635.287 621.201C630.715 619.989 619.089 622.793 606.671 620.369C599.138 618.891 588.297 612.432 588.097 611.013Z" fill="#FF9483"/>
<path fill-rule="evenodd" clip-rule="evenodd" d="M594.885 615.142C594.02 610.021 600.309 609.681 602.625 610.62C606.451 611.839 611.01 613.504 615.016 612.778C617.784 612.278 624.113 610.334 630.848 617.306C632.552 619.064 630.848 619.803 630.316 623.845C621.132 622.154 613.638 625.763 612.574 625.177C602.099 619.41 606.385 618.451 594.885 615.142Z" fill="#FFA698"/>
<path fill-rule="evenodd" clip-rule="evenodd" d="M692.679 621.002C679.549 616.427 661.401 610.86 651.226 610.753C648.517 610.753 644.857 611.419 642.887 610.82C640.744 610.154 637.63 609.135 636.472 608.822C633.277 611.732 631.148 619.164 630.549 625.57C632.905 626.775 635.294 628.113 637.716 629.565C639.513 630.624 641.709 634.539 643.546 635.685C654.826 642.79 676.195 648.656 688.799 653.877C694.503 656.241 699.101 658.438 705.743 658.325C710.315 657.027 713.762 655.249 716.224 653.184C716.777 652.878 717.329 652.519 717.888 652.192L718.627 650.681C719.641 649.365 720.371 647.852 720.77 646.239C722.001 643.655 723.265 640.912 724.423 638.335C728.796 628.513 738.112 605.4 741.586 587.867C746.431 563.408 728.443 551.908 714.967 557.575C703.394 562.429 701.291 581.74 698.928 592.155C696.772 601.577 694.436 612.305 692.679 621.002Z" fill="url(#paint34_linear_636_106)"/>
</g>
<defs>
<linearGradient id="paint0_linear_636_106" x1="61.1323" y1="392.366" x2="85.9056" y2="439.972" gradientUnits="userSpaceOnUse">
<stop stop-color="#5A2D68"/>
<stop offset="1" stop-color="#22043D"/>
</linearGradient>
<linearGradient id="paint1_linear_636_106" x1="221.902" y1="455.02" x2="220.73" y2="450.752" gradientUnits="userSpaceOnUse">
<stop stop-color="#FF8A78"/>
<stop offset="1" stop-color="#FFA799"/>
</linearGradient>
<linearGradient id="paint2_linear_636_106" x1="185.274" y1="476.995" x2="143.571" y2="427.104" gradientUnits="userSpaceOnUse">
<stop stop-color="#965CF2"/>
<stop offset="1" stop-color="#FF8ADC"/>
</linearGradient>
<linearGradient id="paint3_linear_636_106" x1="130.949" y1="559.826" x2="68.8391" y2="680.895" gradientUnits="userSpaceOnUse">
<stop stop-color="#3E4795"/>
<stop offset="1" stop-color="#273088"/>
</linearGradient>
<linearGradient id="paint4_linear_636_106" x1="15909.6" y1="197559" x2="-4970.7" y2="205191" gradientUnits="userSpaceOnUse">
<stop stop-color="#3E4795"/>
<stop offset="1" stop-color="#273088"/>
</linearGradient>
<linearGradient id="paint5_linear_636_106" x1="14319.8" y1="99256.8" x2="10432.9" y2="84641.2" gradientUnits="userSpaceOnUse">
<stop stop-color="#965CF2"/>
<stop offset="1" stop-color="#FF8ADC"/>
</linearGradient>
<linearGradient id="paint6_linear_636_106" x1="4488.82" y1="26012.4" x2="4614.78" y2="25746.8" gradientUnits="userSpaceOnUse">
<stop stop-color="#FF8A78"/>
<stop offset="1" stop-color="#FFA799"/>
</linearGradient>
<linearGradient id="paint7_linear_636_106" x1="4835.92" y1="77309.5" x2="8528.44" y2="68019.8" gradientUnits="userSpaceOnUse">
<stop stop-color="#965CF2"/>
<stop offset="1" stop-color="#FF8ADC"/>
</linearGradient>
<linearGradient id="paint8_linear_636_106" x1="3099.32" y1="13120.9" x2="3055.05" y2="13318.2" gradientUnits="userSpaceOnUse">
<stop stop-color="#FF8A78"/>
<stop offset="1" stop-color="#FFA799"/>
</linearGradient>
<linearGradient id="paint9_linear_636_106" x1="133.072" y1="389.723" x2="123.048" y2="405.945" gradientUnits="userSpaceOnUse">
<stop stop-color="#FFB89E"/>
<stop offset="1" stop-color="#FFA799"/>
</linearGradient>
<linearGradient id="paint10_linear_636_106" x1="241237" y1="884472" x2="592457" y2="208438" gradientUnits="userSpaceOnUse">
<stop stop-color="#965CF2"/>
<stop offset="1" stop-color="#FF8ADC"/>
</linearGradient>
<linearGradient id="paint11_linear_636_106" x1="346.649" y1="577.831" x2="400.582" y2="799.034" gradientUnits="userSpaceOnUse">
<stop stop-color="#FD90DA"/>
<stop offset="1" stop-color="#8E6DFD"/>
</linearGradient>
<linearGradient id="paint12_linear_636_106" x1="357.284" y1="712.309" x2="378.036" y2="653.638" gradientUnits="userSpaceOnUse">
<stop stop-color="#1C8EF4"/>
<stop offset="1" stop-color="#00CFDD"/>
</linearGradient>
<linearGradient id="paint13_linear_636_106" x1="147933" y1="190269" x2="148924" y2="186921" gradientUnits="userSpaceOnUse">
<stop stop-color="#1C8EF4"/>
<stop offset="1" stop-color="#00CFDD"/>
</linearGradient>
<linearGradient id="paint14_linear_636_106" x1="133801" y1="54010.8" x2="144124" y2="95533.8" gradientUnits="userSpaceOnUse">
<stop stop-color="#FD90DA"/>
<stop offset="1" stop-color="#8E6DFD"/>
</linearGradient>
<linearGradient id="paint15_linear_636_106" x1="571.839" y1="280.263" x2="597.629" y2="239.071" gradientUnits="userSpaceOnUse">
<stop stop-color="#6D6AFE"/>
<stop offset="1" stop-color="#3FB0F7"/>
</linearGradient>
<linearGradient id="paint16_linear_636_106" x1="40452.2" y1="67428" x2="53799.7" y2="102691" gradientUnits="userSpaceOnUse">
<stop stop-color="#FD90DA"/>
<stop offset="1" stop-color="#8E6DFD"/>
</linearGradient>
<linearGradient id="paint17_linear_636_106" x1="60460.9" y1="108374" x2="68579.5" y2="84526.7" gradientUnits="userSpaceOnUse">
<stop stop-color="#6D6AFE"/>
<stop offset="1" stop-color="#3FB0F7"/>
</linearGradient>
<linearGradient id="paint18_linear_636_106" x1="51327.2" y1="53866.4" x2="55832.6" y2="49169.4" gradientUnits="userSpaceOnUse">
<stop stop-color="#965CF2"/>
<stop offset="1" stop-color="#FF8ADC"/>
</linearGradient>
<linearGradient id="paint19_linear_636_106" x1="43911.6" y1="48579.7" x2="46050.3" y2="45358" gradientUnits="userSpaceOnUse">
<stop stop-color="#1C8EF4"/>
<stop offset="1" stop-color="#00CFDD"/>
</linearGradient>
<linearGradient id="paint20_linear_636_106" x1="41322.5" y1="96043.6" x2="47101.5" y2="84921.2" gradientUnits="userSpaceOnUse">
<stop stop-color="#965CF2"/>
<stop offset="1" stop-color="#FF8ADC"/>
</linearGradient>
<linearGradient id="paint21_linear_636_106" x1="35809.4" y1="85532.7" x2="37970.4" y2="78239.2" gradientUnits="userSpaceOnUse">
<stop stop-color="#1C8EF4"/>
<stop offset="1" stop-color="#00CFDD"/>
</linearGradient>
<linearGradient id="paint22_linear_636_106" x1="168703" y1="147093" x2="216113" y2="272328" gradientUnits="userSpaceOnUse">
<stop stop-color="#FD90DA"/>
<stop offset="1" stop-color="#8E6DFD"/>
</linearGradient>
<linearGradient id="paint23_linear_636_106" x1="546.277" y1="482.622" x2="508.489" y2="597.369" gradientUnits="userSpaceOnUse">
<stop stop-color="#A77EF7"/>
<stop offset="1" stop-color="#5E65D6"/>
</linearGradient>
<linearGradient id="paint24_linear_636_106" x1="109911" y1="1506.21" x2="143968" y2="91458.2" gradientUnits="userSpaceOnUse">
<stop stop-color="#FD90DA"/>
<stop offset="1" stop-color="#8E6DFD"/>
</linearGradient>
<linearGradient id="paint25_linear_636_106" x1="23643.7" y1="16232.8" x2="27070" y2="13625.3" gradientUnits="userSpaceOnUse">
<stop stop-color="#6D6AFE"/>
<stop offset="1" stop-color="#3FB0F7"/>
</linearGradient>
<linearGradient id="paint26_linear_636_106" x1="91511.7" y1="63634.4" x2="92735.6" y2="61736.5" gradientUnits="userSpaceOnUse">
<stop stop-color="#1C8EF4"/>
<stop offset="1" stop-color="#00CFDD"/>
</linearGradient>
<linearGradient id="paint27_linear_636_106" x1="56640.4" y1="94345.4" x2="54344.7" y2="84386.9" gradientUnits="userSpaceOnUse">
<stop stop-color="#1C8EF4"/>
<stop offset="1" stop-color="#00CFDD"/>
</linearGradient>
<linearGradient id="paint28_linear_636_106" x1="77466.1" y1="282608" x2="106237" y2="318196" gradientUnits="userSpaceOnUse">
<stop stop-color="#3E4795"/>
<stop offset="1" stop-color="#273088"/>
</linearGradient>
<linearGradient id="paint29_linear_636_106" x1="126280" y1="300597" x2="164168" y2="322385" gradientUnits="userSpaceOnUse">
<stop stop-color="#3E4795"/>
<stop offset="1" stop-color="#273088"/>
</linearGradient>
<linearGradient id="paint30_linear_636_106" x1="124457" y1="184951" x2="122503" y2="159600" gradientUnits="userSpaceOnUse">
<stop stop-color="#1C8EF4"/>
<stop offset="1" stop-color="#00CFDD"/>
</linearGradient>
<linearGradient id="paint31_linear_636_106" x1="72646.4" y1="63970.6" x2="75555.4" y2="67313.1" gradientUnits="userSpaceOnUse">
<stop stop-color="#FF8A78"/>
<stop offset="1" stop-color="#FFA799"/>
</linearGradient>
<linearGradient id="paint32_linear_636_106" x1="73067.2" y1="50390" x2="74312.1" y2="53791.7" gradientUnits="userSpaceOnUse">
<stop stop-color="#FFB89E"/>
<stop offset="1" stop-color="#FFA799"/>
</linearGradient>
<linearGradient id="paint33_linear_636_106" x1="728.583" y1="453.569" x2="752.735" y2="468.279" gradientUnits="userSpaceOnUse">
<stop stop-color="#8A4791"/>
<stop offset="1" stop-color="#562E65"/>
</linearGradient>
<linearGradient id="paint34_linear_636_106" x1="114556" y1="96969.2" x2="118454" y2="87353.2" gradientUnits="userSpaceOnUse">
<stop stop-color="#1C8EF4"/>
<stop offset="1" stop-color="#00CFDD"/>
</linearGradient>
<clipPath id="clip0_636_106">
<rect width="889" height="1020" fill="white"/>
</clipPath>
</defs>
</svg>
