<svg width="618" height="265" viewBox="0 0 618 265" fill="none" xmlns="http://www.w3.org/2000/svg">
<path d="M29.414 200.305H2.32104V141.753C2.32106 130 5.99994 120.5 10.4999 114L14.4999 109.5L17.8027 106.621C22.1694 102.651 27.1314 99.6081 32.689 97.4909C38.2465 95.3076 44.0025 94.2159 49.957 94.2159H73.8742V121.21H49.957C47.1121 121.21 44.4326 121.739 41.9184 122.798C39.4043 123.856 37.221 125.312 35.3685 127.164C33.516 129.017 32.0604 131.2 31.0019 133.714C29.9433 136.228 29.414 138.908 29.414 141.753V200.305Z" fill="white"/>
<path d="M185.036 146.219C185.036 154.158 183.614 161.568 180.769 168.449C177.924 175.263 174.053 181.185 169.158 186.213C164.262 191.175 158.506 195.112 151.889 198.023C145.34 200.868 138.293 202.29 130.751 202.29C123.275 202.29 116.229 200.868 109.613 198.023C103.063 195.112 97.3066 191.175 92.3445 186.213C87.4486 181.185 83.5782 175.263 80.7333 168.449C77.8883 161.568 76.4659 154.158 76.4659 146.219C76.4659 138.147 77.8883 130.671 80.7333 123.79C83.5782 116.909 87.4486 110.988 92.3445 106.026C97.3066 100.997 103.063 97.0608 109.613 94.2159C116.229 91.371 123.275 89.9485 130.751 89.9485C138.293 89.9485 145.34 91.3048 151.889 94.0174C158.506 96.6639 164.262 100.468 169.158 105.43C174.053 110.326 177.924 116.248 180.769 123.194C183.614 130.075 185.036 137.75 185.036 146.219ZM157.745 146.219C157.745 141.852 157.017 137.915 155.561 134.409C154.172 130.836 152.253 127.793 149.805 125.279C147.357 122.698 144.479 120.747 141.171 119.423C137.929 118.034 134.456 117.339 130.751 117.339C127.046 117.339 123.539 118.034 120.231 119.423C116.99 120.747 114.145 122.698 111.697 125.279C109.315 127.793 107.429 130.836 106.04 134.409C104.65 137.915 103.956 141.852 103.956 146.219C103.956 150.32 104.65 154.125 106.04 157.631C107.429 161.138 109.315 164.181 111.697 166.762C114.145 169.342 116.99 171.393 120.231 172.914C123.539 174.37 127.046 175.098 130.751 175.098C134.456 175.098 137.929 174.403 141.171 173.014C144.479 171.624 147.357 169.673 149.805 167.158C152.253 164.644 154.172 161.601 155.561 158.028C157.017 154.456 157.745 150.519 157.745 146.219ZM306.409 146.219C306.409 154.555 304.986 162.163 302.141 169.044C299.296 175.925 295.426 181.846 290.53 186.808C285.634 191.704 279.878 195.508 273.262 198.221C266.712 200.934 259.666 202.29 252.123 202.29C244.647 202.29 237.601 200.901 230.985 198.122C224.435 195.343 218.679 191.473 213.717 186.511C208.821 181.549 204.951 175.66 202.106 168.846C199.261 161.965 197.838 154.422 197.838 146.219V51.7405H225.031V101.361C226.486 99.5088 228.239 97.8548 230.29 96.3992C232.407 94.9437 234.657 93.7528 237.039 92.8265C239.487 91.9003 242.001 91.2056 244.581 90.7425C247.161 90.2132 249.676 89.9485 252.123 89.9485C259.666 89.9485 266.712 91.371 273.262 94.2159C279.878 96.9947 285.634 100.898 290.53 105.926C295.426 110.955 299.296 116.909 302.141 123.79C304.986 130.605 306.409 138.081 306.409 146.219ZM279.117 146.219C279.117 142.117 278.389 138.312 276.934 134.806C275.544 131.233 273.626 128.157 271.178 125.576C268.73 122.996 265.852 120.978 262.544 119.523C259.302 118.067 255.828 117.339 252.123 117.339C248.418 117.339 244.912 118.166 241.604 119.82C238.362 121.408 235.517 123.558 233.069 126.271C230.621 128.917 228.702 131.994 227.313 135.5C225.924 138.941 225.229 142.513 225.229 146.219C225.229 150.32 225.924 154.125 227.313 157.631C228.702 161.138 230.621 164.181 233.069 166.762C235.517 169.342 238.362 171.393 241.604 172.914C244.912 174.37 248.418 175.098 252.123 175.098C255.828 175.098 259.302 174.37 262.544 172.914C265.852 171.393 268.73 169.342 271.178 166.762C273.626 164.181 275.544 161.138 276.934 157.631C278.389 154.125 279.117 150.32 279.117 146.219ZM424.208 146.219C424.208 154.158 422.786 161.568 419.941 168.449C417.096 175.263 413.226 181.185 408.33 186.213C403.434 191.175 397.678 195.112 391.062 198.023C384.512 200.868 377.466 202.29 369.923 202.29C362.447 202.29 355.401 200.868 348.785 198.023C342.235 195.112 336.479 191.175 331.517 186.213C326.621 181.185 322.75 175.263 319.905 168.449C317.061 161.568 315.638 154.158 315.638 146.219C315.638 138.147 317.061 130.671 319.905 123.79C322.75 116.909 326.621 110.988 331.517 106.026C336.479 100.997 342.235 97.0608 348.785 94.2159C355.401 91.371 362.447 89.9485 369.923 89.9485C377.466 89.9485 384.512 91.3048 391.062 94.0174C397.678 96.6639 403.434 100.468 408.33 105.43C413.226 110.326 417.096 116.248 419.941 123.194C422.786 130.075 424.208 137.75 424.208 146.219ZM396.917 146.219C396.917 141.852 396.189 137.915 394.734 134.409C393.344 130.836 391.426 127.793 388.978 125.279C386.53 122.698 383.652 120.747 380.344 119.423C377.102 118.034 373.628 117.339 369.923 117.339C366.218 117.339 362.712 118.034 359.404 119.423C356.162 120.747 353.317 122.698 350.869 125.279C348.487 127.793 346.601 130.836 345.212 134.409C343.823 137.915 343.128 141.852 343.128 146.219C343.128 150.32 343.823 154.125 345.212 157.631C346.601 161.138 348.487 164.181 350.869 166.762C353.317 169.342 356.162 171.393 359.404 172.914C362.712 174.37 366.218 175.098 369.923 175.098C373.628 175.098 377.102 174.403 380.344 173.014C383.652 171.624 386.53 169.673 388.978 167.158C391.426 164.644 393.344 161.601 394.734 158.028C396.189 154.456 396.917 150.519 396.917 146.219Z" fill="white"/>
<path d="M457.386 200C463.936 200 470.089 198.776 475.845 196.328C481.601 193.814 486.662 190.407 491.029 186.106C495.33 181.74 498.737 176.678 501.251 170.922C503.699 165.166 504.923 159.013 504.923 152.463V120.904H518.122V93.9107H504.923V51.4353H477.929V93.9107H436.843V120.904H477.929V152.463C477.929 155.308 477.4 157.988 476.341 160.502C475.283 162.95 473.827 165.1 471.975 166.953C470.122 168.805 467.939 170.294 465.425 171.418C462.911 172.477 460.231 173.006 457.386 173.006H436.843V200H457.386Z" fill="white"/>
<path d="M27.8564 252H26.2451L23.6572 248.411C23.0225 248.981 22.347 249.518 21.6309 250.022C20.931 250.511 20.1904 250.942 19.4092 251.316C18.6279 251.674 17.8223 251.959 16.9922 252.171C16.1784 252.382 15.3483 252.488 14.502 252.488C12.6628 252.488 10.9294 252.179 9.30176 251.561C7.69043 250.942 6.27441 250.047 5.05371 248.875C3.84928 247.687 2.89714 246.238 2.19727 244.529C1.4974 242.82 1.14746 240.875 1.14746 238.694C1.14746 236.66 1.4974 234.796 2.19727 233.104C2.89714 231.395 3.84928 229.93 5.05371 228.709C6.27441 227.488 7.69043 226.544 9.30176 225.877C10.9294 225.193 12.6628 224.852 14.502 224.852C15.3483 224.852 16.1865 224.957 17.0166 225.169C17.8467 225.381 18.6523 225.674 19.4336 226.048C20.2148 226.422 20.9554 226.862 21.6553 227.366C22.3714 227.871 23.0387 228.416 23.6572 229.002L26.2451 225.901H27.8564V252ZM21.1426 238.694C21.1426 237.783 20.9635 236.904 20.6055 236.058C20.2637 235.195 19.7917 234.438 19.1895 233.787C18.5872 233.12 17.8792 232.591 17.0654 232.2C16.2679 231.793 15.4134 231.59 14.502 231.59C13.5905 231.59 12.7279 231.744 11.9141 232.054C11.1165 232.363 10.4167 232.819 9.81445 233.421C9.22852 234.023 8.76465 234.772 8.42285 235.667C8.08105 236.546 7.91016 237.555 7.91016 238.694C7.91016 239.834 8.08105 240.851 8.42285 241.746C8.76465 242.625 9.22852 243.366 9.81445 243.968C10.4167 244.57 11.1165 245.026 11.9141 245.335C12.7279 245.644 13.5905 245.799 14.502 245.799C15.4134 245.799 16.2679 245.604 17.0654 245.213C17.8792 244.806 18.5872 244.277 19.1895 243.626C19.7917 242.959 20.2637 242.202 20.6055 241.355C20.9635 240.493 21.1426 239.606 21.1426 238.694ZM52.1729 248.948C51.6357 249.437 51.0579 249.9 50.4395 250.34C49.8372 250.763 49.2025 251.137 48.5352 251.463C47.8678 251.772 47.1761 252.016 46.46 252.195C45.7601 252.391 45.0439 252.488 44.3115 252.488C42.7002 252.488 41.1865 252.203 39.7705 251.634C38.3545 251.064 37.1094 250.258 36.0352 249.217C34.9772 248.159 34.139 246.881 33.5205 245.384C32.9183 243.87 32.6172 242.177 32.6172 240.306V225.853H39.2578V240.306C39.2578 241.185 39.388 241.974 39.6484 242.674C39.9251 243.357 40.2913 243.935 40.7471 244.407C41.2028 244.879 41.7318 245.237 42.334 245.481C42.9525 245.726 43.6117 245.848 44.3115 245.848C44.9951 245.848 45.638 245.693 46.2402 245.384C46.8587 245.058 47.3958 244.635 47.8516 244.114C48.3073 243.593 48.6654 243.007 48.9258 242.356C49.1862 241.689 49.3164 241.006 49.3164 240.306V225.853H55.9814V252H54.3701L52.1729 248.948ZM74.1943 252C72.583 252 71.0693 251.699 69.6533 251.097C68.2373 250.478 66.9922 249.64 65.918 248.582C64.86 247.508 64.0218 246.263 63.4033 244.847C62.8011 243.431 62.5 241.917 62.5 240.306V232.542H59.2529V225.901H62.5V215.452H69.1406V225.901H79.248V232.542H69.1406V240.306C69.1406 241.006 69.2708 241.665 69.5312 242.283C69.7917 242.885 70.1497 243.414 70.6055 243.87C71.0612 244.326 71.5983 244.692 72.2168 244.969C72.8353 245.229 73.4945 245.359 74.1943 245.359H79.248V252H74.1943ZM108.276 238.694C108.276 240.647 107.926 242.47 107.227 244.163C106.527 245.84 105.575 247.296 104.37 248.533C103.166 249.754 101.75 250.722 100.122 251.438C98.5107 252.138 96.7773 252.488 94.9219 252.488C93.0827 252.488 91.3493 252.138 89.7217 251.438C88.1104 250.722 86.6943 249.754 85.4736 248.533C84.2692 247.296 83.3171 245.84 82.6172 244.163C81.9173 242.47 81.5674 240.647 81.5674 238.694C81.5674 236.709 81.9173 234.869 82.6172 233.177C83.3171 231.484 84.2692 230.027 85.4736 228.807C86.6943 227.57 88.1104 226.601 89.7217 225.901C91.3493 225.201 93.0827 224.852 94.9219 224.852C96.7773 224.852 98.5107 225.185 100.122 225.853C101.75 226.504 103.166 227.439 104.37 228.66C105.575 229.865 106.527 231.321 107.227 233.03C107.926 234.723 108.276 236.611 108.276 238.694ZM101.562 238.694C101.562 237.62 101.383 236.652 101.025 235.789C100.684 234.91 100.212 234.161 99.6094 233.543C99.0072 232.908 98.2992 232.428 97.4854 232.103C96.6878 231.761 95.8333 231.59 94.9219 231.59C94.0104 231.59 93.1478 231.761 92.334 232.103C91.5365 232.428 90.8366 232.908 90.2344 233.543C89.6484 234.161 89.1846 234.91 88.8428 235.789C88.501 236.652 88.3301 237.62 88.3301 238.694C88.3301 239.703 88.501 240.639 88.8428 241.502C89.1846 242.365 89.6484 243.113 90.2344 243.748C90.8366 244.383 91.5365 244.887 92.334 245.262C93.1478 245.62 94.0104 245.799 94.9219 245.799C95.8333 245.799 96.6878 245.628 97.4854 245.286C98.2992 244.944 99.0072 244.464 99.6094 243.846C100.212 243.227 100.684 242.479 101.025 241.6C101.383 240.721 101.562 239.752 101.562 238.694ZM145.215 252H138.574V235.398C138.574 234.943 138.485 234.511 138.306 234.104C138.143 233.698 137.907 233.34 137.598 233.03C137.288 232.721 136.93 232.485 136.523 232.322C136.117 232.143 135.685 232.054 135.229 232.054C134.774 232.054 134.342 232.143 133.936 232.322C133.545 232.485 133.195 232.721 132.886 233.03C132.593 233.34 132.357 233.698 132.178 234.104C132.015 234.511 131.934 234.943 131.934 235.398V252H125.269V235.398C125.269 234.943 125.179 234.511 125 234.104C124.837 233.698 124.601 233.34 124.292 233.03C123.983 232.721 123.625 232.485 123.218 232.322C122.811 232.143 122.38 232.054 121.924 232.054C121.468 232.054 121.037 232.143 120.63 232.322C120.239 232.485 119.889 232.721 119.58 233.03C119.287 233.34 119.051 233.698 118.872 234.104C118.709 234.511 118.628 234.943 118.628 235.398V252H111.963V225.853H113.574L115.381 227.854C116.309 227.073 117.326 226.471 118.433 226.048C119.556 225.608 120.719 225.389 121.924 225.389C123.145 225.389 124.333 225.617 125.488 226.072C126.66 226.528 127.686 227.317 128.564 228.44C128.971 227.887 129.435 227.415 129.956 227.024C130.477 226.634 131.022 226.316 131.592 226.072C132.178 225.828 132.78 225.657 133.398 225.56C134.017 225.446 134.627 225.389 135.229 225.389C136.613 225.389 137.907 225.649 139.111 226.17C140.332 226.691 141.39 227.407 142.285 228.318C143.197 229.214 143.913 230.271 144.434 231.492C144.954 232.713 145.215 234.015 145.215 235.398V252ZM175.415 252H173.804L171.216 248.411C170.581 248.981 169.906 249.518 169.189 250.022C168.49 250.511 167.749 250.942 166.968 251.316C166.187 251.674 165.381 251.959 164.551 252.171C163.737 252.382 162.907 252.488 162.061 252.488C160.221 252.488 158.488 252.179 156.86 251.561C155.249 250.942 153.833 250.047 152.612 248.875C151.408 247.687 150.456 246.238 149.756 244.529C149.056 242.82 148.706 240.875 148.706 238.694C148.706 236.66 149.056 234.796 149.756 233.104C150.456 231.395 151.408 229.93 152.612 228.709C153.833 227.488 155.249 226.544 156.86 225.877C158.488 225.193 160.221 224.852 162.061 224.852C162.907 224.852 163.745 224.957 164.575 225.169C165.405 225.381 166.211 225.674 166.992 226.048C167.773 226.422 168.514 226.862 169.214 227.366C169.93 227.871 170.597 228.416 171.216 229.002L173.804 225.901H175.415V252ZM168.701 238.694C168.701 237.783 168.522 236.904 168.164 236.058C167.822 235.195 167.35 234.438 166.748 233.787C166.146 233.12 165.438 232.591 164.624 232.2C163.826 231.793 162.972 231.59 162.061 231.59C161.149 231.59 160.286 231.744 159.473 232.054C158.675 232.363 157.975 232.819 157.373 233.421C156.787 234.023 156.323 234.772 155.981 235.667C155.64 236.546 155.469 237.555 155.469 238.694C155.469 239.834 155.64 240.851 155.981 241.746C156.323 242.625 156.787 243.366 157.373 243.968C157.975 244.57 158.675 245.026 159.473 245.335C160.286 245.644 161.149 245.799 162.061 245.799C162.972 245.799 163.826 245.604 164.624 245.213C165.438 244.806 166.146 244.277 166.748 243.626C167.35 242.959 167.822 242.202 168.164 241.355C168.522 240.493 168.701 239.606 168.701 238.694ZM190.527 263.255C189.941 263.222 189.38 263.1 188.843 262.889C188.306 262.677 187.826 262.449 187.402 262.205C186.914 261.912 186.458 261.595 186.035 261.253L187.378 257.591C187.752 257.868 188.127 258.104 188.501 258.299C188.826 258.478 189.16 258.641 189.502 258.787C189.844 258.934 190.153 259.007 190.43 259.007C190.788 259.007 191.081 258.893 191.309 258.665C191.553 258.437 191.675 258.136 191.675 257.762C191.675 257.306 191.496 256.98 191.138 256.785C190.796 256.59 190.43 256.492 190.039 256.492C189.518 256.492 189.046 256.631 188.623 256.907L190.234 252.293C188.656 252.049 187.183 251.536 185.815 250.755C184.465 249.974 183.285 249.005 182.275 247.85C181.283 246.694 180.501 245.376 179.932 243.895C179.362 242.413 179.077 240.851 179.077 239.207C179.077 237.205 179.427 235.333 180.127 233.592C180.827 231.85 181.779 230.337 182.983 229.051C184.204 227.749 185.62 226.723 187.231 225.975C188.859 225.226 190.592 224.852 192.432 224.852C193.522 224.852 194.588 224.99 195.63 225.267C196.688 225.543 197.689 225.95 198.633 226.487C199.593 227.008 200.472 227.651 201.27 228.416C202.083 229.181 202.783 230.06 203.369 231.053L198.486 235.96C198.242 235.276 197.909 234.666 197.485 234.129C197.062 233.576 196.582 233.112 196.045 232.737C195.524 232.363 194.954 232.078 194.336 231.883C193.717 231.688 193.083 231.59 192.432 231.59C191.52 231.59 190.658 231.777 189.844 232.151C189.046 232.526 188.346 233.055 187.744 233.738C187.158 234.406 186.694 235.203 186.353 236.131C186.011 237.059 185.84 238.084 185.84 239.207C185.84 240.118 186.011 240.973 186.353 241.771C186.694 242.568 187.158 243.268 187.744 243.87C188.346 244.472 189.046 244.944 189.844 245.286C190.658 245.628 191.52 245.799 192.432 245.799C193.083 245.799 193.709 245.709 194.312 245.53C194.914 245.351 195.475 245.099 195.996 244.773C196.533 244.432 197.005 244.025 197.412 243.553C197.835 243.064 198.177 242.527 198.438 241.941L203.32 246.849C202.734 247.679 202.067 248.427 201.318 249.095C200.586 249.762 199.788 250.332 198.926 250.804C198.063 251.276 197.152 251.65 196.191 251.927C195.231 252.203 194.246 252.374 193.237 252.439L192.725 253.904C193.229 253.969 193.709 254.116 194.165 254.344C194.621 254.572 195.011 254.865 195.337 255.223C195.679 255.597 195.947 256.028 196.143 256.517C196.338 257.021 196.436 257.566 196.436 258.152C196.436 258.966 196.297 259.69 196.021 260.325C195.744 260.96 195.361 261.489 194.873 261.912C194.385 262.352 193.799 262.685 193.115 262.913C192.448 263.141 191.715 263.255 190.918 263.255H190.527ZM231.958 252H230.347L227.759 248.411C227.124 248.981 226.449 249.518 225.732 250.022C225.033 250.511 224.292 250.942 223.511 251.316C222.729 251.674 221.924 251.959 221.094 252.171C220.28 252.382 219.45 252.488 218.604 252.488C216.764 252.488 215.031 252.179 213.403 251.561C211.792 250.942 210.376 250.047 209.155 248.875C207.951 247.687 206.999 246.238 206.299 244.529C205.599 242.82 205.249 240.875 205.249 238.694C205.249 236.66 205.599 234.796 206.299 233.104C206.999 231.395 207.951 229.93 209.155 228.709C210.376 227.488 211.792 226.544 213.403 225.877C215.031 225.193 216.764 224.852 218.604 224.852C219.45 224.852 220.288 224.957 221.118 225.169C221.948 225.381 222.754 225.674 223.535 226.048C224.316 226.422 225.057 226.862 225.757 227.366C226.473 227.871 227.14 228.416 227.759 229.002L230.347 225.901H231.958V252ZM225.244 238.694C225.244 237.783 225.065 236.904 224.707 236.058C224.365 235.195 223.893 234.438 223.291 233.787C222.689 233.12 221.981 232.591 221.167 232.2C220.369 231.793 219.515 231.59 218.604 231.59C217.692 231.59 216.829 231.744 216.016 232.054C215.218 232.363 214.518 232.819 213.916 233.421C213.33 234.023 212.866 234.772 212.524 235.667C212.183 236.546 212.012 237.555 212.012 238.694C212.012 239.834 212.183 240.851 212.524 241.746C212.866 242.625 213.33 243.366 213.916 243.968C214.518 244.57 215.218 245.026 216.016 245.335C216.829 245.644 217.692 245.799 218.604 245.799C219.515 245.799 220.369 245.604 221.167 245.213C221.981 244.806 222.689 244.277 223.291 243.626C223.893 242.959 224.365 242.202 224.707 241.355C225.065 240.493 225.244 239.606 225.244 238.694ZM226.099 214.817C226.196 215.11 226.286 215.428 226.367 215.77C226.432 216.062 226.489 216.396 226.538 216.771C226.603 217.145 226.636 217.544 226.636 217.967C226.636 218.781 226.514 219.513 226.27 220.164C226.025 220.799 225.692 221.344 225.269 221.8C224.862 222.239 224.365 222.581 223.779 222.825C223.21 223.053 222.599 223.167 221.948 223.167C221.216 223.167 220.589 223.012 220.068 222.703C219.548 222.378 219.084 222.028 218.677 221.653C218.286 221.263 217.912 220.913 217.554 220.604C217.212 220.278 216.846 220.115 216.455 220.115C216.146 220.115 215.894 220.254 215.698 220.53C215.503 220.807 215.405 221.084 215.405 221.36C215.405 221.686 215.454 222.003 215.552 222.312C215.666 222.605 215.812 222.89 215.991 223.167L211.401 223.362C211.239 223.069 211.092 222.728 210.962 222.337C210.848 222.011 210.75 221.621 210.669 221.165C210.588 220.693 210.547 220.172 210.547 219.603C210.547 218.154 210.986 217.023 211.865 216.209C212.744 215.379 213.94 214.964 215.454 214.964C216.089 214.964 216.626 215.045 217.065 215.208C217.521 215.354 217.912 215.542 218.237 215.77C218.579 215.997 218.872 216.25 219.116 216.526C219.36 216.787 219.58 217.031 219.775 217.259C219.987 217.487 220.19 217.682 220.386 217.845C220.597 217.991 220.833 218.064 221.094 218.064C221.37 218.064 221.582 217.942 221.729 217.698C221.875 217.454 221.948 217.145 221.948 216.771C221.948 216.331 221.818 215.892 221.558 215.452L226.099 214.817ZM262.329 238.694C262.329 240.647 261.979 242.47 261.279 244.163C260.579 245.84 259.627 247.296 258.423 248.533C257.218 249.754 255.802 250.722 254.175 251.438C252.563 252.138 250.83 252.488 248.975 252.488C247.135 252.488 245.402 252.138 243.774 251.438C242.163 250.722 240.747 249.754 239.526 248.533C238.322 247.296 237.37 245.84 236.67 244.163C235.97 242.47 235.62 240.647 235.62 238.694C235.62 236.709 235.97 234.869 236.67 233.177C237.37 231.484 238.322 230.027 239.526 228.807C240.747 227.57 242.163 226.601 243.774 225.901C245.402 225.201 247.135 224.852 248.975 224.852C250.83 224.852 252.563 225.185 254.175 225.853C255.802 226.504 257.218 227.439 258.423 228.66C259.627 229.865 260.579 231.321 261.279 233.03C261.979 234.723 262.329 236.611 262.329 238.694ZM255.615 238.694C255.615 237.62 255.436 236.652 255.078 235.789C254.736 234.91 254.264 234.161 253.662 233.543C253.06 232.908 252.352 232.428 251.538 232.103C250.741 231.761 249.886 231.59 248.975 231.59C248.063 231.59 247.201 231.761 246.387 232.103C245.589 232.428 244.889 232.908 244.287 233.543C243.701 234.161 243.237 234.91 242.896 235.789C242.554 236.652 242.383 237.62 242.383 238.694C242.383 239.703 242.554 240.639 242.896 241.502C243.237 242.365 243.701 243.113 244.287 243.748C244.889 244.383 245.589 244.887 246.387 245.262C247.201 245.62 248.063 245.799 248.975 245.799C249.886 245.799 250.741 245.628 251.538 245.286C252.352 244.944 253.06 244.464 253.662 243.846C254.264 243.227 254.736 242.479 255.078 241.6C255.436 240.721 255.615 239.752 255.615 238.694ZM286.694 252H280.029V225.853H281.641L283.838 228.953C284.912 227.977 286.133 227.228 287.5 226.707C288.867 226.17 290.283 225.901 291.748 225.901H297.632V232.542H291.748C291.048 232.542 290.389 232.672 289.771 232.933C289.152 233.193 288.615 233.551 288.159 234.007C287.703 234.463 287.345 235 287.085 235.618C286.825 236.237 286.694 236.896 286.694 237.596V252ZM310.645 245.604C310.905 245.685 311.165 245.742 311.426 245.774C311.686 245.791 311.947 245.799 312.207 245.799C312.858 245.799 313.485 245.709 314.087 245.53C314.689 245.351 315.251 245.099 315.771 244.773C316.309 244.432 316.781 244.025 317.188 243.553C317.611 243.064 317.952 242.527 318.213 241.941L323.096 246.849C322.477 247.728 321.761 248.517 320.947 249.217C320.15 249.917 319.279 250.511 318.335 250.999C317.407 251.487 316.423 251.854 315.381 252.098C314.355 252.358 313.298 252.488 312.207 252.488C310.368 252.488 308.634 252.146 307.007 251.463C305.396 250.779 303.979 249.827 302.759 248.606C301.554 247.386 300.602 245.937 299.902 244.261C299.202 242.568 298.853 240.713 298.853 238.694C298.853 236.627 299.202 234.739 299.902 233.03C300.602 231.321 301.554 229.865 302.759 228.66C303.979 227.456 305.396 226.52 307.007 225.853C308.634 225.185 310.368 224.852 312.207 224.852C313.298 224.852 314.364 224.982 315.405 225.242C316.447 225.503 317.432 225.877 318.359 226.365C319.303 226.854 320.182 227.456 320.996 228.172C321.81 228.872 322.526 229.661 323.145 230.54L310.645 245.604ZM314.062 231.858C313.753 231.744 313.444 231.671 313.135 231.639C312.842 231.606 312.533 231.59 312.207 231.59C311.296 231.59 310.433 231.761 309.619 232.103C308.822 232.428 308.122 232.9 307.52 233.519C306.934 234.137 306.47 234.886 306.128 235.765C305.786 236.627 305.615 237.604 305.615 238.694C305.615 238.938 305.623 239.215 305.64 239.524C305.672 239.834 305.713 240.151 305.762 240.477C305.827 240.786 305.9 241.087 305.981 241.38C306.063 241.673 306.169 241.933 306.299 242.161L314.062 231.858ZM340.869 252H325.635V245.359H340.869C341.325 245.359 341.715 245.197 342.041 244.871C342.367 244.546 342.529 244.155 342.529 243.699C342.529 243.227 342.367 242.918 342.041 242.771C341.715 242.625 341.325 242.552 340.869 242.552H333.936C332.78 242.552 331.698 242.332 330.688 241.893C329.679 241.453 328.8 240.859 328.052 240.11C327.303 239.345 326.709 238.458 326.27 237.449C325.846 236.44 325.635 235.358 325.635 234.202C325.635 233.047 325.846 231.964 326.27 230.955C326.709 229.946 327.303 229.067 328.052 228.318C328.8 227.57 329.679 226.984 330.688 226.561C331.698 226.121 332.78 225.901 333.936 225.901H347.437V232.542H333.936C333.48 232.542 333.089 232.705 332.764 233.03C332.438 233.356 332.275 233.746 332.275 234.202C332.275 234.674 332.438 235.081 332.764 235.423C333.089 235.748 333.48 235.911 333.936 235.911H340.869C342.008 235.911 343.083 236.106 344.092 236.497C345.101 236.871 345.98 237.4 346.729 238.084C347.477 238.768 348.071 239.59 348.511 240.55C348.95 241.51 349.17 242.56 349.17 243.699C349.17 244.855 348.95 245.937 348.511 246.946C348.071 247.939 347.477 248.818 346.729 249.583C345.98 250.332 345.101 250.926 344.092 251.365C343.083 251.788 342.008 252 340.869 252ZM360.596 218.748C360.596 219.367 360.474 219.944 360.229 220.481C360.002 221.019 359.684 221.491 359.277 221.897C358.87 222.288 358.39 222.605 357.837 222.85C357.3 223.077 356.722 223.191 356.104 223.191C355.485 223.191 354.899 223.077 354.346 222.85C353.809 222.605 353.337 222.288 352.93 221.897C352.539 221.491 352.222 221.019 351.978 220.481C351.75 219.944 351.636 219.367 351.636 218.748C351.636 218.146 351.75 217.576 351.978 217.039C352.222 216.486 352.539 216.014 352.93 215.623C353.337 215.216 353.809 214.899 354.346 214.671C354.899 214.427 355.485 214.305 356.104 214.305C356.722 214.305 357.3 214.427 357.837 214.671C358.39 214.899 358.87 215.216 359.277 215.623C359.684 216.014 360.002 216.486 360.229 217.039C360.474 217.576 360.596 218.146 360.596 218.748ZM359.448 252H352.734V225.853H359.448V252ZM389.819 252H388.208L385.62 248.411C384.985 248.981 384.31 249.518 383.594 250.022C382.894 250.511 382.153 250.942 381.372 251.316C380.591 251.674 379.785 251.959 378.955 252.171C378.141 252.382 377.311 252.488 376.465 252.488C374.626 252.488 372.892 252.146 371.265 251.463C369.653 250.763 368.237 249.803 367.017 248.582C365.812 247.345 364.86 245.888 364.16 244.212C363.46 242.519 363.11 240.68 363.11 238.694C363.11 236.725 363.46 234.894 364.16 233.201C364.86 231.508 365.812 230.044 367.017 228.807C368.237 227.57 369.653 226.601 371.265 225.901C372.892 225.201 374.626 224.852 376.465 224.852C377.051 224.852 377.653 224.9 378.271 224.998C378.906 225.096 379.517 225.258 380.103 225.486C380.705 225.698 381.266 225.983 381.787 226.341C382.308 226.699 382.747 227.138 383.105 227.659V215.452H389.819V252ZM383.105 238.694C383.105 237.783 382.926 236.904 382.568 236.058C382.227 235.195 381.755 234.438 381.152 233.787C380.55 233.12 379.842 232.591 379.028 232.2C378.231 231.793 377.376 231.59 376.465 231.59C375.553 231.59 374.691 231.753 373.877 232.078C373.079 232.404 372.38 232.876 371.777 233.494C371.191 234.096 370.728 234.837 370.386 235.716C370.044 236.595 369.873 237.588 369.873 238.694C369.873 239.655 370.044 240.566 370.386 241.429C370.728 242.291 371.191 243.048 371.777 243.699C372.38 244.35 373.079 244.863 373.877 245.237C374.691 245.612 375.553 245.799 376.465 245.799C377.376 245.799 378.231 245.604 379.028 245.213C379.842 244.806 380.55 244.277 381.152 243.626C381.755 242.959 382.227 242.202 382.568 241.355C382.926 240.493 383.105 239.606 383.105 238.694ZM405.322 245.604C405.583 245.685 405.843 245.742 406.104 245.774C406.364 245.791 406.624 245.799 406.885 245.799C407.536 245.799 408.162 245.709 408.765 245.53C409.367 245.351 409.928 245.099 410.449 244.773C410.986 244.432 411.458 244.025 411.865 243.553C412.288 243.064 412.63 242.527 412.891 241.941L417.773 246.849C417.155 247.728 416.439 248.517 415.625 249.217C414.827 249.917 413.957 250.511 413.013 250.999C412.085 251.487 411.1 251.854 410.059 252.098C409.033 252.358 407.975 252.488 406.885 252.488C405.046 252.488 403.312 252.146 401.685 251.463C400.073 250.779 398.657 249.827 397.437 248.606C396.232 247.386 395.28 245.937 394.58 244.261C393.88 242.568 393.53 240.713 393.53 238.694C393.53 236.627 393.88 234.739 394.58 233.03C395.28 231.321 396.232 229.865 397.437 228.66C398.657 227.456 400.073 226.52 401.685 225.853C403.312 225.185 405.046 224.852 406.885 224.852C407.975 224.852 409.041 224.982 410.083 225.242C411.125 225.503 412.109 225.877 413.037 226.365C413.981 226.854 414.86 227.456 415.674 228.172C416.488 228.872 417.204 229.661 417.822 230.54L405.322 245.604ZM408.74 231.858C408.431 231.744 408.122 231.671 407.812 231.639C407.52 231.606 407.21 231.59 406.885 231.59C405.973 231.59 405.111 231.761 404.297 232.103C403.499 232.428 402.799 232.9 402.197 233.519C401.611 234.137 401.147 234.886 400.806 235.765C400.464 236.627 400.293 237.604 400.293 238.694C400.293 238.938 400.301 239.215 400.317 239.524C400.35 239.834 400.391 240.151 400.439 240.477C400.505 240.786 400.578 241.087 400.659 241.38C400.741 241.673 400.846 241.933 400.977 242.161L408.74 231.858ZM427.856 252H421.191V225.853H422.803L425 228.392C426.074 227.415 427.287 226.666 428.638 226.146C430.005 225.608 431.429 225.34 432.91 225.34C434.505 225.34 436.011 225.649 437.427 226.268C438.843 226.87 440.08 227.708 441.138 228.782C442.196 229.84 443.026 231.085 443.628 232.518C444.246 233.934 444.556 235.447 444.556 237.059V252H437.891V237.059C437.891 236.375 437.76 235.732 437.5 235.13C437.24 234.511 436.882 233.974 436.426 233.519C435.97 233.063 435.441 232.705 434.839 232.444C434.237 232.184 433.594 232.054 432.91 232.054C432.21 232.054 431.551 232.184 430.933 232.444C430.314 232.705 429.777 233.063 429.321 233.519C428.866 233.974 428.507 234.511 428.247 235.13C427.987 235.732 427.856 236.375 427.856 237.059V252ZM472.168 231.053L467.285 235.96C467.041 235.276 466.707 234.666 466.284 234.129C465.861 233.576 465.381 233.112 464.844 232.737C464.323 232.363 463.753 232.078 463.135 231.883C462.516 231.688 461.882 231.59 461.23 231.59C460.319 231.59 459.456 231.777 458.643 232.151C457.845 232.526 457.145 233.055 456.543 233.738C455.957 234.406 455.493 235.203 455.151 236.131C454.81 237.059 454.639 238.084 454.639 239.207C454.639 240.118 454.81 240.973 455.151 241.771C455.493 242.568 455.957 243.268 456.543 243.87C457.145 244.472 457.845 244.944 458.643 245.286C459.456 245.628 460.319 245.799 461.23 245.799C461.882 245.799 462.508 245.709 463.11 245.53C463.713 245.351 464.274 245.099 464.795 244.773C465.332 244.432 465.804 244.025 466.211 243.553C466.634 243.064 466.976 242.527 467.236 241.941L472.119 246.849C471.501 247.728 470.785 248.517 469.971 249.217C469.173 249.917 468.302 250.511 467.358 250.999C466.431 251.487 465.446 251.854 464.404 252.098C463.379 252.358 462.321 252.488 461.23 252.488C459.391 252.488 457.658 252.146 456.03 251.463C454.419 250.763 453.003 249.811 451.782 248.606C450.578 247.402 449.626 245.994 448.926 244.383C448.226 242.771 447.876 241.046 447.876 239.207C447.876 237.205 448.226 235.333 448.926 233.592C449.626 231.85 450.578 230.337 451.782 229.051C453.003 227.749 454.419 226.723 456.03 225.975C457.658 225.226 459.391 224.852 461.23 224.852C462.321 224.852 463.387 224.99 464.429 225.267C465.487 225.543 466.488 225.95 467.432 226.487C468.392 227.008 469.271 227.651 470.068 228.416C470.882 229.181 471.582 230.06 472.168 231.053ZM483.301 218.748C483.301 219.367 483.179 219.944 482.935 220.481C482.707 221.019 482.389 221.491 481.982 221.897C481.576 222.288 481.095 222.605 480.542 222.85C480.005 223.077 479.427 223.191 478.809 223.191C478.19 223.191 477.604 223.077 477.051 222.85C476.514 222.605 476.042 222.288 475.635 221.897C475.244 221.491 474.927 221.019 474.683 220.481C474.455 219.944 474.341 219.367 474.341 218.748C474.341 218.146 474.455 217.576 474.683 217.039C474.927 216.486 475.244 216.014 475.635 215.623C476.042 215.216 476.514 214.899 477.051 214.671C477.604 214.427 478.19 214.305 478.809 214.305C479.427 214.305 480.005 214.427 480.542 214.671C481.095 214.899 481.576 215.216 481.982 215.623C482.389 216.014 482.707 216.486 482.935 217.039C483.179 217.576 483.301 218.146 483.301 218.748ZM482.153 252H475.439V225.853H482.153V252ZM512.573 252H510.962L508.374 248.411C507.739 248.981 507.064 249.518 506.348 250.022C505.648 250.511 504.907 250.942 504.126 251.316C503.345 251.674 502.539 251.959 501.709 252.171C500.895 252.382 500.065 252.488 499.219 252.488C497.38 252.488 495.646 252.179 494.019 251.561C492.407 250.942 490.991 250.047 489.771 248.875C488.566 247.687 487.614 246.238 486.914 244.529C486.214 242.82 485.864 240.875 485.864 238.694C485.864 236.66 486.214 234.796 486.914 233.104C487.614 231.395 488.566 229.93 489.771 228.709C490.991 227.488 492.407 226.544 494.019 225.877C495.646 225.193 497.38 224.852 499.219 224.852C500.065 224.852 500.903 224.957 501.733 225.169C502.563 225.381 503.369 225.674 504.15 226.048C504.932 226.422 505.672 226.862 506.372 227.366C507.088 227.871 507.756 228.416 508.374 229.002L510.962 225.901H512.573V252ZM505.859 238.694C505.859 237.783 505.68 236.904 505.322 236.058C504.98 235.195 504.508 234.438 503.906 233.787C503.304 233.12 502.596 232.591 501.782 232.2C500.985 231.793 500.13 231.59 499.219 231.59C498.307 231.59 497.445 231.744 496.631 232.054C495.833 232.363 495.133 232.819 494.531 233.421C493.945 234.023 493.481 234.772 493.14 235.667C492.798 236.546 492.627 237.555 492.627 238.694C492.627 239.834 492.798 240.851 493.14 241.746C493.481 242.625 493.945 243.366 494.531 243.968C495.133 244.57 495.833 245.026 496.631 245.335C497.445 245.644 498.307 245.799 499.219 245.799C500.13 245.799 500.985 245.604 501.782 245.213C502.596 244.806 503.304 244.277 503.906 243.626C504.508 242.959 504.98 242.202 505.322 241.355C505.68 240.493 505.859 239.606 505.859 238.694ZM524.39 252H517.676V215.452H524.39V252Z" fill="white"/>
<path d="M615.623 172.096L594.336 199.089L542.336 264.589L571.758 199.089H527L571.758 119.994H527V93H615.623L570.865 172.096H615.623Z" fill="white"/>
</svg>
