<svg width="880" height="1020" viewBox="0 0 880 1020" fill="none" xmlns="http://www.w3.org/2000/svg">
<g clip-path="url(#clip0_637_415)">
<g style="mix-blend-mode:multiply" opacity="0.35">
<path fill-rule="evenodd" clip-rule="evenodd" d="M617.169 904.421L300.072 728.898C292.286 725.341 280.847 721.984 273.215 726.638L253.678 738.552C249.752 740.945 236.825 748.904 245.467 753.604C270.896 767.453 540.73 918.084 566.551 932.132C571.433 934.792 578.581 935.749 586.081 935.131C593.58 934.512 601.299 932.471 607.232 928.828L615.037 924.014C620.55 920.61 623.606 916.887 623.899 913.323C624.191 909.76 621.945 906.608 617.169 904.421Z" fill="#59CAAF"/>
</g>
<path fill-rule="evenodd" clip-rule="evenodd" d="M370.267 109.928C365.697 107.328 360.303 106.364 355.314 108.259L344.088 112.647C340.016 133.756 576.515 907.532 581.723 912.931L591.741 909.148C598.317 906.555 601.765 899.7 602.735 893.045L687.312 315.203C687.314 315.181 687.314 315.159 687.312 315.136C688.687 305.416 685.77 295.304 680.43 287.212C677.553 282.838 673.787 278.829 669.137 276.309L370.267 109.928Z" fill="url(#paint0_linear_637_415)"/>
<path fill-rule="evenodd" clip-rule="evenodd" d="M658.07 280.571L359.2 114.203C347.01 107.441 335.405 113.93 333.253 128.65L248.669 706.492C246.517 721.206 254.648 738.638 266.804 745.393L565.681 911.748C577.87 918.509 589.502 912.034 591.654 897.32L676.245 319.478C678.397 304.765 670.266 287.319 658.07 280.571Z" fill="url(#paint1_linear_637_415)"/>
<path fill-rule="evenodd" clip-rule="evenodd" d="M658.07 280.571L359.2 114.203C347.01 107.441 335.405 113.93 333.253 128.65L328.922 158.236L671.893 349.137L676.238 319.471C678.397 304.765 670.266 287.319 658.07 280.571Z" fill="#4A9FF8"/>
<path fill-rule="evenodd" clip-rule="evenodd" d="M517.918 16.0896C518.583 11.2428 517.254 8.31739 519.639 5.57152C521.167 3.82959 525.996 1.58237 528.015 0.817778C531.921 -0.664857 536.585 -0.192807 541.394 2.57965L602.422 38.9208C613.536 45.3633 621.082 61.8784 619.262 75.774L609.769 145.531C609.205 149.839 607.604 155.397 603.93 158.569C601.32 160.829 596.942 163.17 593.86 163.555C590.777 163.941 589.874 161.095 586.32 159.041L525.299 122.7C514.172 116.251 506.632 99.7421 508.452 85.8466L517.918 16.0896Z" fill="#D0E7FF"/>
<path fill-rule="evenodd" clip-rule="evenodd" d="M514.158 18.3035C515.978 4.40797 526.474 -1.64225 537.601 4.79359L598.622 41.1281C609.736 47.5706 617.289 64.0857 615.469 77.9813L606.029 147.745C604.209 161.64 593.7 167.691 582.58 161.255L521.558 124.914C510.432 118.465 502.892 101.956 504.712 88.0605L514.158 18.3035Z" fill="white"/>
<path fill-rule="evenodd" clip-rule="evenodd" d="M514.158 18.3035C515.979 4.40797 526.474 -1.64225 537.601 4.79359L598.629 41.1348C609.743 47.5773 617.296 64.0924 615.469 77.9879L614.579 84.5368C613.392 83.6287 612.15 82.796 610.859 82.0435L513.361 24.3537L514.158 18.3035Z" fill="url(#paint2_linear_637_415)"/>
<path opacity="0.2" fill-rule="evenodd" clip-rule="evenodd" d="M554.368 58.2084C571.32 62.0912 584.34 82.2896 583.45 103.332C582.56 124.375 568.092 138.291 551.146 134.401C534.2 130.512 521.173 110.32 522.064 89.2773C522.954 68.2345 537.409 54.3257 554.368 58.2084Z" fill="#6D6AFD"/>
<path fill-rule="evenodd" clip-rule="evenodd" d="M553.624 75.7939C562.764 77.8882 569.779 88.7786 569.301 100.121C568.822 111.464 561.024 118.963 551.883 116.869C542.743 114.775 535.721 103.884 536.206 92.5417C536.691 81.1992 544.483 73.6996 553.624 75.7939ZM553.218 85.421C548.362 84.3107 544.224 88.2932 543.965 94.3168C543.706 100.34 547.439 106.125 552.295 107.242C557.151 108.359 561.29 104.369 561.549 98.3459C561.808 92.3223 558.074 86.5047 553.218 85.3944V85.421Z" fill="url(#paint3_linear_637_415)"/>
<path fill-rule="evenodd" clip-rule="evenodd" d="M529.238 12.1803C532.3 12.8784 534.652 16.5351 534.492 20.3314C534.333 24.1278 531.715 26.6476 528.653 25.9429C525.591 25.2381 523.239 21.588 523.399 17.7917C523.558 13.9953 526.169 11.4822 529.238 12.1803Z" fill="white"/>
<path fill-rule="evenodd" clip-rule="evenodd" d="M543.188 20.2051C546.25 20.9032 548.602 24.5599 548.442 28.3629C548.283 32.1659 545.666 34.6791 542.603 33.9743C539.541 33.2696 537.189 29.6195 537.349 25.8165C537.508 22.0135 540.125 19.5003 543.188 20.2051Z" fill="white"/>
<path fill-rule="evenodd" clip-rule="evenodd" d="M558.28 29.0078C561.343 29.7059 563.694 33.3626 563.535 37.1656C563.375 40.9686 560.758 43.4818 557.696 42.777C554.633 42.0723 552.282 38.4222 552.441 34.6259C552.601 30.8295 555.218 28.3097 558.28 29.0078Z" fill="white"/>
<path fill-rule="evenodd" clip-rule="evenodd" d="M276.018 630.24L377.94 686.134L378.385 683.049L276.463 627.155L288.898 542.385L390.82 598.28L391.265 595.195L289.337 539.307L301.739 454.537L403.701 510.465L404.146 507.387L302.217 451.439L314.62 366.636L416.508 422.584L416.993 419.506L315.065 363.611L327.494 278.815L429.415 334.723L429.86 331.645L327.939 275.73L340.374 190.974L442.296 246.889L429.86 331.645L429.415 334.723L417.02 419.526L416.508 422.584L404.139 507.387L403.694 510.465L391.265 595.202L390.82 598.287L378.385 683.083L377.94 686.168L365.504 770.937L263.583 715.009L276.018 630.24V630.24ZM546.914 304.286L444.993 248.371L432.551 333.094L534.472 388.996L534.027 392.081L432.112 336.206L419.677 420.982L521.638 476.91L521.16 479.995L419.232 424.067L406.843 508.863L508.758 564.758L508.279 567.836L406.351 511.941L393.955 596.711L495.87 652.639L495.425 655.724L393.517 599.763L381.082 684.559L482.997 740.447L482.551 743.538L380.637 687.65L368.201 772.413L470.116 828.341L482.545 743.545L482.99 740.453L495.425 655.697L495.87 652.612L508.273 567.843L508.751 564.764L521.153 479.995L521.631 476.91L534.027 392.114L534.472 389.029L546.908 304.286H546.914ZM651.526 361.683L639.091 446.433L638.646 449.518L626.21 534.281L625.772 537.366L613.376 622.162L612.898 625.247L600.516 709.983L600.071 713.061L587.622 797.831L587.177 800.916L574.741 885.712L472.82 829.817L485.255 745.021L587.183 800.949L587.628 797.864L485.7 741.936L498.136 657.173L600.051 713.061L600.496 709.983L498.574 654.082L510.976 569.312L612.898 625.24L613.376 622.155L511.455 566.234L523.857 481.471L625.759 537.366L626.197 534.281L524.295 478.386L536.744 393.596L638.646 449.518L639.091 446.433L537.169 390.505L549.605 305.755L651.526 361.683ZM338.122 186.42L260.44 716.612L576.98 890.246L654.462 359.968L338.122 186.42Z" fill="#4A9FF8"/>
<path fill-rule="evenodd" clip-rule="evenodd" d="M442.116 753.006L431.043 746.883C429.256 745.892 427.974 743.558 427.867 741.171L427.276 726.192C427.272 725.052 426.98 723.931 426.427 722.933C425.874 721.936 425.079 721.095 424.114 720.488C423.729 720.24 423.296 720.078 422.843 720.011C422.391 719.945 421.929 719.975 421.489 720.101C421.049 720.227 420.641 720.445 420.292 720.741C419.943 721.037 419.661 721.404 419.464 721.817L413.187 733.027C412.989 733.439 412.707 733.806 412.359 734.102C412.011 734.399 411.605 734.618 411.166 734.748C410.728 734.877 410.267 734.912 409.814 734.852C409.361 734.791 408.926 734.636 408.537 734.397L397.47 728.233C393.484 725.986 390.435 731.405 393.059 736.119L400.299 749.156C401.469 751.251 401.575 753.903 400.565 755.692L394.321 766.855C392.607 769.913 394.228 774.321 396.805 775.751C397.202 775.985 397.643 776.135 398.1 776.192C398.557 776.249 399.02 776.212 399.463 776.083L410.144 772.945C410.589 772.823 411.054 772.792 411.51 772.855C411.967 772.918 412.406 773.073 412.801 773.311C413.741 773.865 414.507 774.671 415.013 775.638L422.228 788.709C422.726 789.682 423.488 790.496 424.426 791.056C427.004 792.485 429.973 790.624 429.801 786.521L429.136 771.535C429.043 769.129 430.146 767.154 431.873 766.662L442.575 763.577C446.401 762.473 446.115 755.227 442.116 753.006Z" fill="#4165F3"/>
<path fill-rule="evenodd" clip-rule="evenodd" d="M451.051 571.38C444.813 567.916 438.197 572.583 438.27 581.619C438.3 586.295 440.14 590.778 443.405 594.125C444.161 594.863 445.01 595.5 445.929 596.019C452.154 599.47 458.737 594.809 458.69 585.82C458.68 581.142 456.853 576.65 453.595 573.295C452.833 572.549 451.978 571.906 451.051 571.38V571.38ZM445.072 600.261C443.837 599.564 442.696 598.71 441.678 597.721C437.466 593.672 434.829 587.19 434.763 580.901C434.69 568.787 443.565 562.491 451.948 567.138C453.203 567.845 454.36 568.715 455.389 569.724C459.587 573.76 462.224 580.242 462.251 586.539C462.304 598.619 453.436 604.902 445.066 600.261H445.072ZM473.637 589.969C474.399 590.479 474.99 591.206 475.335 592.055C475.68 592.905 475.762 593.839 475.57 594.736L474.035 601.83C473.643 603.639 472.149 604.45 470.714 603.639L469.97 603.22C469.725 603.07 469.452 602.972 469.168 602.931C468.884 602.891 468.594 602.91 468.318 602.987C468.041 603.064 467.783 603.197 467.56 603.377C467.337 603.558 467.153 603.783 467.021 604.038C466.613 604.726 466.17 605.391 465.692 606.032C465.313 606.619 465.086 607.291 465.033 607.988C464.979 608.685 465.101 609.384 465.386 610.021L465.778 610.985C466.529 612.82 466.077 614.908 464.782 615.639L459.647 618.419C459.323 618.586 458.962 618.668 458.598 618.655C458.234 618.642 457.879 618.535 457.568 618.345C456.805 617.886 456.218 617.183 455.9 616.351L455.502 615.413C455.194 614.581 454.613 613.878 453.854 613.419C453.481 613.204 453.056 613.094 452.625 613.1C451.901 613.1 451.164 613.1 450.433 613.007C449.257 612.894 448.281 613.725 447.982 615.114L447.73 616.058C447.338 617.867 445.843 618.678 444.408 617.867L438.682 614.689C437.922 614.181 437.332 613.458 436.986 612.612C436.641 611.766 436.556 610.836 436.742 609.942L436.942 609.017C437.078 608.296 437.049 607.552 436.855 606.844C436.662 606.135 436.31 605.48 435.826 604.929C435.208 604.264 434.637 603.546 434.065 602.828C433.773 602.43 433.403 602.097 432.976 601.85C432.668 601.661 432.317 601.554 431.957 601.54C431.596 601.526 431.238 601.605 430.917 601.77L430.252 602.116C429.929 602.284 429.567 602.365 429.203 602.353C428.839 602.34 428.484 602.233 428.173 602.043C427.41 601.583 426.823 600.881 426.506 600.048L423.53 592.775C422.779 590.94 423.231 588.852 424.526 588.121L425.19 587.755C426.193 587.21 426.712 585.834 426.519 584.298C426.379 583.321 426.286 582.343 426.227 581.366C426.204 580.656 426.011 579.961 425.664 579.341C425.318 578.721 424.827 578.193 424.234 577.802L423.49 577.39C422.73 576.883 422.14 576.16 421.794 575.314C421.448 574.468 421.363 573.538 421.55 572.643L423.078 565.549C423.47 563.721 424.971 562.89 426.399 563.721L427.143 564.133C427.387 564.284 427.66 564.384 427.944 564.425C428.228 564.466 428.518 564.448 428.795 564.371C429.072 564.295 429.33 564.163 429.553 563.982C429.777 563.801 429.96 563.577 430.093 563.322C430.498 562.632 430.942 561.967 431.421 561.327C431.803 560.741 432.03 560.068 432.082 559.371C432.134 558.674 432.01 557.974 431.72 557.338L431.328 556.381C430.584 554.526 431.029 552.458 432.325 551.727L437.46 548.947C437.784 548.78 438.145 548.699 438.509 548.712C438.873 548.725 439.228 548.831 439.539 549.021C440.302 549.48 440.889 550.183 441.206 551.015L441.598 551.973C441.907 552.805 442.487 553.508 443.246 553.967C443.621 554.184 444.048 554.295 444.481 554.286C445.215 554.265 445.949 554.29 446.68 554.359C447.849 554.492 448.826 553.661 449.125 552.272L449.324 551.348C449.716 549.519 451.217 548.688 452.645 549.519L458.372 552.697C459.132 553.206 459.723 553.932 460.068 554.781C460.412 555.629 460.495 556.562 460.305 557.458L460.105 558.382C459.969 559.098 459.998 559.835 460.19 560.538C460.382 561.241 460.733 561.891 461.215 562.437C461.83 563.116 462.421 563.827 462.988 564.572C463.281 564.967 463.652 565.297 464.078 565.542C464.385 565.732 464.736 565.839 465.097 565.853C465.458 565.866 465.816 565.787 466.137 565.622L466.801 565.256C467.125 565.089 467.486 565.007 467.851 565.02C468.215 565.033 468.57 565.139 468.881 565.33C469.643 565.789 470.23 566.492 470.548 567.324L473.517 574.598C474.261 576.453 473.816 578.52 472.521 579.252L471.857 579.617C470.853 580.163 470.335 581.539 470.528 583.061C470.661 584.036 470.76 585.014 470.827 585.993C470.848 586.705 471.04 587.401 471.387 588.023C471.734 588.644 472.225 589.173 472.82 589.564L473.637 589.969Z" fill="#D0E7FF"/>
<path fill-rule="evenodd" clip-rule="evenodd" d="M341.092 717.596C337.325 735.095 322.751 743 308.615 735.161C294.479 727.322 286.029 706.645 289.802 689.146C293.575 671.647 308.163 663.749 322.279 671.587C336.395 679.426 344.865 700.096 341.085 717.602L341.092 717.596ZM318.3 710.428C319.012 709.999 319.621 709.42 320.087 708.731C320.553 708.042 320.863 707.26 320.997 706.439C321.302 704.879 321.229 703.268 320.785 701.741C320.342 700.215 319.54 698.816 318.446 697.663L321.821 681.952C321.929 681.416 321.877 680.86 321.67 680.354C321.463 679.847 321.111 679.413 320.658 679.107C319.801 678.628 318.898 679.14 318.665 680.204L315.284 695.914C312.813 695.469 310.574 697.184 309.903 700.289C309.086 704.092 310.913 708.527 313.962 710.222C314.557 710.559 315.207 710.784 315.882 710.887L322.259 734.157C322.313 734.39 322.415 734.61 322.558 734.802C322.701 734.994 322.882 735.155 323.09 735.274C323.328 735.409 323.6 735.474 323.873 735.46C324.538 735.46 324.87 734.416 324.617 733.526L318.293 710.435L318.3 710.428ZM323.495 665.936C306.848 656.701 289.689 665.989 285.252 686.62C280.814 707.25 290.752 731.597 307.392 740.826C324.033 750.054 341.225 740.759 345.655 720.129C350.086 699.498 340.115 675.171 323.508 665.936H323.495Z" fill="#22D2FB"/>
<path fill-rule="evenodd" clip-rule="evenodd" d="M381.301 500.426L317.23 465.189C314.799 463.905 312.58 465.189 312.228 468.021L304.011 538.316C303.679 541.175 305.373 544.526 307.811 545.809L371.881 581.047C374.313 582.323 376.531 581.047 376.863 578.175L385.087 507.879C385.419 505.02 383.739 501.709 381.301 500.426Z" fill="url(#paint4_linear_637_415)"/>
<path fill-rule="evenodd" clip-rule="evenodd" d="M373.25 507.287C374.778 508.085 375.508 510.485 374.578 511.662L343.357 551.933C343.133 552.206 342.815 552.387 342.466 552.441C342.117 552.495 341.76 552.418 341.464 552.225C340.773 551.826 340.25 551.191 339.989 550.437L321.043 500.858C320.246 498.81 321.455 497.128 323.096 497.993L332.144 502.78C332.841 503.19 333.373 503.832 333.645 504.595L341.477 525.112C341.745 525.866 342.272 526.5 342.965 526.901C343.259 527.098 343.616 527.177 343.965 527.123C344.315 527.069 344.631 526.885 344.851 526.608L363.04 503.218C363.265 502.949 363.582 502.771 363.93 502.72C364.278 502.668 364.632 502.746 364.926 502.939L373.25 507.287Z" fill="white"/>
<path fill-rule="evenodd" clip-rule="evenodd" d="M525.511 401.94L436.138 353.406C434.843 352.701 433.62 353.406 433.381 354.915L432.172 362.661C432.065 363.445 432.186 364.243 432.521 364.96C432.855 365.677 433.389 366.282 434.059 366.703L523.425 415.238C524.694 415.903 525.91 415.238 526.149 413.715L527.365 405.97C527.466 405.191 527.346 404.401 527.018 403.688C526.69 402.975 526.168 402.369 525.511 401.94V401.94Z" fill="#22D2FB"/>
<path fill-rule="evenodd" clip-rule="evenodd" d="M520.204 430.503L472.634 404.454C471.339 403.749 470.116 404.454 469.877 405.956L469.512 408.283C469.41 409.068 469.533 409.865 469.867 410.582C470.201 411.299 470.732 411.906 471.398 412.332L518.961 438.381C520.23 439.046 521.452 438.381 521.692 436.859L522.057 434.532C522.16 433.754 522.04 432.962 521.712 432.249C521.384 431.536 520.861 430.931 520.204 430.503V430.503Z" fill="#22D2FB"/>
<path d="M630.117 307.832C632.327 303.395 630.07 297.779 625.076 295.287C620.082 292.795 614.242 294.371 612.032 298.807C609.823 303.244 612.079 308.86 617.073 311.352C622.067 313.844 627.907 312.268 630.117 307.832Z" fill="#0A3C5F"/>
<path fill-rule="evenodd" clip-rule="evenodd" d="M625.633 297.857C631.611 304.193 624.643 312.942 616.718 309.126C621.667 312.803 627.081 310.655 628.868 306.899C630.17 304.153 629.446 300.516 625.633 297.857Z" fill="#1466A0"/>
<path fill-rule="evenodd" clip-rule="evenodd" d="M656.754 237.654C669.927 243.857 673.229 261.17 666.552 278.922L657.917 273.809C661.437 262.161 661.484 251.869 652.084 247.414C642.685 242.959 625.513 250.898 618.206 264.807C610.899 278.716 612.094 292.95 622.457 297.83C625.307 299.16 625.958 301.773 625.114 304.419C624.138 307.431 620.85 308.222 618.392 307.278C617.907 307.092 617.435 306.879 616.963 306.653C602.03 299.625 598.722 280.63 609.318 260.585C619.913 240.539 641.828 230.626 656.754 237.654Z" fill="#DAEAFA"/>
<path fill-rule="evenodd" clip-rule="evenodd" d="M664.54 277.732L657.897 273.809C661.418 262.161 661.464 251.868 652.064 247.414C642.665 242.959 625.493 250.898 618.186 264.807C610.879 278.716 612.074 292.95 622.437 297.83C623.25 298.16 623.956 298.706 624.479 299.409C625.003 300.112 625.324 300.946 625.407 301.819C621.188 301.62 614.399 297.385 611.716 288.635C607.179 273.815 615.701 258.271 627.027 249.103C637.982 240.233 650.364 239.928 656.668 243.425C671.913 251.842 666.778 270.883 664.54 277.732Z" fill="#B4CCE5"/>
<path d="M579.531 278.447C581.741 274.011 579.484 268.394 574.49 265.902C569.496 263.41 563.656 264.986 561.446 269.423C559.237 273.859 561.493 279.475 566.487 281.967C571.481 284.459 577.321 282.883 579.531 278.447Z" fill="#0A3C5F"/>
<path fill-rule="evenodd" clip-rule="evenodd" d="M575.054 268.47C581.032 274.799 574.064 283.556 566.139 279.739C571.088 283.416 576.502 281.269 578.289 277.512C579.591 274.773 578.867 271.143 575.054 268.47Z" fill="#1466A0"/>
<path fill-rule="evenodd" clip-rule="evenodd" d="M606.175 208.274C619.348 214.477 622.65 231.79 615.974 249.541L607.338 244.429C610.859 232.78 610.905 222.488 601.505 218.034C592.106 213.579 574.934 221.518 567.627 235.427C560.32 249.335 561.515 263.57 571.878 268.45C574.728 269.78 575.379 272.393 574.535 275.045C573.559 278.057 570.271 278.848 567.813 277.904C567.328 277.718 566.856 277.505 566.385 277.286C551.451 270.258 548.143 251.263 558.739 231.218C569.334 211.172 591.216 201.246 606.175 208.274Z" fill="#DAEAFA"/>
<path fill-rule="evenodd" clip-rule="evenodd" d="M613.961 248.358L607.318 244.435C610.839 232.787 610.885 222.495 601.486 218.04C592.086 213.586 574.914 221.524 567.607 235.433C560.3 249.342 561.496 263.577 571.858 268.457C572.671 268.786 573.377 269.332 573.901 270.036C574.424 270.739 574.745 271.573 574.828 272.446C570.61 272.246 563.821 268.011 561.143 259.262C556.606 244.442 565.129 228.898 576.455 219.729C587.409 210.86 599.792 210.554 606.096 214.051C621.334 222.462 616.199 241.503 613.961 248.358Z" fill="#B4CCE5"/>
<path d="M529.1 249.098C531.31 244.662 529.053 239.045 524.06 236.553C519.066 234.061 513.226 235.638 511.016 240.074C508.806 244.51 511.063 250.127 516.057 252.619C521.051 255.111 526.89 253.534 529.1 249.098Z" fill="#0A3C5F"/>
<path fill-rule="evenodd" clip-rule="evenodd" d="M524.601 239.097C530.579 245.426 523.605 254.182 515.686 250.366C520.635 254.043 526.049 251.895 527.836 248.139C529.131 245.399 528.414 241.763 524.601 239.097Z" fill="#1466A0"/>
<path fill-rule="evenodd" clip-rule="evenodd" d="M555.723 178.9C568.896 185.103 572.197 202.416 565.521 220.168L556.885 215.055C560.406 203.407 560.452 193.115 551.053 188.66C541.653 184.206 524.481 192.144 517.174 206.053C509.867 219.962 511.063 234.197 521.426 239.077C524.275 240.406 524.926 243.019 524.083 245.665C523.106 248.677 519.818 249.468 517.36 248.524C516.875 248.338 516.404 248.125 515.932 247.899C500.999 240.872 497.691 221.877 508.286 201.831C518.881 181.786 540.796 171.866 555.723 178.9Z" fill="#DAEAFA"/>
<path fill-rule="evenodd" clip-rule="evenodd" d="M563.508 218.978L556.865 215.055C560.386 203.407 560.433 193.115 551.033 188.66C541.633 184.206 524.461 192.144 517.154 206.053C509.847 219.962 511.043 234.196 521.406 239.077C522.218 239.406 522.924 239.952 523.448 240.655C523.971 241.359 524.292 242.193 524.375 243.066C520.157 242.866 513.368 238.631 510.691 229.875C506.154 215.055 514.677 199.511 526.003 190.342C536.957 181.473 549.339 181.167 555.643 184.665C570.882 193.082 565.747 212.13 563.508 218.978Z" fill="#B4CCE5"/>
<path d="M478.771 219.839C480.981 215.403 478.724 209.786 473.73 207.294C468.736 204.802 462.896 206.378 460.686 210.815C458.477 215.251 460.733 220.867 465.727 223.359C470.721 225.851 476.561 224.275 478.771 219.839Z" fill="#0A3C5F"/>
<path fill-rule="evenodd" clip-rule="evenodd" d="M474.301 209.836C480.28 216.166 473.305 224.922 465.386 221.105C470.335 224.782 475.749 222.635 477.536 218.878C478.798 216.139 478.081 212.509 474.301 209.836Z" fill="#1466A0"/>
<path fill-rule="evenodd" clip-rule="evenodd" d="M505.39 149.64C518.562 155.843 521.864 173.156 515.188 190.908L506.552 185.795C510.073 174.146 510.119 163.854 500.72 159.4C491.32 154.945 474.148 162.884 466.841 176.793C459.534 190.701 460.73 204.936 471.093 209.816C473.942 211.146 474.593 213.759 473.75 216.412C472.773 219.423 469.485 220.215 467.027 219.27C466.542 219.084 466.064 218.872 465.599 218.652C450.666 211.625 447.358 192.63 457.953 172.584C468.548 152.539 490.457 142.612 505.39 149.64Z" fill="#DAEAFA"/>
<path fill-rule="evenodd" clip-rule="evenodd" d="M513.175 189.718L506.532 185.795C510.053 174.147 510.1 163.855 500.7 159.4C491.3 154.945 474.128 162.884 466.821 176.793C459.514 190.701 460.71 204.936 471.073 209.816C471.885 210.146 472.591 210.692 473.115 211.395C473.638 212.098 473.959 212.932 474.042 213.805C469.824 213.599 463.035 209.371 460.358 200.615C455.821 185.795 464.344 170.25 475.67 161.082C486.624 152.213 499.006 151.907 505.31 155.404C520.549 163.828 515.414 182.836 513.175 189.718Z" fill="#B4CCE5"/>
<path d="M428.341 190.464C430.551 186.027 428.294 180.411 423.3 177.919C418.306 175.427 412.467 177.003 410.257 181.439C408.047 185.875 410.303 191.492 415.297 193.984C420.291 196.476 426.131 194.9 428.341 190.464Z" fill="#0A3C5F"/>
<path fill-rule="evenodd" clip-rule="evenodd" d="M423.849 180.469C429.827 186.799 422.859 195.555 414.934 191.772C419.883 195.449 425.297 193.301 427.084 189.545C428.379 186.772 427.662 183.142 423.849 180.469Z" fill="#1466A0"/>
<path fill-rule="evenodd" clip-rule="evenodd" d="M454.97 120.273C468.143 126.476 471.445 143.789 464.769 161.541L456.133 156.428C459.654 144.78 459.7 134.488 450.3 130.033C440.901 125.579 423.729 133.517 416.422 147.426C409.115 161.335 410.31 175.569 420.673 180.449C423.523 181.779 424.174 184.392 423.33 187.038C422.354 190.05 419.066 190.841 416.608 189.897C416.123 189.711 415.651 189.498 415.18 189.279C400.246 182.251 396.938 163.256 407.534 143.211C418.129 123.165 440.037 113.245 454.97 120.273Z" fill="#DAEAFA"/>
<path fill-rule="evenodd" clip-rule="evenodd" d="M462.756 160.357L456.113 156.435C459.634 144.786 459.68 134.494 450.281 130.04C440.881 125.585 423.709 133.524 416.402 147.432C409.095 161.341 410.29 175.576 420.653 180.456C421.466 180.785 422.172 181.331 422.695 182.035C423.219 182.738 423.54 183.572 423.623 184.445C419.404 184.246 412.615 180.011 409.938 171.261C405.401 156.441 413.924 140.89 425.25 131.728C436.204 122.859 448.587 122.553 454.891 126.051C470.13 134.461 465.001 153.503 462.756 160.357Z" fill="#B4CCE5"/>
<path d="M377.983 161.217C380.193 156.781 377.936 151.165 372.942 148.672C367.948 146.18 362.108 147.757 359.898 152.193C357.688 156.629 359.945 162.246 364.939 164.738C369.933 167.23 375.773 165.654 377.983 161.217Z" fill="#0A3C5F"/>
<path fill-rule="evenodd" clip-rule="evenodd" d="M373.482 151.216C379.461 157.545 372.486 166.301 364.568 162.518C369.517 166.195 374.93 164.047 376.717 160.291C378.013 157.512 377.315 153.882 373.482 151.216Z" fill="#1466A0"/>
<path fill-rule="evenodd" clip-rule="evenodd" d="M404.604 91.0192C417.777 97.2223 421.078 114.535 414.402 132.287L405.767 127.174C409.287 115.526 409.334 105.234 399.934 100.779C390.534 96.3248 373.363 104.263 366.056 118.172C358.748 132.081 359.944 146.315 370.307 151.196C373.157 152.525 373.808 155.138 372.964 157.784C371.988 160.796 368.699 161.587 366.242 160.643C365.757 160.457 365.285 160.244 364.813 160.025C349.88 152.997 346.572 134.002 357.167 113.957C367.763 93.9113 389.671 83.985 404.604 91.0192Z" fill="#DAEAFA"/>
<path fill-rule="evenodd" clip-rule="evenodd" d="M412.39 131.097L405.747 127.174C409.267 115.526 409.314 105.234 399.914 100.779C390.515 96.3247 373.343 104.263 366.036 118.172C358.729 132.081 359.924 146.315 370.287 151.196C371.099 151.525 371.806 152.071 372.329 152.774C372.853 153.478 373.174 154.312 373.256 155.185C369.038 154.985 362.249 150.75 359.572 142.001C355.035 127.181 363.558 111.63 374.884 102.468C385.838 93.5988 398.22 93.293 404.524 96.7901C419.757 105.201 414.628 124.242 412.39 131.097Z" fill="#B4CCE5"/>
<path fill-rule="evenodd" clip-rule="evenodd" d="M457.163 297.697C454.97 317.397 465.885 341.458 481.569 351.405C497.252 361.351 512.292 348.539 513.939 333.713C515.587 318.886 512.817 312.716 508.333 302.936C505.602 304.446 502.872 305.948 500.149 307.431C503.058 313.714 504.852 317.736 503.789 327.27C502.726 336.804 493.061 345.029 482.99 338.639C472.92 332.25 465.905 316.785 467.313 304.14C463.965 301.999 460.551 299.851 457.163 297.697Z" fill="#22D2FB"/>
<path fill-rule="evenodd" clip-rule="evenodd" d="M468.323 277.738C462.457 280.916 458.272 287.831 457.176 297.684C460.564 299.838 463.978 301.986 467.326 304.126C468.03 297.804 470.701 293.342 474.474 291.301C472.406 286.807 470.355 282.286 468.323 277.738Z" fill="#12A3EB"/>
<path fill-rule="evenodd" clip-rule="evenodd" d="M489.533 279.992C481.688 275.019 474.148 274.527 468.276 277.705C470.313 282.248 472.364 286.78 474.427 291.301C478.201 289.254 483.063 289.566 488.059 292.757C493.054 295.949 497.359 301.401 500.215 307.65C502.939 306.174 505.669 304.698 508.399 303.189C504.028 293.469 497.385 284.965 489.533 279.992Z" fill="#1C8DF3"/>
<path fill-rule="evenodd" clip-rule="evenodd" d="M488.882 663.436L399.509 614.901C398.214 614.197 396.991 614.901 396.752 616.411L395.543 624.156C395.437 624.94 395.558 625.738 395.893 626.455C396.227 627.172 396.761 627.777 397.43 628.199L486.796 676.733C488.065 677.398 489.281 676.733 489.52 675.211L490.736 667.465C490.837 666.687 490.717 665.896 490.389 665.183C490.061 664.471 489.539 663.865 488.882 663.436V663.436Z" fill="#22D2FB"/>
<path fill-rule="evenodd" clip-rule="evenodd" d="M443.658 668.223L396.088 642.174C394.793 641.469 393.57 642.174 393.331 643.676L392.966 646.003C392.864 646.788 392.987 647.585 393.321 648.302C393.655 649.019 394.187 649.626 394.852 650.052L442.415 676.102C443.684 676.767 444.906 676.102 445.146 674.579L445.511 672.252C445.613 671.474 445.493 670.683 445.165 669.97C444.837 669.257 444.315 668.651 443.658 668.223V668.223Z" fill="#22D2FB"/>
<path style="mix-blend-mode:multiply" opacity="0.5" fill-rule="evenodd" clip-rule="evenodd" d="M388.515 246.756L322.897 215.009L296.99 377.234L293.668 400.026L361.897 436.872C373.755 443.448 385.067 437.151 387.14 422.837L406.172 284.626C408.278 270.298 400.366 253.311 388.515 246.756Z" fill="url(#paint5_linear_637_415)"/>
<path fill-rule="evenodd" clip-rule="evenodd" d="M380.51 285.331L360.044 417.531L362.183 417.791L368.015 415.537C374.412 413.017 377.767 406.348 378.703 399.873L395.59 279.427V279.38C396.918 269.913 394.095 260.099 388.9 252.174C386.104 247.919 382.43 244.023 377.913 241.57L252.429 173.322C247.978 170.796 242.77 169.851 237.888 171.7L232.746 173.694C230.162 174.665 229.358 175.45 229.378 175.609C231.836 198.268 383.918 262.107 380.51 285.331Z" fill="#D0E7FF"/>
<path fill-rule="evenodd" clip-rule="evenodd" d="M372.061 243.897L246.57 175.642C241.375 172.764 236.287 172.351 232.036 174.014C226.588 176.134 222.51 181.653 221.334 189.691L204.454 310.143C202.362 324.458 210.24 341.392 222.091 347.981L347.582 416.202C359.439 422.777 370.752 416.481 372.825 402.167L389.711 281.714C391.823 267.433 383.912 250.466 372.061 243.897Z" fill="url(#paint6_linear_637_415)"/>
<path fill-rule="evenodd" clip-rule="evenodd" d="M348.811 383.996L222.742 316.267C219.833 314.704 217.056 316.313 216.491 319.923C215.94 323.414 217.82 327.529 220.743 329.092L346.804 396.828C349.714 398.39 352.544 396.828 353.108 393.191C353.653 389.707 351.714 385.565 348.811 383.996ZM354.444 347.329C357.347 348.891 359.286 353.04 358.742 356.524C358.177 360.134 355.347 361.723 352.438 360.161L226.376 292.432C223.466 290.862 221.58 286.754 222.124 283.256C222.689 279.646 225.446 278.037 228.375 279.6L354.444 347.329ZM367.417 264.188L241.342 196.459C238.439 194.89 235.656 196.506 235.118 199.996L233.716 208.965C233.178 212.456 235.045 216.571 237.968 218.134L364.029 285.889C366.932 287.445 369.762 285.889 370.314 282.379L371.709 273.41C372.26 269.926 370.314 265.784 367.411 264.222L367.417 264.188ZM360.11 310.955C363.013 312.517 364.959 316.599 364.421 320.09C363.843 323.766 361.02 325.282 358.124 323.72L232.062 255.971C229.152 254.415 227.259 250.353 227.797 246.869C228.375 243.192 231.119 241.643 234.048 243.199L360.11 310.955Z" fill="#FFFCF1"/>
<g style="mix-blend-mode:multiply" opacity="0.35">
<path fill-rule="evenodd" clip-rule="evenodd" d="M123.458 796.036L217.003 742.714C227.2 738.06 241.794 734.337 252.21 739.749C261.676 744.682 277.273 754.774 284.169 758.71C289.403 761.702 307.592 772.599 296.265 778.763C262.951 796.893 229.983 817.284 196.157 835.701C189.76 839.185 180.4 840.442 170.576 839.624C160.751 838.806 150.76 835.96 142.868 831.366L126.261 821.699C118.954 817.424 115.035 812.391 114.649 807.691C114.257 803.15 117.2 798.895 123.458 796.036Z" fill="#59CAAF"/>
</g>
<path fill-rule="evenodd" clip-rule="evenodd" d="M161.462 792.512C163.581 792.465 170.762 785.744 177.498 789.134C185.629 793.21 201.067 789.6 208.852 791.475C210.24 791.807 212.951 790.81 213.502 791.741C215.183 794.726 216.823 799.194 212.678 802.119C209.642 804.266 203.139 807.119 198.874 808.628C194.351 810.23 186.598 812.763 181.41 813.575C175.658 814.472 173.034 814.844 170.881 816.507C167.806 818.056 164.624 818.721 162.85 818.441C159.057 817.836 154.633 815.616 152.613 811.287C151.949 809.904 151.949 803.861 152.693 799.945C153.278 796.853 154.965 793.33 156.314 790.039L161.462 792.512Z" fill="white"/>
<path fill-rule="evenodd" clip-rule="evenodd" d="M178.089 778.031C175.518 784.208 176.309 793.775 170.211 797.093C166.138 799.313 159.755 799.333 156.971 792.997C155.423 789.46 157.483 783.423 157.024 775.664L178.089 778.031Z" fill="#FFA495"/>
<path fill-rule="evenodd" clip-rule="evenodd" d="M179.783 787.605C184.433 788.935 197.346 788.057 205.497 788.716C208.998 789.001 212.14 788.975 213.781 792.16C215.289 795.092 214.498 797.598 211.084 800.018C208.048 802.172 202.893 804.619 198.629 806.135C194.105 807.737 186.353 810.27 181.164 811.081C175.412 811.979 172.788 812.351 170.635 814.013C167.56 815.563 164.378 816.234 162.604 815.948C160.422 815.572 158.359 814.687 156.581 813.366C154.802 812.045 153.359 810.324 152.368 808.342C151.703 806.959 151.703 801.368 152.447 797.445C152.6 796.665 152.8 795.894 153.045 795.138C153.709 788.995 155.702 786.495 157.622 787.565C160.239 789.008 161.223 791.594 162.219 793.722C162.538 794.507 163.019 795.215 163.632 795.799C164.245 796.384 164.974 796.832 165.773 797.113C168.902 798.097 171.751 796.355 173.605 793.669C174.626 791.713 175.35 789.616 175.75 787.446C175.75 787.24 175.75 787.027 175.75 786.821C176.362 781.455 178.972 781.921 178.574 783.051C178.175 784.181 178.368 786.528 179.783 787.605Z" fill="#193161"/>
<path fill-rule="evenodd" clip-rule="evenodd" d="M212.154 791.255C212.094 793.33 215.269 793.529 214.352 797.173C215.88 795.677 213.748 791.375 212.805 790.717C212.419 790.451 212.087 790.338 212.154 791.255Z" fill="white"/>
<path fill-rule="evenodd" clip-rule="evenodd" d="M214.565 771.236C216.558 770.465 220.942 761.689 228.462 762.547C231.498 762.892 236.374 762.101 241.329 760.692C249.227 758.444 260.228 751.384 262.108 752.534C266.2 755.054 266.525 759.648 263.656 763.836C261.543 766.901 257.551 770.977 254.063 773.869C250.37 776.934 245.122 781.621 240.525 784.174C236.181 786.588 234.739 786.375 231.65 790.557C229.292 793.07 226.535 794.546 224.775 794.912C220.258 795.796 213.701 792.917 211.343 789.866C209.842 785.006 207.238 780.405 208.905 773.111L214.565 771.236Z" fill="white"/>
<path fill-rule="evenodd" clip-rule="evenodd" d="M225.021 750.513C224.901 757.208 229.146 765.804 224.695 771.123C221.719 774.687 215.794 777.054 210.885 772.18C208.141 769.461 207.842 763.092 204.567 756.044L225.021 750.513Z" fill="#FFA495"/>
<path fill-rule="evenodd" clip-rule="evenodd" d="M239.33 758.671L240.658 758.298C248.557 756.051 259.105 750.606 260.985 751.763C265.077 754.282 265.855 757.254 262.978 761.423C260.866 764.488 256.873 768.564 253.386 771.456C249.692 774.521 244.445 779.208 239.848 781.761C235.503 784.174 234.062 783.962 230.973 788.144C228.615 790.657 225.858 792.133 224.097 792.498C219.58 793.383 212.805 790.451 210.466 787.426C209.35 783.809 207.809 780.358 207.696 775.817C207.032 769.834 207.45 766.835 210.034 766.908C214.851 767.048 216.837 769.568 218.823 770.831C223.108 773.49 225.971 770.053 226.675 765.778C226.759 763.888 226.627 761.994 226.283 760.133C226.217 759.934 226.143 759.734 226.064 759.548C224.662 754.329 227.259 753.81 227.306 755.007C227.279 756.128 227.674 757.218 228.412 758.061C229.15 758.905 230.178 759.44 231.292 759.561C233.909 759.934 237.21 758.85 239.33 758.671Z" fill="#193161"/>
<path fill-rule="evenodd" clip-rule="evenodd" d="M260.52 752.434C261.357 754.336 264.307 753.139 265.051 756.829C265.781 754.834 262.008 751.856 260.872 751.67C260.401 751.59 260.068 751.636 260.52 752.434Z" fill="white"/>
<path fill-rule="evenodd" clip-rule="evenodd" d="M135.322 516.682C151.026 534.919 151.265 536.342 181.942 554.379L187.781 542.877C177.484 521.775 174.402 518.942 161.037 502.54C173.193 494.117 186.28 481.265 192.484 472.941C212.492 446.213 201.385 427.637 184.094 431.4C169.015 434.685 145.492 473.745 132.698 495.772C127.371 504.947 126.082 505.958 135.322 516.682Z" fill="url(#paint7_linear_637_415)"/>
<g style="mix-blend-mode:multiply" opacity="0.35">
<path fill-rule="evenodd" clip-rule="evenodd" d="M166.211 498.737C176.74 490.579 187.13 480.088 192.484 472.934C212.492 446.207 200.801 428.163 183.516 431.926C174.495 434.691 158.406 453.793 166.211 498.737Z" fill="#6266D7"/>
</g>
<path fill-rule="evenodd" clip-rule="evenodd" d="M220.47 569.724C222.197 589.118 231.916 651.063 229.212 668.07C225.147 693.641 226.309 724.537 226.356 751.683C225.692 763.085 210.001 769.049 205.444 761.802C201.784 737.548 196.576 716.299 194.457 702.822C192.085 687.73 192.869 669.393 196.695 659.474C195.128 648.636 187.741 620.686 181.576 601.318C179.351 594.331 166.743 571.745 179.796 549.293L220.47 569.724Z" fill="url(#paint8_linear_637_415)"/>
<path fill-rule="evenodd" clip-rule="evenodd" d="M226.608 744.403C226.608 746.397 226.548 749.482 226.548 751.457C225.884 762.859 210.001 769.049 205.437 761.802C205.165 760.014 204.773 758.245 204.494 756.483C210.632 763.099 222.649 754.509 226.608 744.403Z" fill="url(#paint9_linear_637_415)"/>
<g style="mix-blend-mode:multiply" opacity="0.3">
<path fill-rule="evenodd" clip-rule="evenodd" d="M229.631 656.535C224.523 682.178 210.074 716.439 202.183 742.222C198.077 720.129 187.801 682.504 196.689 659.474C195.799 653.304 193.015 641.582 189.647 629.05C196.483 616.078 189.946 605.72 193.181 587.449C211.283 584.291 183.961 562.185 222.264 585.455C225.698 613 228.914 630.286 229.631 656.535Z" fill="#1E2353"/>
</g>
<path fill-rule="evenodd" clip-rule="evenodd" d="M219.215 680.855C208.772 704.511 189.508 750.925 179.258 779.966C173.944 787.678 155.051 786.874 155.091 779.68C159.263 755.406 164.172 717.961 172.874 696.666C175.531 690.15 185.376 674.466 188.917 669.819C191.673 659.101 195.128 630.167 197.792 614.503C195.4 601.544 184.957 579.877 205.026 561.048C213.123 566.812 238.154 570.416 249.533 564C251.34 615.187 238.785 636.529 219.215 680.855Z" fill="url(#paint10_linear_637_415)"/>
<path fill-rule="evenodd" clip-rule="evenodd" d="M181.39 774.906C180.932 776.176 180.029 778.736 179.597 779.953C174.136 787.891 154.679 787.067 154.719 779.66C154.923 778.459 155.131 777.229 155.344 775.97C159.98 780.704 174.043 780.764 181.39 774.906Z" fill="url(#paint11_linear_637_415)"/>
<path fill-rule="evenodd" clip-rule="evenodd" d="M174.967 500.154C176.654 515.359 172.084 530.312 176.734 544.194C176.94 545.63 177.073 551.255 177.318 552.784C180.381 570.735 218.385 588.965 250.078 571.706C250.25 569.478 250.078 567.145 250.224 563.016C249.639 559.16 251.3 555.038 251.293 552.671C251.247 542.884 248.204 537.884 249.666 526.994C252.635 504.841 264.898 483.545 258.116 466.119C256.661 462.376 254.13 460.568 251.22 458.241C243.727 452.217 204.993 432.478 193.248 431.081C159.143 426.66 173.133 483.658 174.967 500.154Z" fill="url(#paint12_linear_637_415)"/>
<path fill-rule="evenodd" clip-rule="evenodd" d="M229.133 424.273C228.726 430.491 229.015 436.736 229.996 442.889C218.909 442.53 203.505 439.625 201.824 431.361C201.904 430.37 201.97 429.366 202.023 428.382C201.881 428.254 201.73 428.136 201.571 428.03C197.586 425.37 191.023 423.422 186.791 418.582C180.035 410.85 176.448 400.465 181.749 389.993C191.434 370.898 214.851 370.579 227.891 386.004C230.435 389.016 228.555 392.14 230.023 395.053C230.309 395.624 231.351 395.87 232.554 396.874C234.221 398.257 239.09 410.171 238.964 416.421C238.911 418.928 233.152 422.465 230.594 423.848C230.125 424.044 229.634 424.187 229.133 424.273V424.273Z" fill="#FFA698"/>
<path fill-rule="evenodd" clip-rule="evenodd" d="M229.133 424.273C228.726 430.491 229.015 436.735 229.996 442.889C218.909 442.53 203.504 439.625 201.824 431.36C201.903 430.37 201.97 429.366 202.023 428.382C201.87 428.249 201.704 428.149 201.571 428.03C193.148 420.138 204.414 411.089 218.657 418.881C219.717 420.678 221.263 422.137 223.117 423.091C224.97 424.045 227.056 424.455 229.133 424.273V424.273Z" fill="url(#paint13_linear_637_415)"/>
<path fill-rule="evenodd" clip-rule="evenodd" d="M238.964 416.468C238.911 417.565 234.374 419.213 232.481 419.473C233.776 407.678 222.563 405.876 224.25 394.361C225.266 387.44 218.152 384.94 220.929 379.874C223.53 381.587 225.87 383.667 227.877 386.05C230.421 389.062 228.541 392.187 230.009 395.099C230.295 395.671 231.338 395.917 232.54 396.921C234.221 398.297 239.25 410.218 238.964 416.468Z" fill="url(#paint14_linear_637_415)"/>
<path fill-rule="evenodd" clip-rule="evenodd" d="M223.686 411.674C223.466 409.015 222.397 408.529 221.513 409.227C220.63 409.925 219.713 412.286 219.979 414.998C220.411 419.38 224.469 423.302 227.286 419.759C224.23 421.381 222.789 417.458 222.636 414.686C222.536 412.811 223.021 411.235 223.686 411.674Z" fill="#FFB49C"/>
<path fill-rule="evenodd" clip-rule="evenodd" d="M222.709 413.363C224.337 414.593 225.087 415.431 225.061 416.122C225.061 416.601 224.642 417.325 223.214 416.82C222.719 415.74 222.544 414.54 222.709 413.363V413.363Z" fill="#FF9D8E"/>
<g style="mix-blend-mode:multiply" opacity="0.35">
<path fill-rule="evenodd" clip-rule="evenodd" d="M201.684 431.095C198.403 432.105 195.34 435.483 195.938 437.65C199.207 451.007 223.666 453.992 238.878 450.774C239.057 450.735 233.185 442.956 230.242 442.012C220.703 442.942 204.64 438.98 201.684 431.095Z" fill="#59CAAF"/>
</g>
<path fill-rule="evenodd" clip-rule="evenodd" d="M200.509 430.263C196.45 425.929 189.588 423.861 185.19 418.821C180.793 413.782 176.089 406.189 178.992 398.383C173.877 382.281 191.361 369.515 206.082 366.616C216.618 364.542 222.922 375.851 218.338 383.497C222.284 387.919 222.158 393.763 221.879 395.265C221.035 399.859 221.155 400.438 222.623 403.908C223.779 406.628 226.675 413.216 221.44 409.034C218.059 406.375 215.694 412.286 216.837 416.388C217.648 418.951 217.899 421.658 217.574 424.326C216.558 432.923 202.767 432.677 200.509 430.263Z" fill="#562E65"/>
<path fill-rule="evenodd" clip-rule="evenodd" d="M183.875 391.097C180.387 375.506 200.874 367.614 208.885 367.428C216.897 367.242 223.347 380.592 213.735 385.093C207.178 388.158 194.191 382.161 183.875 391.097Z" fill="url(#paint15_linear_637_415)"/>
<path fill-rule="evenodd" clip-rule="evenodd" d="M360.615 420.317C361.984 419.839 364.601 421.288 369.218 420.277C373.642 419.307 378.81 414.254 379.229 412.897C381.72 404.919 385.712 383.85 380.956 385.033C379.937 388.737 377.781 392.026 374.791 394.434C371.177 397.094 365.079 398.423 362.781 398.497L362.94 398.397C369.523 397.459 374.001 395.013 371.476 390.778C369.076 392.073 366.415 392.81 363.691 392.932C355.547 393.444 352.192 400.611 350.445 405.564C348.671 408.959 346.42 412.082 343.762 414.839L350.08 427.91C353.271 424.961 356.809 422.411 360.615 420.317V420.317Z" fill="url(#paint16_linear_637_415)"/>
<g style="mix-blend-mode:multiply" opacity="0.35">
<path fill-rule="evenodd" clip-rule="evenodd" d="M252.781 512.453C257.099 496.809 262.281 482.049 257.338 469.351C255.883 465.614 253.352 463.806 250.45 461.485C246.059 457.955 240.95 458.892 237.596 463.3C225.253 479.523 235.078 503.431 252.781 512.453Z" fill="#6266D7"/>
</g>
<path fill-rule="evenodd" clip-rule="evenodd" d="M244.152 457.908C246.072 457.011 291.024 450.848 299.095 450.409C303.626 445.495 324.092 424.532 335.458 419.027C337.484 418.043 340.487 417.285 341.749 416.122C343.124 414.859 345.104 412.997 345.868 412.359C349.295 413.416 353.534 418.243 356.237 422.85C354.909 424.592 353.58 426.447 352.252 428.369C351.275 429.805 350.989 433.528 350.033 435.017C344.054 444.325 330.104 456.293 322.458 464.703C319.004 468.5 316.327 471.777 311.292 474.011C307.917 475.527 303.599 477.422 299.6 479.031C291.323 482.355 270.943 490.712 256.295 493.073C229.358 497.461 226.522 466.153 244.152 457.908Z" fill="url(#paint17_linear_637_415)"/>
<path style="mix-blend-mode:multiply" opacity="0.5" fill-rule="evenodd" clip-rule="evenodd" d="M540.179 426.175C541.999 412.279 552.494 406.229 563.621 412.665L661.936 470.188L646.451 594.517L634.786 602.09L545.267 549.712C534.14 543.263 526.601 526.754 528.421 512.859L540.179 426.175Z" fill="url(#paint18_linear_637_415)"/>
<g style="mix-blend-mode:multiply" opacity="0.35">
<path fill-rule="evenodd" clip-rule="evenodd" d="M489.082 974.377L586.453 918.875C597.081 914.022 612.26 910.159 623.075 915.79C632.926 920.923 649.161 931.428 656.336 935.523C661.79 938.635 680.715 949.984 668.957 956.4C634.281 975.268 599.971 996.491 564.757 1015.67C558.114 1019.29 548.356 1020.6 538.133 1019.75C527.909 1018.91 517.54 1015.94 509.296 1011.16L492.024 1001.1C484.385 996.644 480.34 991.385 479.934 986.518C479.516 981.757 482.565 977.343 489.082 974.377Z" fill="#59CAAF"/>
</g>
<path fill-rule="evenodd" clip-rule="evenodd" d="M611.636 579.757C610.794 578.987 610.228 577.963 610.023 576.84C609.818 575.718 609.985 574.559 610.5 573.541C611.749 571.234 616.89 568.315 617.282 567.903C617.947 567.238 618.658 560.995 622.743 562.81C622.306 565.297 621.664 567.743 620.823 570.123C619.282 572.191 613.928 580.375 611.636 579.757Z" fill="#FFA698"/>
<path fill-rule="evenodd" clip-rule="evenodd" d="M620.843 569.944C616.638 573.029 610.879 571.938 609.862 576.825C609.469 579.012 609.209 581.221 609.085 583.44C611.742 585.588 614.027 587.277 617.495 587.928C617.695 587.321 617.994 586.75 618.378 586.239C619.853 584.338 621.866 583.101 626.875 580.608C631.883 578.115 632.574 577.363 633.783 567.025C634.673 559.452 635.112 555.277 631.943 553.648C624.563 549.838 625.24 563.8 620.843 569.944Z" fill="#FFA698"/>
<path fill-rule="evenodd" clip-rule="evenodd" d="M615.336 583.6C615.077 584.83 614.878 585.98 614.718 587.097C615.615 587.468 616.548 587.744 617.502 587.922C617.702 587.314 618 586.744 618.385 586.233C619.86 584.331 621.873 583.095 626.881 580.601C631.89 578.108 632.581 577.357 633.79 567.018C634.388 561.932 634.78 558.375 634.016 556.101C633.644 554.991 631.697 555.297 631.505 556.919C630.635 564.139 631.073 569.352 628.217 574.458C627.008 576.626 616.372 578.726 615.336 583.6Z" fill="#FF9281"/>
<path fill-rule="evenodd" clip-rule="evenodd" d="M620.982 569.997C621.381 571.393 623.201 571.705 621.972 572.091C615.429 574.146 613.516 576 612.958 581.153C616.532 575.282 620.179 574.086 623.872 572.736L627.459 573.587C624.928 572.058 623.341 571.406 620.982 569.997Z" fill="#FF9281"/>
<path fill-rule="evenodd" clip-rule="evenodd" d="M560.147 648.989C562.738 645.718 568.889 643.67 572.988 640.638C579.75 635.632 587.555 628.671 594.657 624.615C594.584 619.363 605.086 588.826 607.617 583.081C610.334 582.636 615.728 584.67 619.162 586.904C616.831 598.739 617.096 614.163 613.888 624.555C613.509 625.792 613.576 629.156 612.426 631.988C611.324 634.701 605.976 640.778 603.791 643.018C599.021 647.938 588.187 660.192 578.94 666.84C572.151 671.72 568.49 670.829 565.036 668.801C557.005 664.081 554.985 655.491 560.147 648.989Z" fill="url(#paint19_linear_637_415)"/>
<path fill-rule="evenodd" clip-rule="evenodd" d="M542.058 898.484C541.461 904.361 540.404 909.82 538.345 913.842C537.322 914.959 536.047 915.63 535.442 916.907C532.234 923.735 531.529 930.311 533.761 965.355L541.979 965.528L543.028 953.148C544.045 948.129 546.861 940.789 547.997 936.241C550.475 926.335 550.714 921.368 552.235 914.081L542.058 898.484Z" fill="#FFA698"/>
<path fill-rule="evenodd" clip-rule="evenodd" d="M524.787 940.682C523.89 940.563 522.196 940.489 522.004 940.277C521.579 939.805 520.781 937.478 521.339 937.039C522.429 936.354 524.541 940.011 524.787 940.682Z" fill="#1F202B"/>
<path fill-rule="evenodd" clip-rule="evenodd" d="M529.384 926.674C530.36 929.805 528.972 932.824 527.989 936.075C524.554 947.437 522.535 948.042 524.003 953.215C524.971 956.565 526.689 959.65 529.025 962.237C531.25 964.777 531.921 966.599 534.784 968.58C539.089 971.558 542.922 972.948 541.985 966.978C541.703 965.089 541.234 963.234 540.584 961.439C537.535 954.345 533.981 951.24 535.934 942.384C537.362 935.816 539.634 931.487 536.684 927.059L529.384 926.674Z" fill="#161A40"/>
<path fill-rule="evenodd" clip-rule="evenodd" d="M530.068 919.593C528.773 925.53 526.846 930.503 521.399 937.046C522.063 936.859 523.837 938.655 524.8 940.636C531.902 932.465 535.363 928.489 537.548 931.993C537.335 934.945 536.259 940.297 535.349 944.465C535.05 945.835 534.718 948.86 535.588 950.941C538.378 957.643 543.493 967.43 541.567 970.634C542.231 969.777 543.028 967.41 543.015 964.232C543.015 959.578 542.218 953.341 542.118 949.492C541.985 944.292 543.952 939.778 544.264 932.684C544.368 930.706 544.368 928.725 544.264 926.747C543.965 921.734 543.42 915.085 539.9 913.204C538.644 912.539 535.389 913.018 533.702 913.869C531.29 915.099 530.56 917.306 530.068 919.593Z" fill="#161F69"/>
<path fill-rule="evenodd" clip-rule="evenodd" d="M578.628 830.455L603.691 757.76L604.508 737.814C604.641 734.589 602.921 732.222 601.904 729.696C588.692 733.592 581.311 737.794 567.102 737.289C562.844 743.625 557.012 755.486 556.792 764.448C556.374 781.901 557.742 793.549 552.415 822.73C536.578 876.091 544.795 874.236 538.73 909.693C538.219 913.476 549.857 916.482 553.816 914.128L578.628 830.455Z" fill="url(#paint20_linear_637_415)"/>
<g style="mix-blend-mode:multiply" opacity="0.3">
<path fill-rule="evenodd" clip-rule="evenodd" d="M578.627 830.455L603.691 757.76L604.508 737.814C604.641 734.589 602.92 732.222 601.904 729.696C599.247 730.487 596.802 731.285 594.504 732.056L579.763 755.639C574.104 767.194 572.675 782.094 568.583 785.557C573.233 796.86 571.241 819.545 569.56 832.011C564.79 830.416 560.413 829.744 555.723 827.989C558.945 830.648 564.87 833.354 568.165 836.732C562.186 858.293 559.27 880.32 557.264 902.553L578.627 830.455Z" fill="#1E2353"/>
</g>
<path fill-rule="evenodd" clip-rule="evenodd" d="M588.406 927.691C588.207 933.269 582.912 938.668 582.294 942.318C580.873 950.629 586.891 946.307 593.7 956.991C596.424 956.991 602.429 966.805 610.56 967.323C612.427 967.443 615.761 962.909 612.074 959.704C610.434 958.746 608.966 959.458 607.61 958.281C604.794 955.788 601.472 935.304 602.13 929.406L588.406 927.691Z" fill="#FFA698"/>
<path fill-rule="evenodd" clip-rule="evenodd" d="M585.304 935.909C591.907 936.72 598.065 952.849 603.173 959.844C605.651 963.248 610.905 959.737 608.773 958.826C609.862 958.906 613.855 958.427 616.797 958.906C620.936 959.571 619.455 963.726 616.671 965.668C610.407 970.003 604.847 972.436 599.167 969.57C597.949 968.888 596.785 968.112 595.686 967.25C594.861 966.69 594.086 966.061 593.368 965.368C591.528 963.161 590.824 959.611 589.143 956.592C588.585 955.595 588.133 955.376 587.775 955.648C587.11 956.619 587.775 971.113 588.14 974.018C587.954 974.849 585.131 975.508 584.566 974.876L579.325 949.119C578.719 946.915 578.956 944.563 579.989 942.524C581.59 939.512 584.606 937.179 585.304 935.909Z" fill="#161F69"/>
<path fill-rule="evenodd" clip-rule="evenodd" d="M602.509 970.694C601.338 970.491 600.205 970.112 599.147 969.57C597.929 968.888 596.765 968.112 595.667 967.25C594.841 966.69 594.066 966.061 593.348 965.369C591.355 962.982 590.385 958.54 588.173 955.502C588.911 955.05 590.831 955.096 592.77 958.281C595.673 963.6 597.666 967.589 601.499 970.149C601.817 970.363 602.155 970.545 602.509 970.694V970.694Z" fill="#161A40"/>
<path fill-rule="evenodd" clip-rule="evenodd" d="M622.211 815.064C625.911 795.783 625.818 784.7 624.583 770.518C624.105 762.401 624.948 758.418 622.278 750.573C621.246 747.751 619.949 745.032 618.405 742.455C605.784 746.351 596.404 750.174 582.128 749.675C578.86 756.011 576.03 764.495 577.213 773.45C579.518 790.903 585.51 805.177 587.443 835.116C582.54 869.994 586.114 893.531 586.858 927.332C586.938 931.115 599.048 934.12 602.635 931.766C610.155 892.141 614.778 853.785 622.211 815.064Z" fill="url(#paint21_linear_637_415)"/>
<path fill-rule="evenodd" clip-rule="evenodd" d="M569.885 652.998C555.131 651.329 555.098 675.67 560.227 687.138C573.579 716.957 564.943 721.571 566.165 735.161L565.886 740.633C578.574 759.541 615.343 758.066 619.807 744.403C619.567 743.552 619.381 739.961 619.063 739.084C619.933 727.116 614.187 717.655 615.303 709.484C617.169 695.768 624.603 690.941 620.617 679.207C617.674 675.171 609.729 668.695 601.466 664.167C589.841 657.778 576.854 653.782 569.885 652.998Z" fill="url(#paint22_linear_637_415)"/>
<path fill-rule="evenodd" clip-rule="evenodd" d="M684.694 607.156C680.17 609.755 674.59 608.04 673.016 612.767C672.382 614.897 671.878 617.064 671.508 619.256C673.886 621.69 675.992 623.624 679.367 624.655C679.633 624.073 679.992 623.539 680.429 623.073C682.103 621.351 684.242 620.34 689.504 618.419C694.765 616.497 695.529 615.826 697.887 605.693C699.614 598.267 700.511 594.165 697.555 592.197C690.633 587.596 689.749 601.558 684.694 607.156Z" fill="#FFA698"/>
<path fill-rule="evenodd" clip-rule="evenodd" d="M689.45 614.011C684.927 616.61 679.274 615.393 677.706 620.121C677.307 621.311 676.989 622.434 676.703 623.531C677.547 623.999 678.438 624.377 679.36 624.662C679.626 624.08 679.985 623.545 680.423 623.079C682.097 621.357 684.236 620.347 689.497 618.425C694.758 616.504 695.522 615.832 697.88 605.7C699.043 600.713 699.827 597.223 699.322 594.876C699.076 593.726 697.11 593.819 696.738 595.408C694.844 603.552 694.499 608.406 689.45 614.011Z" fill="#FF9281"/>
<path fill-rule="evenodd" clip-rule="evenodd" d="M696.206 593.36C695.296 597.808 692.965 602.05 690.699 605.248C689.656 606.724 689.517 608.033 687.896 608.871C687.232 609.223 686.156 608.206 684.82 607.222C685.06 608.658 685.83 609.795 684.561 610.041C676.264 611.657 675.348 613.658 674.358 621.929C677.473 615.772 680.622 615.892 685.405 613.499L688.301 611.059C691.842 605.686 694.247 602.961 696.206 593.36Z" fill="#FF9281"/>
<path fill-rule="evenodd" clip-rule="evenodd" d="M608.341 670.364C611.662 667.831 618.113 667.352 622.836 665.417C630.615 662.219 639.888 657.379 647.766 655.199C648.975 650.092 666.632 623.059 670.492 618.106C673.235 618.339 677.965 621.63 680.748 624.642C675.593 635.545 672.079 650.571 666.42 659.879C665.755 660.983 664.991 664.261 663.185 666.727C661.457 669.087 654.775 673.668 652.124 675.31C646.298 678.914 632.793 688.136 622.231 692.318C614.452 695.383 614.213 689.133 611.364 686.334C607.637 678.349 601.751 675.41 608.341 670.364Z" fill="url(#paint23_linear_637_415)"/>
<g style="mix-blend-mode:multiply" opacity="0.35">
<path fill-rule="evenodd" clip-rule="evenodd" d="M569.885 652.998C555.132 651.329 555.098 675.67 560.227 687.138C573.579 716.957 564.943 721.571 566.165 735.161L565.886 740.633C578.574 759.541 615.342 758.066 619.806 744.403C619.587 743.625 619.415 740.54 619.142 739.343C605.757 752.148 586.386 748.757 574.934 741.923C573.871 736.896 574.522 734.669 575.206 732.615C584.42 722.688 607.185 726.252 612.719 698.999C614.326 691.088 613.11 682.272 608.069 675.989C605.637 672.983 599.818 673.269 596.563 668.722C591.249 669.978 581.324 668.216 580.142 666.062C579.73 665.304 581.829 658.642 581.47 657.831C572.337 653.782 575.273 653.603 569.885 652.998Z" fill="#4165F3"/>
</g>
<path fill-rule="evenodd" clip-rule="evenodd" d="M575.565 661.069C575.565 666.056 593.986 667.086 599.28 663.13L599.134 661.96C598.423 654.56 597.433 648.723 598.968 643.025C601.99 643.55 608.806 642.3 609.178 641.217C587.602 630.991 563.847 625.26 562.844 633.238C565.893 638.125 571.427 640.798 574.569 643.703C575.406 644.474 576.336 646.276 576.9 648.164C577.12 652.067 576.548 655.99 575.565 661.069Z" fill="url(#paint24_linear_637_415)"/>
<path fill-rule="evenodd" clip-rule="evenodd" d="M609.105 641.323C607.776 642.712 595.819 641.635 594.909 641.895C586.367 644.361 576.894 645.884 574.575 643.71C571.44 640.804 565.9 638.125 562.851 633.245C557.982 625.439 556.288 615.739 562.465 607.256C573.214 592.496 596.344 595.993 602.462 608.399C604.973 613.485 603.538 614.296 604.641 617.84C606.674 624.369 606.84 621.69 608.7 632.334C609.411 636.383 609.982 640.399 609.105 641.323Z" fill="#FFA698"/>
<path fill-rule="evenodd" clip-rule="evenodd" d="M577.173 653.211C577.657 657.625 590.073 660.737 597.599 658.982C598.403 658.795 598.928 658.643 599.194 658.131C600.296 658.742 603.312 663.097 603.658 665.264C597.148 671.541 576.588 667.864 574.09 660.511C573.492 658.742 572.948 655.425 577.173 653.211Z" fill="#06C0E1"/>
<path fill-rule="evenodd" clip-rule="evenodd" d="M536.598 647.925C526.355 660.285 522.435 679.173 529.291 687.817C535.515 695.622 548.137 698.142 545.38 704.631C543.101 709.996 536.744 716.319 546.336 721.917C551.265 724.796 563.455 732.768 584.201 722.376C604.422 712.243 623.726 689.286 602.974 673.874C581.138 657.658 591.342 650.604 599.533 631.988C603.864 622.142 606.302 604.064 600.482 598.938C590.518 590.096 586.187 599.131 577.598 597.176C561.216 593.453 549.512 601.538 544.098 614.542C539.275 626.138 544.716 638.098 536.598 647.925Z" fill="url(#paint25_linear_637_415)"/>
<path fill-rule="evenodd" clip-rule="evenodd" d="M552.787 431.713C553.451 426.866 552.122 423.941 554.507 421.195C556.035 419.453 560.864 417.206 562.884 416.441C566.79 414.972 571.453 415.431 576.229 418.196L714.235 498.93C725.349 505.373 732.902 521.888 731.075 535.783L721.615 605.554C721.051 609.862 719.45 615.42 715.776 618.591C713.166 620.852 708.788 623.192 705.706 623.578C702.623 623.963 701.72 621.118 698.166 619.063L560.167 538.33C549.04 531.881 541.5 515.372 543.321 501.477L552.787 431.713Z" fill="#D0E7FF"/>
<path fill-rule="evenodd" clip-rule="evenodd" d="M549.047 433.934C550.867 420.038 561.363 413.988 572.489 420.424L710.495 501.157C721.609 507.6 729.155 524.115 727.341 538.011L717.882 607.774C716.062 621.67 705.553 627.72 694.439 621.284L556.427 540.53C545.3 534.081 537.76 517.573 539.581 503.677L549.047 433.934Z" fill="white"/>
<path fill-rule="evenodd" clip-rule="evenodd" d="M549.047 433.934C550.867 420.038 561.363 413.988 572.49 420.424L710.495 501.157C721.609 507.6 729.162 524.115 727.342 538.011L726.451 544.559C725.264 543.654 724.022 542.824 722.731 542.073L548.23 439.977L549.047 433.934Z" fill="url(#paint26_linear_637_415)"/>
<path opacity="0.2" fill-rule="evenodd" clip-rule="evenodd" d="M573.406 476.651C587.462 479.869 598.257 496.596 597.52 514.062C596.782 531.528 584.785 543.037 570.736 539.819C556.686 536.601 545.885 519.873 546.622 502.407C547.359 484.941 559.33 473.433 573.406 476.651Z" fill="#6D6AFD"/>
<path fill-rule="evenodd" clip-rule="evenodd" d="M572.795 491.211C580.375 492.946 586.194 501.975 585.795 511.383C585.397 520.791 578.927 527.001 571.347 525.239C563.768 523.477 557.948 514.475 558.347 505.067C558.746 495.659 565.209 489.443 572.789 491.178L572.795 491.211ZM572.456 499.189C568.431 498.265 564.996 501.57 564.784 506.563C564.571 511.556 567.667 516.356 571.692 517.274C575.718 518.191 579.152 514.893 579.365 509.894C579.578 504.894 576.482 500.114 572.456 499.196V499.189Z" fill="url(#paint27_linear_637_415)"/>
<path opacity="0.2" fill-rule="evenodd" clip-rule="evenodd" d="M605.95 510.226C606.435 506.516 609.231 504.94 612.194 506.716L702.311 557.857C705.267 559.632 707.28 564.08 706.795 567.79L705.852 575.103C705.367 578.813 702.564 580.382 699.607 578.613L609.49 527.492C606.528 525.717 604.521 521.269 605.006 517.559L605.95 510.226Z" fill="#6D6AFD"/>
<path opacity="0.2" fill-rule="evenodd" clip-rule="evenodd" d="M602.509 537.206C602.794 535.019 604.448 534.088 606.196 535.132L659.412 565.33C661.159 566.373 662.348 569.006 662.069 571.194L661.511 575.529C661.225 577.716 659.571 578.647 657.824 577.603L604.608 547.405C602.861 546.355 601.672 543.728 601.951 541.541L602.509 537.206Z" fill="#6D6AFD"/>
<path fill-rule="evenodd" clip-rule="evenodd" d="M564.106 427.81C567.168 428.508 569.52 432.165 569.361 435.961C569.201 439.758 566.584 442.277 563.521 441.573C560.459 440.868 558.107 437.218 558.267 433.422C558.426 429.625 561.037 427.105 564.106 427.81Z" fill="white"/>
<path fill-rule="evenodd" clip-rule="evenodd" d="M578.056 435.828C581.119 436.526 583.47 440.183 583.311 443.98C583.151 447.776 580.534 450.296 577.472 449.591C574.409 448.886 572.058 445.236 572.217 441.44C572.377 437.643 574.994 435.124 578.056 435.828Z" fill="white"/>
<path fill-rule="evenodd" clip-rule="evenodd" d="M593.149 444.638C596.211 445.336 598.563 448.993 598.403 452.789C598.244 456.585 595.626 459.105 592.564 458.4C589.502 457.696 587.15 454.045 587.31 450.249C587.469 446.453 590.086 443.933 593.149 444.638Z" fill="white"/>
<g style="mix-blend-mode:multiply" opacity="0.35">
<path fill-rule="evenodd" clip-rule="evenodd" d="M813.579 336.279C813.048 336.365 812.51 336.498 811.972 336.605C787.028 341.398 759.785 363.066 750.273 386.682L757.288 396.801C759.525 391.386 762.498 386.305 766.123 381.702C766.754 380.884 767.451 380.087 768.116 379.282C779.907 365.154 797.636 353.466 815.472 348.831C815.825 348.738 816.17 348.639 816.522 348.552C829.144 345.481 846.136 345.268 854.147 356.85L847.152 346.731C840.005 336.465 824.866 334.424 813.579 336.279Z" fill="#59CAAF"/>
</g>
<g style="mix-blend-mode:multiply" opacity="0.35">
<path fill-rule="evenodd" clip-rule="evenodd" d="M867.832 334.145C868.051 334.497 868.263 334.856 868.496 335.222C868.728 335.588 868.841 335.887 869.007 336.193C869.173 336.498 869.379 336.937 869.552 337.316C869.725 337.695 869.851 337.981 869.99 338.347C870.13 338.712 870.296 339.111 870.435 339.504C870.575 339.896 870.681 340.222 870.794 340.587C870.907 340.953 871.04 341.385 871.153 341.797C871.266 342.21 871.346 342.535 871.432 342.908C871.518 343.28 871.631 343.792 871.718 344.237C871.804 344.683 871.857 344.989 871.917 345.374C871.977 345.76 872.05 346.298 872.103 346.764C872.156 347.229 872.189 347.515 872.216 347.901C872.262 348.473 872.289 349.044 872.309 349.629C872.309 349.982 872.309 350.327 872.309 350.687C872.309 351.351 872.309 352.016 872.262 352.681C872.262 352.974 872.262 353.26 872.262 353.552C872.196 354.629 872.083 355.726 871.93 356.836C871.89 357.122 871.837 357.408 871.791 357.694C871.658 358.554 871.501 359.423 871.319 360.3C871.233 360.699 871.153 361.098 871.06 361.497C870.94 362.009 870.807 362.528 870.675 363.046C870.542 363.565 870.422 363.99 870.283 364.469C870.143 364.948 869.964 365.52 869.798 366.051C869.632 366.583 869.486 367.015 869.32 367.507C869.153 367.999 868.934 368.578 868.735 369.116C868.536 369.655 868.363 370.1 868.164 370.599C867.964 371.098 867.705 371.696 867.499 372.248C867.207 372.913 866.921 373.578 866.596 374.302C866.069 375.433 865.513 376.558 864.929 377.68C864.344 378.801 863.733 379.909 863.095 381.004L870.09 391.123C871.359 388.929 872.535 386.675 873.584 384.415C873.752 384.056 873.914 383.699 874.069 383.344C874.215 383.012 874.342 382.68 874.481 382.354C874.714 381.802 874.953 381.257 875.145 380.712C875.338 380.166 875.531 379.714 875.717 379.216C875.903 378.717 876.115 378.145 876.301 377.62C876.487 377.095 876.627 376.643 876.786 376.151C876.946 375.659 877.118 375.1 877.271 374.575C877.424 374.05 877.537 373.617 877.663 373.145C877.789 372.673 877.929 372.115 878.048 371.603C878.095 371.397 878.161 371.177 878.208 370.938C878.254 370.699 878.274 370.559 878.314 370.366C878.495 369.48 878.653 368.611 878.786 367.76C878.832 367.474 878.885 367.182 878.925 366.902C879.078 365.792 879.191 364.695 879.257 363.618C879.257 363.571 879.257 363.525 879.257 363.478C879.257 363.232 879.257 362.993 879.257 362.754C879.257 362.089 879.304 361.424 879.297 360.759C879.297 360.407 879.297 360.054 879.297 359.702C879.297 359.124 879.251 358.545 879.204 357.98C879.204 357.827 879.204 357.661 879.204 357.508C879.204 357.355 879.144 357.062 879.118 356.843C879.065 356.378 879.005 355.912 878.932 355.46C878.859 355.008 878.805 354.702 878.732 354.323C878.659 353.944 878.553 353.426 878.447 352.994C878.4 352.801 878.367 352.595 878.321 352.402C878.274 352.209 878.214 352.063 878.168 351.897C878.055 351.484 877.935 351.085 877.809 350.687C877.683 350.288 877.577 349.962 877.444 349.609C877.311 349.257 877.151 348.838 876.999 348.453C876.912 348.246 876.846 348.027 876.753 347.821C876.66 347.615 876.62 347.555 876.56 347.422C876.388 347.043 876.201 346.671 876.015 346.298C875.829 345.926 875.683 345.634 875.504 345.328C875.325 345.022 875.085 344.61 874.84 344.257C874.713 344.051 874.601 343.832 874.468 343.592C874.335 343.353 874.202 343.187 874.063 342.987L867.068 332.868C867.327 333.314 867.559 333.759 867.832 334.145Z" fill="#59CAAF"/>
</g>
<path fill-rule="evenodd" clip-rule="evenodd" d="M827.536 318.866C790.269 322.031 747.317 351.963 731.593 385.725C730.501 388.068 729.532 390.467 728.69 392.912L750.266 386.675C750.611 385.831 750.964 384.947 751.389 384.016C762.502 360.161 792.854 339.005 819.186 336.771C845.518 334.537 857.861 352.063 846.747 375.918C846.322 376.835 845.87 377.76 845.419 378.67L863.069 380.951C864.337 378.757 865.513 376.503 866.563 374.242C882.267 340.514 864.822 315.702 827.536 318.866Z" fill="url(#paint28_linear_637_415)"/>
<path fill-rule="evenodd" clip-rule="evenodd" d="M845.831 345.181C836.796 331.884 811.812 333.753 794.415 342.01C772.925 352.216 756.55 368.917 748.659 385.007C748.659 385.007 729.175 391.489 728.683 392.912L750.259 386.675C750.605 385.831 750.957 384.947 751.382 384.016C762.496 360.161 792.847 339.005 819.179 336.771C831.422 335.754 840.589 339.032 845.831 345.181Z" fill="#FDBEBE"/>
<g style="mix-blend-mode:multiply" opacity="0.35">
<path fill-rule="evenodd" clip-rule="evenodd" d="M861.966 378.91C861.966 378.91 845.87 377.793 845.399 378.704L863.049 380.984C864.318 378.79 865.493 376.536 866.543 374.276C874.767 356.61 873.903 341.412 865.879 331.372C878.414 351.165 863.235 376.716 861.966 378.91Z" fill="#59CAAF"/>
</g>
<g style="mix-blend-mode:multiply" opacity="0.35">
<path fill-rule="evenodd" clip-rule="evenodd" d="M757.287 396.814C757.287 396.775 750.897 387.553 750.299 386.682C742.633 404.513 746.147 411.734 758.078 423.389C757.558 422.627 757.092 421.829 756.683 421.002L756.477 420.57C752.903 413.103 754.285 404.234 757.287 396.814Z" fill="#59CAAF"/>
</g>
<g style="mix-blend-mode:multiply" opacity="0.35">
<path fill-rule="evenodd" clip-rule="evenodd" d="M870.044 391.103L863.049 380.964C846.74 409.068 761.061 459.923 731.095 427.072L738.09 437.191C745.105 447.337 758.842 452.829 777.595 451.24C779.756 451.058 781.933 450.785 784.125 450.422C784.882 450.296 785.639 450.11 786.403 449.963C788.051 449.651 789.638 449.345 791.266 448.953C797.377 447.448 803.356 445.447 809.142 442.969C809.401 442.856 809.66 442.716 809.919 442.603C831.256 433.295 851.703 417.631 865.321 398.37C865.739 397.772 866.191 397.187 866.589 396.588C867.818 394.773 868.974 392.932 870.044 391.103Z" fill="#59CAAF"/>
</g>
<path fill-rule="evenodd" clip-rule="evenodd" d="M845.399 378.704C833.335 401.402 804.286 421.049 778.97 423.196C753.654 425.344 741.252 409.174 750.286 386.682L728.69 392.932C718.52 422.957 736.03 444.079 770.6 441.147C805.389 438.195 845.1 411.893 863.049 380.997L845.399 378.704Z" fill="url(#paint29_linear_637_415)"/>
<g style="mix-blend-mode:multiply" opacity="0.35">
<path fill-rule="evenodd" clip-rule="evenodd" d="M770.998 439.618C715.039 443.607 728.69 392.918 728.69 392.918C718.52 422.943 736.03 444.066 770.6 441.134C805.389 438.182 845.1 411.88 863.049 380.984C863.049 380.964 827.43 435.217 770.998 439.618Z" fill="#59CAAF"/>
</g>
<path fill-rule="evenodd" clip-rule="evenodd" d="M134.691 284.274C135.148 276.31 132.977 268.416 128.513 261.808C120.449 249.841 107.043 240.732 94.0896 234.715C67.1927 222.183 31.6799 214.284 24.386 250.818C24.6318 250.313 24.9639 249.847 25.2562 249.362C29.0759 243.013 35.6257 239.741 42.6406 238.146C46.399 237.303 50.2416 236.895 54.0929 236.929H55.2621C66.7542 237.162 78.5121 240.499 88.8949 245.313C101.789 251.297 114.942 260.844 122.98 272.752C124.21 274.562 125.32 276.452 126.301 278.41C129.071 283.988 130.227 289.287 129.888 294.067L134.691 284.274Z" fill="url(#paint30_linear_637_415)"/>
<path fill-rule="evenodd" clip-rule="evenodd" d="M44.0755 299.612C43.6836 299.353 43.3049 299.067 42.9197 298.808C41.1482 297.593 39.4144 296.341 37.7183 295.051C37.2931 294.732 36.868 294.386 36.4429 294.08C34.4279 292.507 32.4793 290.887 30.5971 289.22C30.0258 288.708 29.4678 288.196 28.9032 287.678C28.3385 287.159 27.6078 286.481 26.9768 285.869C26.3457 285.258 25.781 284.679 25.1965 284.081C24.6119 283.483 23.9808 282.838 23.3896 282.213C22.9445 281.734 22.5194 281.249 22.061 280.77C21.0646 279.662 20.1036 278.538 19.178 277.399C18.806 276.94 18.4274 276.488 18.062 276.023C16.8464 274.467 15.6706 272.898 14.5944 271.296C4.23821 255.904 2.35163 241.417 7.71243 230.48L2.91627 240.28C-2.44452 251.217 -0.564592 265.704 9.82486 281.089C10.9077 282.691 12.0768 284.26 13.2924 285.816C13.6512 286.282 14.0298 286.734 14.4018 287.192C15.3318 288.327 16.2884 289.444 17.2715 290.543C17.5173 290.816 17.7365 291.108 17.989 291.381C18.2414 291.654 18.3875 291.787 18.5802 291.993C19.1647 292.624 19.7759 293.243 20.3804 293.861C20.9849 294.479 21.5562 295.064 22.1673 295.649C22.7785 296.235 23.4428 296.86 24.0871 297.458C24.5123 297.85 24.9175 298.256 25.3493 298.641C25.4888 298.768 25.6415 298.881 25.781 299C27.6632 300.667 29.6118 302.287 31.6268 303.86C31.7862 303.987 31.9323 304.12 32.0918 304.246C32.3508 304.446 32.6365 304.632 32.9022 304.831C34.5983 306.117 36.3321 307.369 38.1036 308.588C38.3095 308.727 38.4955 308.88 38.7014 309.02L39.2528 309.392L44.0755 299.612Z" fill="#1994F0"/>
<path fill-rule="evenodd" clip-rule="evenodd" d="M147.233 261.536C126.587 230.952 80.1397 208.314 43.5308 211.006C6.92195 213.699 -6.01837 240.679 14.6144 271.262C21.8153 281.9 32.125 291.6 44.0623 299.585L55.3551 290.184C46.6795 284.453 39.213 277.499 34.0382 269.833C19.4238 248.212 28.591 229.137 54.465 227.235C80.339 225.334 113.148 241.317 127.743 262.938C132.897 270.578 135.096 277.884 134.651 284.247L156.991 291.135C157.523 282.286 154.4 272.147 147.233 261.536Z" fill="url(#paint31_linear_637_415)"/>
<path fill-rule="evenodd" clip-rule="evenodd" d="M146.143 261.462C152.653 271.11 154.387 279.926 154.301 288.123C151.644 287.625 142.463 285.77 134.678 284.274L157.018 291.162C157.516 282.286 154.36 272.147 147.226 261.529C129.011 234.542 90.7616 213.772 56.8032 211.099C90.4627 214.131 128.134 234.768 146.143 261.462Z" fill="#00EDFF"/>
<path fill-rule="evenodd" clip-rule="evenodd" d="M54.4716 227.262C57.5158 227.057 60.571 227.077 63.6122 227.322C60.1314 227.003 56.7103 227.196 53.3888 227.189C26.1929 227.189 7.60616 259.268 51.1635 290.776C51.1635 290.776 43.8563 299.472 44.0423 299.612L55.3352 290.211C46.6596 284.48 39.193 277.525 34.0182 269.86C19.4836 248.245 28.6309 229.164 54.4716 227.262Z" fill="#0D7AE9"/>
<path fill-rule="evenodd" clip-rule="evenodd" d="M134.691 284.274L129.895 294.074C129.721 296.69 129.045 299.248 127.902 301.607L132.705 291.807C133.846 289.447 134.52 286.889 134.691 284.274V284.274Z" fill="#494CEC"/>
<path fill-rule="evenodd" clip-rule="evenodd" d="M150.129 308.421C143.553 315.981 133.615 319.724 123.91 321.187C123.391 321.267 122.873 321.34 122.342 321.413C105.854 323.54 87.8521 319.957 72.6333 314.239C62.5838 310.474 52.9996 305.566 44.0689 299.612L39.2661 309.412C48.1949 315.369 57.7795 320.277 67.8305 324.039C68.0364 324.119 68.2423 324.219 68.4549 324.292C83.5342 329.89 101.271 333.287 117.539 331.213C127.776 329.883 138.371 326.206 145.326 318.221C146.772 316.562 148.022 314.741 149.053 312.796C149.166 312.583 149.272 312.364 149.378 312.131L154.175 302.331C153.086 304.523 151.727 306.569 150.129 308.421V308.421Z" fill="#494CEC"/>
<path fill-rule="evenodd" clip-rule="evenodd" d="M157.024 291.168L134.684 284.28C133.841 295.929 124.102 304.339 107.355 305.556C90.6088 306.773 71.0787 300.569 55.3949 290.204L44.1021 299.605C66.4487 314.578 94.5015 323.54 118.356 321.812C142.211 320.083 156.108 307.903 157.024 291.168Z" fill="url(#paint32_linear_637_415)"/>
<path fill-rule="evenodd" clip-rule="evenodd" d="M157.024 291.168C157.024 291.168 155.975 317.636 117.572 320.708C82.2388 323.534 44.0754 299.612 44.0754 299.612C66.4221 314.585 94.4749 323.547 118.329 321.818C142.184 320.09 156.108 307.903 157.024 291.168Z" fill="#AAB4FF"/>
</g>
<defs>
<linearGradient id="paint0_linear_637_415" x1="514.763" y1="347.688" x2="391.686" y2="809.772" gradientUnits="userSpaceOnUse">
<stop stop-color="#D1E8FF"/>
<stop offset="1" stop-color="#EAEFFF"/>
</linearGradient>
<linearGradient id="paint1_linear_637_415" x1="534.625" y1="176.487" x2="375.952" y2="915.043" gradientUnits="userSpaceOnUse">
<stop stop-color="#6D6AFE"/>
<stop offset="1" stop-color="#3FB0F7"/>
</linearGradient>
<linearGradient id="paint2_linear_637_415" x1="87451.4" y1="6714.34" x2="87828.9" y2="2414.3" gradientUnits="userSpaceOnUse">
<stop stop-color="#6D6AFE"/>
<stop offset="1" stop-color="#3FB0F7"/>
</linearGradient>
<linearGradient id="paint3_linear_637_415" x1="27932.6" y1="7111.44" x2="28566.1" y2="4940.6" gradientUnits="userSpaceOnUse">
<stop stop-color="#6D6AFE"/>
<stop offset="1" stop-color="#3FB0F7"/>
</linearGradient>
<linearGradient id="paint4_linear_637_415" x1="350.325" y1="476.677" x2="340.976" y2="551.631" gradientUnits="userSpaceOnUse">
<stop stop-color="#FD90DA"/>
<stop offset="1" stop-color="#8E6DFD"/>
</linearGradient>
<linearGradient id="paint5_linear_637_415" x1="336.621" y1="381.037" x2="386.548" y2="214.188" gradientUnits="userSpaceOnUse">
<stop stop-color="#965CF2"/>
<stop offset="1" stop-color="#FF8ADC"/>
</linearGradient>
<linearGradient id="paint6_linear_637_415" x1="90419.5" y1="78922.6" x2="64284.5" y2="143860" gradientUnits="userSpaceOnUse">
<stop stop-color="#6D6AFE"/>
<stop offset="1" stop-color="#3FB0F7"/>
</linearGradient>
<linearGradient id="paint7_linear_637_415" x1="169.168" y1="447.503" x2="158.494" y2="541.167" gradientUnits="userSpaceOnUse">
<stop stop-color="#A77EF7"/>
<stop offset="1" stop-color="#5E65D6"/>
</linearGradient>
<linearGradient id="paint8_linear_637_415" x1="213.203" y1="596.904" x2="188.012" y2="717.354" gradientUnits="userSpaceOnUse">
<stop stop-color="#40457F"/>
<stop offset="1" stop-color="#1E2353"/>
</linearGradient>
<linearGradient id="paint9_linear_637_415" x1="218.743" y1="750.985" x2="209.286" y2="764.54" gradientUnits="userSpaceOnUse">
<stop stop-color="#3773B9"/>
<stop offset="1" stop-color="#003C76"/>
</linearGradient>
<linearGradient id="paint10_linear_637_415" x1="33715.7" y1="206591" x2="7455.2" y2="221694" gradientUnits="userSpaceOnUse">
<stop stop-color="#40457F"/>
<stop offset="1" stop-color="#1E2353"/>
</linearGradient>
<linearGradient id="paint11_linear_637_415" x1="6995.08" y1="13261.4" x2="6561.56" y2="13538.5" gradientUnits="userSpaceOnUse">
<stop stop-color="#3773B9"/>
<stop offset="1" stop-color="#003C76"/>
</linearGradient>
<linearGradient id="paint12_linear_637_415" x1="29417.8" y1="101757" x2="24957" y2="125452" gradientUnits="userSpaceOnUse">
<stop stop-color="#A77EF7"/>
<stop offset="1" stop-color="#5E65D6"/>
</linearGradient>
<linearGradient id="paint13_linear_637_415" x1="217.574" y1="424.054" x2="213.702" y2="433.765" gradientUnits="userSpaceOnUse">
<stop stop-color="#FF8A78"/>
<stop offset="1" stop-color="#FFA799"/>
</linearGradient>
<linearGradient id="paint14_linear_637_415" x1="230.654" y1="396.861" x2="224.953" y2="407.8" gradientUnits="userSpaceOnUse">
<stop stop-color="#FFB89E"/>
<stop offset="1" stop-color="#FFA799"/>
</linearGradient>
<linearGradient id="paint15_linear_637_415" x1="218.59" y1="370.247" x2="193.437" y2="384.642" gradientUnits="userSpaceOnUse">
<stop stop-color="#8A4791"/>
<stop offset="1" stop-color="#562E65"/>
</linearGradient>
<linearGradient id="paint16_linear_637_415" x1="21977.5" y1="26503.3" x2="22319.5" y2="26938.8" gradientUnits="userSpaceOnUse">
<stop stop-color="#FFB89E"/>
<stop offset="1" stop-color="#FFA799"/>
</linearGradient>
<linearGradient id="paint17_linear_637_415" x1="55011.7" y1="55722.5" x2="55818.2" y2="59806.1" gradientUnits="userSpaceOnUse">
<stop stop-color="#A77EF7"/>
<stop offset="1" stop-color="#5E65D6"/>
</linearGradient>
<linearGradient id="paint18_linear_637_415" x1="123602" y1="161052" x2="106512" y2="116456" gradientUnits="userSpaceOnUse">
<stop stop-color="#965CF2"/>
<stop offset="1" stop-color="#FF8ADC"/>
</linearGradient>
<linearGradient id="paint19_linear_637_415" x1="599.998" y1="621.311" x2="626.54" y2="606.457" gradientUnits="userSpaceOnUse">
<stop stop-color="#1C8EF4"/>
<stop offset="1" stop-color="#00CFDD"/>
</linearGradient>
<linearGradient id="paint20_linear_637_415" x1="592.93" y1="765.725" x2="534.894" y2="872.24" gradientUnits="userSpaceOnUse">
<stop stop-color="#3E4795"/>
<stop offset="1" stop-color="#273088"/>
</linearGradient>
<linearGradient id="paint21_linear_637_415" x1="45489.8" y1="224004" x2="29483.5" y2="234188" gradientUnits="userSpaceOnUse">
<stop stop-color="#3E4795"/>
<stop offset="1" stop-color="#273088"/>
</linearGradient>
<linearGradient id="paint22_linear_637_415" x1="57952.6" y1="101182" x2="57577.4" y2="114117" gradientUnits="userSpaceOnUse">
<stop stop-color="#1C8EF4"/>
<stop offset="1" stop-color="#00CFDD"/>
</linearGradient>
<linearGradient id="paint23_linear_637_415" x1="68572.4" y1="75836.4" x2="77619.1" y2="73693.6" gradientUnits="userSpaceOnUse">
<stop stop-color="#1C8EF4"/>
<stop offset="1" stop-color="#00CFDD"/>
</linearGradient>
<linearGradient id="paint24_linear_637_415" x1="41548.5" y1="35550.7" x2="41890.4" y2="36256.7" gradientUnits="userSpaceOnUse">
<stop stop-color="#FF8A78"/>
<stop offset="1" stop-color="#FFA799"/>
</linearGradient>
<linearGradient id="paint25_linear_637_415" x1="580.893" y1="607.781" x2="564.743" y2="707.572" gradientUnits="userSpaceOnUse">
<stop stop-color="#5A2D68"/>
<stop offset="1" stop-color="#22043D"/>
</linearGradient>
<linearGradient id="paint26_linear_637_415" x1="172517" y1="95073.7" x2="173338" y2="85709.5" gradientUnits="userSpaceOnUse">
<stop stop-color="#6D6AFE"/>
<stop offset="1" stop-color="#3FB0F7"/>
</linearGradient>
<linearGradient id="paint27_linear_637_415" x1="24105" y1="27655.6" x2="24541" y2="26162.9" gradientUnits="userSpaceOnUse">
<stop stop-color="#6D6AFE"/>
<stop offset="1" stop-color="#3FB0F7"/>
</linearGradient>
<linearGradient id="paint28_linear_637_415" x1="785.639" y1="339.863" x2="811.994" y2="389.037" gradientUnits="userSpaceOnUse">
<stop stop-color="#FA5DB1"/>
<stop offset="1" stop-color="#FEBFBF"/>
</linearGradient>
<linearGradient id="paint29_linear_637_415" x1="161953" y1="42085.5" x2="162765" y2="35708.6" gradientUnits="userSpaceOnUse">
<stop stop-color="#965CF2"/>
<stop offset="1" stop-color="#FF8ADC"/>
</linearGradient>
<linearGradient id="paint30_linear_637_415" x1="89.9445" y1="244.382" x2="79.9131" y2="264.966" gradientUnits="userSpaceOnUse">
<stop stop-color="#3964AF"/>
<stop offset="1" stop-color="#00BCCE"/>
</linearGradient>
<linearGradient id="paint31_linear_637_415" x1="20580.3" y1="32719.2" x2="18829.8" y2="39757.1" gradientUnits="userSpaceOnUse">
<stop stop-color="#1C8EF4"/>
<stop offset="1" stop-color="#00CFDD"/>
</linearGradient>
<linearGradient id="paint32_linear_637_415" x1="19336.9" y1="18158.1" x2="18566.2" y2="14694" gradientUnits="userSpaceOnUse">
<stop stop-color="#6D6AFE"/>
<stop offset="1" stop-color="#3FB0F7"/>
</linearGradient>
<clipPath id="clip0_637_415">
<rect width="879.31" height="1020" fill="white"/>
</clipPath>
</defs>
</svg>
