<svg width="616" height="265" viewBox="0 0 616 265" fill="none" xmlns="http://www.w3.org/2000/svg">
<path d="M27.4141 200.305H0.321167V141.753C0.321178 130 4.00006 120.5 8.50006 114L12.5001 109.5L15.8029 106.621C20.1695 102.651 25.1316 99.6079 30.6891 97.4908C36.2466 95.3075 42.0026 94.2158 47.9571 94.2158H71.8744V121.21H47.9571C45.1122 121.21 42.4327 121.739 39.9186 122.797C37.4044 123.856 35.2211 125.312 33.3686 127.164C31.5161 129.017 30.0606 131.2 29.002 133.714C27.9434 136.228 27.4141 138.908 27.4141 141.753V200.305Z" fill="white"/>
<path d="M183.036 146.219C183.036 154.158 181.614 161.568 178.769 168.449C175.924 175.263 172.053 181.185 167.158 186.213C162.262 191.175 156.506 195.112 149.89 198.023C143.34 200.868 136.293 202.29 128.751 202.29C121.275 202.29 114.229 200.868 107.613 198.023C101.063 195.112 95.3067 191.175 90.3446 186.213C85.4487 181.185 81.5782 175.263 78.7333 168.449C75.8884 161.568 74.4659 154.158 74.4659 146.219C74.4659 138.147 75.8884 130.671 78.7333 123.79C81.5782 116.909 85.4487 110.988 90.3446 106.026C95.3067 100.997 101.063 97.0608 107.613 94.2159C114.229 91.371 121.275 89.9485 128.751 89.9485C136.293 89.9485 143.34 91.3048 149.89 94.0174C156.506 96.6639 162.262 100.468 167.158 105.43C172.053 110.326 175.924 116.248 178.769 123.194C181.614 130.075 183.036 137.75 183.036 146.219ZM155.745 146.219C155.745 141.852 155.017 137.915 153.561 134.409C152.172 130.836 150.253 127.793 147.805 125.279C145.358 122.698 142.479 120.747 139.171 119.423C135.93 118.034 132.456 117.339 128.751 117.339C125.046 117.339 121.54 118.034 118.231 119.423C114.99 120.747 112.145 122.698 109.697 125.279C107.315 127.793 105.429 130.836 104.04 134.409C102.651 137.915 101.956 141.852 101.956 146.219C101.956 150.32 102.651 154.125 104.04 157.631C105.429 161.138 107.315 164.181 109.697 166.762C112.145 169.342 114.99 171.393 118.231 172.914C121.54 174.37 125.046 175.098 128.751 175.098C132.456 175.098 135.93 174.403 139.171 173.014C142.479 171.624 145.358 169.673 147.805 167.158C150.253 164.644 152.172 161.601 153.561 158.028C155.017 154.456 155.745 150.519 155.745 146.219ZM304.409 146.219C304.409 154.555 302.986 162.163 300.141 169.044C297.296 175.925 293.426 181.846 288.53 186.808C283.634 191.704 277.878 195.508 271.262 198.221C264.712 200.934 257.666 202.29 250.124 202.29C242.647 202.29 235.601 200.901 228.985 198.122C222.435 195.343 216.679 191.473 211.717 186.511C206.821 181.549 202.951 175.66 200.106 168.846C197.261 161.965 195.838 154.422 195.838 146.219V51.7405H223.031V101.361C224.486 99.5088 226.239 97.8548 228.29 96.3992C230.408 94.9437 232.657 93.7528 235.039 92.8265C237.487 91.9003 240.001 91.2056 242.581 90.7425C245.161 90.2132 247.676 89.9485 250.124 89.9485C257.666 89.9485 264.712 91.371 271.262 94.2159C277.878 96.9947 283.634 100.898 288.53 105.926C293.426 110.955 297.296 116.909 300.141 123.79C302.986 130.605 304.409 138.081 304.409 146.219ZM277.117 146.219C277.117 142.117 276.389 138.312 274.934 134.806C273.545 131.233 271.626 128.157 269.178 125.576C266.73 122.996 263.852 120.978 260.544 119.523C257.302 118.067 253.829 117.339 250.124 117.339C246.419 117.339 242.912 118.166 239.604 119.82C236.362 121.408 233.517 123.558 231.069 126.271C228.621 128.917 226.703 131.994 225.313 135.5C223.924 138.941 223.229 142.513 223.229 146.219C223.229 150.32 223.924 154.125 225.313 157.631C226.703 161.138 228.621 164.181 231.069 166.762C233.517 169.342 236.362 171.393 239.604 172.914C242.912 174.37 246.419 175.098 250.124 175.098C253.829 175.098 257.302 174.37 260.544 172.914C263.852 171.393 266.73 169.342 269.178 166.762C271.626 164.181 273.545 161.138 274.934 157.631C276.389 154.125 277.117 150.32 277.117 146.219ZM422.208 146.219C422.208 154.158 420.786 161.568 417.941 168.449C415.096 175.263 411.226 181.185 406.33 186.213C401.434 191.175 395.678 195.112 389.062 198.023C382.512 200.868 375.466 202.29 367.923 202.29C360.447 202.29 353.401 200.868 346.785 198.023C340.235 195.112 334.479 191.175 329.517 186.213C324.621 181.185 320.75 175.263 317.906 168.449C315.061 161.568 313.638 154.158 313.638 146.219C313.638 138.147 315.061 130.671 317.906 123.79C320.75 116.909 324.621 110.988 329.517 106.026C334.479 100.997 340.235 97.0608 346.785 94.2159C353.401 91.371 360.447 89.9485 367.923 89.9485C375.466 89.9485 382.512 91.3048 389.062 94.0174C395.678 96.6639 401.434 100.468 406.33 105.43C411.226 110.326 415.096 116.248 417.941 123.194C420.786 130.075 422.208 137.75 422.208 146.219ZM394.917 146.219C394.917 141.852 394.189 137.915 392.734 134.409C391.344 130.836 389.426 127.793 386.978 125.279C384.53 122.698 381.652 120.747 378.344 119.423C375.102 118.034 371.628 117.339 367.923 117.339C364.218 117.339 360.712 118.034 357.404 119.423C354.162 120.747 351.317 122.698 348.869 125.279C346.487 127.793 344.602 130.836 343.212 134.409C341.823 137.915 341.128 141.852 341.128 146.219C341.128 150.32 341.823 154.125 343.212 157.631C344.602 161.138 346.487 164.181 348.869 166.762C351.317 169.342 354.162 171.393 357.404 172.914C360.712 174.37 364.218 175.098 367.923 175.098C371.628 175.098 375.102 174.403 378.344 173.014C381.652 171.624 384.53 169.673 386.978 167.158C389.426 164.644 391.344 161.601 392.734 158.028C394.189 154.456 394.917 150.519 394.917 146.219Z" fill="white"/>
<path d="M455.386 200C461.936 200 468.089 198.776 473.845 196.328C479.601 193.814 484.662 190.407 489.029 186.106C493.33 181.74 496.737 176.678 499.251 170.922C501.699 165.166 502.923 159.013 502.923 152.463V120.904H516.122V93.9107H502.923V51.4353H475.929V93.9107H434.843V120.904H475.929V152.463C475.929 155.308 475.4 157.988 474.341 160.502C473.283 162.95 471.827 165.1 469.975 166.953C468.122 168.805 465.939 170.294 463.425 171.418C460.911 172.477 458.231 173.006 455.386 173.006H434.843V200H455.386Z" fill="white"/>
<path d="M613.623 172.096L592.336 199.089L540.336 264.589L569.758 199.089H525L569.758 119.994H525V93H613.623L568.865 172.096H613.623Z" fill="white"/>
</svg>
