<svg width="983" height="1020" viewBox="0 0 983 1020" fill="none" xmlns="http://www.w3.org/2000/svg">
<g clip-path="url(#clip0_636_208)">
<path fill-rule="evenodd" clip-rule="evenodd" d="M608.588 229.858C609.147 230.185 609.904 230.424 610.804 230.887C613.722 237.904 614.82 239.963 614.213 240.659C613.743 241.231 613.797 240.925 613.532 242.336C613.191 244.259 619.934 252.564 620.971 255.223C621.929 257.444 622.014 259.945 621.209 262.226C619.638 266.715 617.199 270.851 614.029 274.398C611.356 277.405 608.404 279.321 605.847 278.741C602.69 278.059 603.228 275.195 603.699 272.393C603.869 271.39 605.745 269.174 605.622 268.186C604.776 262.567 600.671 257.671 597.651 252.803C595.06 250.396 590.703 247.859 588.289 245.077C584.804 241.054 584.143 236.82 588.473 234.351C589.837 233.567 593.328 229.653 595.114 229.803C598.564 230.09 604.279 227.335 608.588 229.858Z" fill="#202249"/>
<path fill-rule="evenodd" clip-rule="evenodd" d="M491.968 213.759C489.622 220.148 491.45 225.808 496.584 228.249L496.686 228.344L497.307 228.562C497.856 228.778 498.418 228.956 498.991 229.094C505.128 230.915 514.313 232.572 519.925 233.642C542.317 237.917 575.681 240.584 591.357 246.598C597.494 242.084 599.328 233.704 595.305 228.671C578.211 220.53 555.123 209.947 545.44 206.354C542.827 205.501 540.101 205.042 537.353 204.99C551.781 191.98 567.055 177.893 572.994 165.885C577.195 157.389 577.877 145.586 580.795 138.201C557.25 145.095 552.736 130.885 548.413 125.887C544.704 131.341 544.792 130.319 541.035 136.115C528.339 155.773 509.615 183.648 496.884 204.356C494.791 207.288 492.793 210.772 491.968 213.759Z" fill="url(#paint0_linear_636_208)"/>
<g style="mix-blend-mode:multiply" opacity="0.3">
<path fill-rule="evenodd" clip-rule="evenodd" d="M568.808 216.33C559.2 211.986 550.493 208.202 545.433 206.333C542.82 205.481 540.095 205.021 537.346 204.97C551.775 191.96 567.049 177.872 572.988 165.864C577.188 157.368 577.87 145.565 580.788 138.181C574.154 140.124 569.033 140.39 565.003 139.66L565.637 144.263C547.465 162.353 514.429 204.397 511.354 231.849C522.461 234.433 552.798 238.327 557.659 238.872C558.928 230.731 564.246 224.239 568.808 216.33ZM552.245 131.226C550.718 129.18 549.559 127.196 548.406 125.866C546.047 129.33 545.222 130.176 543.967 131.839L552.245 131.226Z" fill="#1E2353"/>
</g>
<path fill-rule="evenodd" clip-rule="evenodd" d="M565.869 321.024C569.176 325.613 560.257 348.632 558.082 353.481C556.166 357.756 556.78 360.381 561.307 360.442C564.88 360.497 570.547 355.437 574.004 352.124C580.488 345.912 580.822 339.591 582.738 336.898L584.948 336.216C586.557 335.302 591.337 329.07 591.596 326.71C590.917 324.522 590.095 322.381 589.134 320.301C585.609 313.796 584.839 316.639 580.188 312.664C574.89 316.476 578.654 318.01 565.869 321.024Z" fill="#202249"/>
<path fill-rule="evenodd" clip-rule="evenodd" d="M523.579 242.125C533.255 260.849 557.311 303.084 565.814 321.855C573.315 323.437 580.904 319.06 581.565 313.168C576.11 295.167 567.246 265.533 562.828 256.089C559.93 249.843 554.516 241.518 549.634 235.163C563.953 215.164 586.57 183.682 593.109 165.224C601.974 140.117 591.793 125.791 578.108 117.902C573.233 115.099 567.989 119.593 565.514 116.593C559.643 128.007 554.359 143.533 550.95 157.512C546.176 176.993 523.409 218.334 521.691 232.231C521.43 234.926 521.901 237.642 523.054 240.093C523.177 240.747 523.354 241.422 523.579 242.125Z" fill="url(#paint1_linear_636_208)"/>
<g style="mix-blend-mode:multiply" opacity="0.35">
<path fill-rule="evenodd" clip-rule="evenodd" d="M907.116 986.991L248.636 616.627C240.324 612.843 228.112 609.277 219.957 614.254L199.105 626.985C194.912 629.549 181.111 638.051 190.343 643.056C217.495 657.785 825.504 1001.67 853.071 1016.63C858.288 1019.46 865.918 1020.48 873.923 1019.8C881.928 1019.13 890.172 1016.96 896.507 1013.04L904.839 1007.9C910.73 1004.26 913.99 1000.28 914.303 996.476C914.617 992.671 912.217 989.309 907.116 986.991Z" fill="#59CAAF"/>
</g>
<path fill-rule="evenodd" clip-rule="evenodd" d="M324.174 13.1533C319.632 10.5758 314.314 9.61441 309.329 11.4964L298.188 15.8467C294.144 36.7869 871.98 997.457 877.148 1002.78L887.097 999.033C893.629 996.462 897.052 989.664 898.007 983.056L981.972 409.892V409.83C983.336 400.189 980.445 390.158 975.153 382.105C972.296 377.762 968.546 373.787 963.937 371.291L324.174 13.1533Z" fill="url(#paint2_linear_636_208)"/>
<path fill-rule="evenodd" clip-rule="evenodd" d="M952.951 375.519L313.189 17.3945C301.085 10.6917 289.569 17.1286 287.428 31.7137L203.462 604.892C201.328 619.491 209.367 636.776 221.47 643.479L861.199 1001.6C873.302 1008.31 884.846 1001.89 886.988 987.284L970.98 414.119C973.128 399.527 965.048 382.228 952.951 375.519Z" fill="url(#paint3_linear_636_208)"/>
<path fill-rule="evenodd" clip-rule="evenodd" d="M952.952 375.518L313.189 17.3945C301.086 10.6917 289.569 17.1286 287.428 31.7137L284.598 51.0447L968.123 433.668L970.987 414.112C973.128 399.527 965.048 382.228 952.952 375.518Z" fill="#4A9FF8"/>
<path fill-rule="evenodd" clip-rule="evenodd" d="M309.213 31.6592C314.068 32.7707 317.791 38.5461 317.539 44.5602C317.287 50.5742 313.148 54.5563 308.293 53.4244C303.438 52.2925 299.715 46.5376 299.967 40.5235C300.219 34.5094 304.358 30.5478 309.213 31.6592Z" fill="#5858F0"/>
<path fill-rule="evenodd" clip-rule="evenodd" d="M331.306 44.3215C336.161 45.4602 339.884 51.2356 339.632 57.277C339.379 63.3183 335.234 67.2732 330.386 66.1413C325.537 65.0094 321.808 59.2544 322.06 53.2403C322.312 47.2262 326.458 43.2373 331.306 44.3215Z" fill="#5858F0"/>
<path fill-rule="evenodd" clip-rule="evenodd" d="M355.212 58.2862C360.067 59.3976 363.79 65.173 363.538 71.1871C363.286 77.2012 359.14 81.1833 354.292 80.0514C349.444 78.9195 345.707 73.185 345.966 67.1709C346.225 61.1568 350.364 57.1747 355.212 58.2862Z" fill="#5858F0"/>
<path style="mix-blend-mode:multiply" opacity="0.5" fill-rule="evenodd" clip-rule="evenodd" d="M875.144 574.222L760.222 511.129C753.553 507.433 747.028 506.915 741.573 509.035C734.584 511.763 729.354 518.827 727.84 529.137L714.816 622.6C712.13 640.943 722.242 662.667 737.447 671.102L852.376 734.195C867.589 742.623 882.099 734.549 884.785 716.207L897.809 622.744C900.502 604.394 890.349 582.65 875.144 574.222Z" fill="url(#paint4_linear_636_208)"/>
<path style="mix-blend-mode:multiply" opacity="0.5" fill-rule="evenodd" clip-rule="evenodd" d="M706.913 245.507L958.898 368.407L952.222 375.225L928.023 544.267C925.554 561.607 912.34 569.292 898.586 561.409L662.735 426.556L642.279 380.871L706.913 245.507Z" fill="url(#paint5_linear_636_208)"/>
<path style="mix-blend-mode:multiply" opacity="0.5" fill-rule="evenodd" clip-rule="evenodd" d="M390.485 506.315L234.692 419.963L229.483 427.913L203.878 602.151L365.236 691.592C382.282 701.056 398.613 691.994 401.634 671.395L415.939 560.796C418.96 540.203 407.559 515.786 390.485 506.315Z" fill="url(#paint6_linear_636_208)"/>
<path fill-rule="evenodd" clip-rule="evenodd" d="M383.592 544.526L364.977 666.799L367.929 667.16L375.989 664.031C384.853 660.553 389.463 651.355 390.751 642.415L404.443 536.385C404.446 536.355 404.446 536.326 404.443 536.296C406.291 523.252 402.398 509.703 395.204 498.793C391.345 492.923 386.265 487.543 380.025 484.161L57.1267 305.157C50.9899 301.665 43.7826 300.383 37.0457 302.913L29.9406 305.688C26.3677 307.052 25.263 308.102 25.2835 308.327C28.6383 339.57 388.297 512.472 383.592 544.526Z" fill="#D0E7FF"/>
<path fill-rule="evenodd" clip-rule="evenodd" d="M371.911 487.338L49.0126 308.355C41.8393 304.379 34.8093 303.813 28.9384 306.104C21.4378 309.036 15.7851 316.646 14.1555 327.74L0.463545 433.771C-2.4344 453.545 8.45504 476.906 24.8267 485.981L347.753 664.972C364.118 674.041 379.753 665.354 382.644 645.607L396.336 539.569C399.213 519.829 388.283 496.4 371.911 487.338Z" fill="url(#paint7_linear_636_208)"/>
<path opacity="0.5" fill-rule="evenodd" clip-rule="evenodd" d="M368.079 520.341L145.238 397.768C144.532 397.33 143.737 397.055 142.911 396.963C142.086 396.871 141.25 396.964 140.465 397.236C138.665 397.918 137.321 399.759 136.933 402.405L135.692 409.844C135.01 414.562 137.601 420.154 141.515 422.322L364.343 544.895C368.256 547.063 371.993 544.983 372.682 540.265L373.909 532.819C374.591 528.1 371.986 522.502 368.072 520.334L368.079 520.341ZM243.979 549.17C247.893 551.338 250.505 556.936 249.809 561.655L248.582 569.101C247.9 573.819 244.156 575.92 240.242 573.731L128.191 513.399C124.277 511.231 121.679 505.639 122.368 500.921L123.595 493.482C123.984 490.829 125.327 489.009 127.127 488.306C127.913 488.036 128.749 487.945 129.575 488.038C130.4 488.131 131.195 488.407 131.9 488.845L243.979 549.177V549.17ZM361.39 565.876C365.304 568.044 367.916 573.642 367.22 578.361L365.993 585.8C365.311 590.525 361.567 592.619 357.653 590.43L134.832 467.857C130.919 465.689 128.314 460.098 129.009 455.379L130.237 447.94C130.625 445.287 131.969 443.467 133.769 442.764C134.554 442.493 135.39 442.401 136.215 442.493C137.041 442.584 137.836 442.859 138.542 443.296L361.39 565.876Z" fill="#FFFCF1"/>
<path opacity="0.5" fill-rule="evenodd" clip-rule="evenodd" d="M74.2143 395.6C63.6794 389.756 52.4968 397.645 52.6127 412.885C52.6604 420.781 56.022 428.902 61.2929 434.023C62.5717 435.269 64.0065 436.344 65.5614 437.221C76.0826 443.051 87.2039 435.175 87.1289 419.997C87.1289 412.087 83.7741 403.932 78.5237 398.859C77.2344 397.601 75.7883 396.515 74.2211 395.627L74.2143 395.6ZM64.0613 444.353C61.9734 443.176 60.046 441.734 58.3268 440.064C51.2081 433.246 46.735 422.288 46.6464 411.671C46.5236 391.215 61.5247 380.592 75.6871 388.44C77.8067 389.633 79.76 391.101 81.4966 392.804C88.5881 399.623 93.0475 410.532 93.0884 421.183C93.177 441.578 78.1964 452.188 64.0544 444.367L64.0613 444.353ZM112.31 426.979C114.772 428.343 116.245 431.936 115.576 435.025L112.999 447.006C112.317 450.06 109.808 451.431 107.339 450.06L106.078 449.379C105.665 449.123 105.204 448.954 104.724 448.885C104.243 448.815 103.754 448.845 103.285 448.973C102.817 449.101 102.38 449.324 102.002 449.628C101.623 449.933 101.312 450.312 101.087 450.742C100.385 451.919 99.6204 453.057 98.7956 454.152C97.5137 455.836 97.3023 458.529 98.2842 460.936L98.9661 462.559C100.234 465.655 99.4775 469.18 97.2887 470.366L88.6153 475.051C88.0674 475.334 87.4556 475.471 86.8391 475.449C86.2226 475.426 85.6225 475.244 85.0969 474.921C83.7999 474.136 82.8073 472.934 82.2808 471.512L81.5989 469.923C81.0705 468.528 80.0882 467.351 78.8101 466.582C78.1773 466.221 77.4588 466.037 76.7304 466.05C75.503 466.05 74.2552 466.009 73.021 465.893C71.0368 465.702 69.3867 467.107 68.8821 469.453L68.5548 471.014C67.8729 474.069 65.3636 475.433 62.8953 474.069L53.1855 468.723C50.7171 467.359 49.2511 463.766 49.9057 460.711L50.2398 459.15C50.4681 457.932 50.4167 456.677 50.0896 455.482C49.7624 454.287 49.1679 453.181 48.351 452.249C47.3078 451.104 46.3054 449.917 45.3713 448.703C44.8772 448.035 44.2504 447.475 43.5302 447.06C43.0106 446.741 42.4176 446.562 41.8084 446.539C41.1993 446.517 40.5946 446.651 40.0527 446.931L38.9208 447.517C38.3734 447.801 37.7619 447.94 37.1454 447.918C36.529 447.897 35.9285 447.716 35.4023 447.394C34.1061 446.608 33.1137 445.406 32.5862 443.985L27.5609 431.711C26.2994 428.616 27.0563 425.084 29.2383 423.904L30.3838 423.283C32.0885 422.363 32.9544 420.038 32.593 417.44C32.3612 415.797 32.1976 414.146 32.0953 412.489C31.9385 409.939 30.5884 407.512 28.6859 406.469L27.4245 405.787C24.9561 404.423 23.4901 400.836 24.1447 397.775L26.7222 385.794C27.404 382.705 29.9201 381.335 32.3885 382.705L33.6499 383.387C34.0623 383.644 34.5233 383.813 35.004 383.884C35.4848 383.954 35.9749 383.924 36.4436 383.796C36.9123 383.668 37.3494 383.444 37.7276 383.139C38.1058 382.834 38.4168 382.455 38.6412 382.024C39.3419 380.844 40.1091 379.706 40.9391 378.614C42.2142 376.964 42.4256 374.271 41.4369 371.864L40.755 370.241C39.5004 367.111 40.2504 363.613 42.4392 362.399L51.1399 357.715C51.6876 357.432 52.299 357.294 52.9151 357.316C53.5313 357.337 54.1316 357.517 54.6583 357.838C55.9542 358.624 56.9465 359.826 57.4744 361.247L58.1563 362.87C58.6838 364.265 59.6663 365.443 60.9451 366.211C61.5784 366.578 62.3 366.764 63.0316 366.75C64.2694 366.715 65.5082 366.756 66.741 366.872C68.7184 367.097 70.3685 365.693 70.8731 363.354L71.2072 361.793C71.8891 358.704 74.4052 357.333 76.8736 358.704L86.5493 364.063C89.0176 365.427 90.4837 369.02 89.8154 372.102L89.4813 373.664C89.2567 374.869 89.3101 376.11 89.6375 377.292C89.9648 378.473 90.5573 379.565 91.3701 380.483C92.4111 381.628 93.4111 382.828 94.3703 384.083C94.8637 384.752 95.4906 385.312 96.2114 385.726C96.7307 386.045 97.3238 386.225 97.9331 386.248C98.5424 386.271 99.1472 386.135 99.6889 385.856L100.834 385.235C101.381 384.952 101.992 384.816 102.607 384.838C103.223 384.861 103.821 385.042 104.346 385.365C105.643 386.15 106.636 387.352 107.162 388.774L112.188 401.048C113.449 404.177 112.699 407.675 110.503 408.889L109.358 409.51C107.653 410.43 106.787 412.762 107.155 415.319C107.38 416.963 107.551 418.619 107.653 420.263C107.81 422.82 109.16 425.24 111.062 426.29L112.31 426.979Z" fill="#FFFCF1"/>
<path style="mix-blend-mode:multiply" opacity="0.5" fill-rule="evenodd" clip-rule="evenodd" d="M354.053 101.973L284.339 68.2823L256.86 240.4L253.321 264.565L325.783 303.663C338.37 310.639 350.385 303.956 352.614 288.771L372.825 142.115C375.027 126.95 366.64 108.949 354.053 101.973Z" fill="url(#paint8_linear_636_208)"/>
<path fill-rule="evenodd" clip-rule="evenodd" d="M345.557 142.899L323.84 283.2L326.11 283.48L332.309 281.073C339.127 278.4 342.666 271.322 343.662 264.449L361.595 136.64C361.596 136.617 361.596 136.594 361.595 136.571C363.02 126.541 360.006 116.115 354.49 107.722C351.524 103.208 347.616 99.0687 342.823 96.4708L209.559 24.0495C204.833 21.3698 199.331 20.3674 194.114 22.3244L188.659 24.4586C185.932 25.4951 185.059 26.3201 185.079 26.5043C187.643 50.5197 349.178 118.256 345.557 142.899Z" fill="#D0E7FF"/>
<path fill-rule="evenodd" clip-rule="evenodd" d="M336.577 98.9323L203.313 26.5042C197.796 23.4495 192.403 23.0131 187.875 24.7723C182.086 27.0225 177.756 32.8797 176.508 41.4099L158.575 169.219C156.352 184.404 164.712 202.385 177.306 209.368L310.584 281.803C323.171 288.778 335.186 282.096 337.416 266.911L355.342 139.101C357.572 123.909 349.164 105.908 336.577 98.9323Z" fill="url(#paint9_linear_636_208)"/>
<path fill-rule="evenodd" clip-rule="evenodd" d="M311.893 247.593L177.968 175.731C174.879 174.074 171.926 175.779 171.326 179.611C170.747 183.32 172.751 187.677 175.84 189.341L309.759 261.21C312.848 262.874 315.855 261.21 316.455 257.351C317.028 253.655 314.975 249.257 311.887 247.593H311.893ZM317.88 208.686C320.962 210.343 323.022 214.741 322.449 218.443C321.849 222.275 318.842 223.96 315.753 222.303L181.861 150.434C178.772 148.77 176.768 144.406 177.347 140.704C177.947 136.871 180.893 135.16 183.989 136.824L317.88 208.693V208.686ZM331.654 120.459L197.742 48.5968C194.66 46.933 191.7 48.6445 191.128 52.3471L189.634 61.8932C189.062 65.5958 191.066 69.9597 194.148 71.6235L328.04 143.492C331.122 145.143 334.129 143.492 334.716 139.763L336.195 130.216C336.782 126.521 334.716 122.123 331.627 120.466L331.654 120.459ZM323.887 170.092C326.97 171.749 329.042 176.086 328.463 179.788C327.849 183.689 324.856 185.298 321.774 183.641L187.896 111.772C184.807 110.122 182.795 105.812 183.368 102.117C183.982 98.2163 186.927 96.573 190.009 98.2232L323.887 170.092Z" fill="#FFFCF1"/>
<path fill-rule="evenodd" clip-rule="evenodd" d="M869.075 617.773L853.235 715.484L855.704 715.784L862.441 713.166C869.825 710.254 873.705 702.563 874.782 695.09L886.517 610.954C886.519 610.929 886.519 610.904 886.517 610.879C888.065 599.969 884.785 588.623 878.792 579.513C875.567 574.604 871.291 570.103 866.102 567.273L762.642 510.481C757.508 507.562 751.487 506.478 745.848 508.606L739.909 510.924C736.922 512.049 735.995 512.969 736.015 513.133C738.825 539.255 873.01 590.955 869.075 617.773Z" fill="#D0E7FF"/>
<path fill-rule="evenodd" clip-rule="evenodd" d="M859.311 569.94L755.858 513.147C749.857 509.819 743.979 509.349 739.07 511.265C732.776 513.713 728.071 520.081 726.708 529.355L714.98 613.484C712.559 629.999 721.662 649.555 735.347 657.123L838.814 713.916C852.506 721.505 865.57 714.237 867.991 697.729L879.712 613.593C882.14 597.105 873.003 577.542 859.311 569.94Z" fill="white"/>
<path fill-rule="evenodd" clip-rule="evenodd" d="M814.246 575.776C815.009 577.258 815.307 578.936 815.099 580.59C814.682 582.695 814.051 584.751 813.217 586.727L791.172 647.952C790.49 649.998 789.808 651.552 789.338 652.671C789.165 653.143 788.9 653.576 788.556 653.944C788.213 654.312 787.799 654.607 787.34 654.812C786.576 655.153 785.519 654.921 784.156 654.075C780.848 652.03 779.382 649.139 779.805 645.634C780.248 643.463 780.857 641.329 781.626 639.252L803.609 577.992C804.734 574.74 805.73 572.64 806.569 571.665C807.407 570.69 808.757 570.799 810.612 571.944C812.163 572.837 813.42 574.162 814.233 575.756L814.246 575.776ZM820.131 591.678L818.085 608.724L850.651 646.5L814.151 641.863L812.105 658.964L864.609 663.056L866.327 648.559L820.056 591.664L820.131 591.678ZM728.311 578.722L774.603 635.644L776.648 618.543L744.232 580.522L780.576 585.459L782.621 568.215L730.077 564.021L728.311 578.722Z" fill="url(#paint10_linear_636_208)"/>
<path fill-rule="evenodd" clip-rule="evenodd" d="M462.88 579.588C464.741 566.871 474.424 561.253 484.515 567.062L634.458 651.614C644.536 657.423 651.212 672.465 649.35 685.182L629.405 820.969C627.544 833.686 617.814 839.298 607.77 833.495L457.827 748.944C447.735 743.127 441.073 728.092 442.935 715.375L462.88 579.588Z" fill="white"/>
<path fill-rule="evenodd" clip-rule="evenodd" d="M481.119 717.98L533.425 645.532L543.571 722.358L569.053 694.66L584.054 776.818L481.119 717.98Z" fill="url(#paint11_linear_636_208)"/>
<path fill-rule="evenodd" clip-rule="evenodd" d="M567.314 648.743C572.906 649.882 577.12 656.428 576.717 663.369C576.315 670.311 571.46 675.009 565.869 673.87C560.278 672.731 556.036 666.185 556.405 659.244C556.773 652.303 561.696 647.604 567.314 648.743Z" fill="#FFDB59"/>
<path opacity="0.2" fill-rule="evenodd" clip-rule="evenodd" d="M475.058 599.049C476.606 588.48 484.652 583.809 493.032 588.643L617.623 658.876C625.996 663.703 631.54 676.202 629.999 686.771L613.429 799.552C611.881 810.121 603.829 814.785 595.448 809.957L470.864 739.725C462.484 734.897 456.947 722.399 458.488 711.83L475.058 599.049Z" fill="url(#paint12_linear_636_208)"/>
<path fill-rule="evenodd" clip-rule="evenodd" d="M665.237 697.156C667.099 684.439 676.782 678.814 686.873 684.63L836.816 769.182C846.894 774.991 853.569 790.033 851.708 802.75L831.763 938.483C829.902 951.199 820.172 956.811 810.128 951.009L660.185 866.457C650.093 860.64 643.431 845.605 645.293 832.888L665.237 697.156Z" fill="white"/>
<path fill-rule="evenodd" clip-rule="evenodd" d="M683.484 835.514L735.79 763.058L745.93 839.891L771.411 812.194L786.419 894.352L683.484 835.514Z" fill="url(#paint13_linear_636_208)"/>
<path fill-rule="evenodd" clip-rule="evenodd" d="M769.652 766.277C775.243 767.416 779.457 773.961 779.055 780.903C778.653 787.844 773.798 792.542 768.206 791.404C762.615 790.265 758.401 783.719 758.803 776.778C759.206 769.836 764.054 765.138 769.652 766.277Z" fill="#FFDB59"/>
<path opacity="0.2" fill-rule="evenodd" clip-rule="evenodd" d="M677.416 716.575C678.963 706.006 687.01 701.336 695.39 706.17L819.981 776.403C828.354 781.23 833.898 793.729 832.357 804.298L815.787 917.079C814.239 927.648 806.186 932.312 797.813 927.484L673.229 857.252C664.849 852.424 659.312 839.925 660.853 829.356L677.416 716.575Z" fill="url(#paint14_linear_636_208)"/>
<path fill-rule="evenodd" clip-rule="evenodd" d="M438.523 14.9466C425.179 22.7812 431.568 40.9121 443.699 60.0044C460.902 87.1496 419.26 117.704 475.862 133.162C469.964 116.6 494.498 110.531 506.546 87.9065C520.45 61.8182 512.765 35.6345 494.88 13.3374C480.329 -4.82078 453.715 -4.58895 438.523 14.9466Z" fill="url(#paint15_linear_636_208)"/>
<path fill-rule="evenodd" clip-rule="evenodd" d="M464.945 186.484L468.211 198.758C469.234 201.397 469.855 202.106 473.666 200.394C475.712 199.392 475.085 195.083 474.512 191.939C474.009 189.369 474.058 186.722 474.655 184.173C475.077 182.868 475.91 181.734 477.028 180.941C479.292 179.127 481.938 177.906 480.308 172.138C479.456 169.124 479.66 166.88 479.626 163.751L471.737 163.232C471.914 170.269 468.791 175.015 465.539 180.961C463.909 183.818 464.257 183.279 464.945 186.484Z" fill="url(#paint16_linear_636_208)"/>
<path fill-rule="evenodd" clip-rule="evenodd" d="M493.032 108.376L492.977 107.981C492.966 107.409 492.881 106.84 492.725 106.29C490.72 92.9115 486.649 70.3621 483.479 58.5998C477.942 38.062 460.363 45.1602 460.547 57.4202C460.718 69.012 471.505 94.1252 473.987 105.008C473.101 112.931 469.793 152.52 470.939 159.435C471.157 160.751 471.737 161.61 471.669 163.062C471.621 164.16 471.321 164.596 470.987 165.919C474.089 166.328 477.199 166.771 480.247 167.487C480.318 166.449 480.473 165.419 480.71 164.405C481.242 162.919 482.606 162.155 483.219 160.894C486.247 154.696 491.259 122.15 492.636 111.561C492.897 110.519 493.03 109.45 493.032 108.376V108.376Z" fill="url(#paint17_linear_636_208)"/>
<g style="mix-blend-mode:multiply" opacity="0.35">
<path fill-rule="evenodd" clip-rule="evenodd" d="M490.733 120.902C491.913 118.059 493.243 109.201 493.229 105.274C493.229 97.0912 490.12 90.368 489.138 85.1926L460.67 56.8201C460.854 62.1318 467.052 76.2874 469.589 86.7336C473.55 103.03 482.176 117.07 490.733 120.902Z" fill="#3469C0"/>
</g>
<path fill-rule="evenodd" clip-rule="evenodd" d="M578.906 122.832C574.89 136.115 556.023 146.581 537.121 142.422C532.607 137.403 531.271 138.965 527.139 134.921C523.382 131.239 518.745 126.2 512.26 119.627C508.653 113.968 494.429 111.649 488.149 109.188C481.044 106.372 474.751 100.603 471.853 89.3248C470.434 83.8699 464.243 67.1436 462.013 61.5728C455.577 45.467 469.514 39.4461 478.978 45.4057C485.026 47.9286 498.357 51.0924 504.944 52.3266C508.752 53.1012 512.599 53.6725 516.467 54.0381C524.309 54.795 532.832 60.5227 538.921 65.3708C555.259 78.4149 577.454 104.619 578.906 122.832Z" fill="url(#paint18_linear_636_208)"/>
<path fill-rule="evenodd" clip-rule="evenodd" d="M484.126 38.921C486.025 46.1663 489.918 52.7337 495.363 57.877C493.366 65.0298 479.715 70.1506 475.371 65.3775C475.037 64.4229 474.58 62.275 474.11 61.5863C473.428 59.4862 472.678 57.6519 472.064 56.1791L484.126 38.921Z" fill="url(#paint19_linear_636_208)"/>
<path fill-rule="evenodd" clip-rule="evenodd" d="M444.503 29.3613C445.185 34.8163 446.903 39.378 451.594 44.0556C452.553 44.9375 453.239 46.0757 453.572 47.3354C455.351 53.8268 456.742 55.1564 460.909 58.1225C464.959 61.0068 466.473 63.0115 468.784 63.2502C471.096 63.4888 473.346 62.2137 475.085 60.9727C478.644 58.4294 482.626 51.4266 484.501 46.8581C485.865 43.4487 485.026 42.5896 484.154 39.3575C485.183 33.4048 481.065 33.0298 479.694 33.7662C475.76 35.8732 478.405 40.2371 477.096 42.7396C463.254 45.7944 448.956 33.4116 444.503 29.3613Z" fill="#FFA698"/>
<path fill-rule="evenodd" clip-rule="evenodd" d="M444.503 29.3613C452.181 42.1464 469.091 45.3716 477.083 42.7396C463.254 45.7944 448.956 33.4116 444.503 29.3613Z" fill="#FF9080"/>
<g style="mix-blend-mode:multiply" opacity="0.35">
<path fill-rule="evenodd" clip-rule="evenodd" d="M533.903 139.142C533.788 139.172 533.672 139.194 533.555 139.21C531.469 137.846 529.948 137.656 527.152 134.914C523.395 131.232 518.759 126.193 512.274 119.62C510.433 116.736 505.837 114.718 500.941 113.108C501.712 99.8869 501.371 69.6596 505.714 65.7321C511.694 60.2771 519.931 56.6973 526.805 63.7615C539.747 77.092 526.832 126.425 533.903 139.142Z" fill="#3469C0"/>
</g>
<path fill-rule="evenodd" clip-rule="evenodd" d="M515.574 156.912L507.357 125.989L513.037 120.923L564.907 150.038L560.08 155.446L537.551 170.522L515.574 156.912Z" fill="#4A9FF8"/>
<path fill-rule="evenodd" clip-rule="evenodd" d="M507.378 126.071L503.601 114.002L568.33 149.929L559.991 155.507L507.378 126.071Z" fill="#D0E7FF"/>
<path style="mix-blend-mode:multiply" opacity="0.5" fill-rule="evenodd" clip-rule="evenodd" d="M401.388 199.235C404.743 174.463 423.542 163.778 443.371 175.458L648.143 295.024C667.917 306.677 681.309 336.263 677.954 361.042L646.745 597.208C643.39 621.98 624.571 632.665 604.763 620.984L399.991 501.426C380.162 489.759 366.818 460.186 370.179 435.414L401.388 199.235Z" fill="url(#paint20_linear_636_208)"/>
<path fill-rule="evenodd" clip-rule="evenodd" d="M408.651 197.878C409.012 195.198 409.544 183.232 412.742 180.832C417.079 177.545 425.015 172.772 427.32 172.145C433.416 170.515 440.46 171.585 447.647 175.813L639.006 286.671C657.417 297.499 669.827 324.992 666.704 348.039L637.704 567.464C636.613 575.504 633.769 581.947 629.746 586.461C627.019 589.516 620.664 593.791 615.359 596.532C609.904 599.369 602.165 591.609 598.687 589.564L407.355 478.672C388.945 467.83 376.528 440.351 379.651 417.303L408.651 197.878Z" fill="#D0E7FF"/>
<path fill-rule="evenodd" clip-rule="evenodd" d="M401.914 202.583C405.037 179.563 422.499 169.649 440.923 180.491L631.199 291.587C649.609 302.415 662.019 329.908 658.896 352.956L629.903 572.381C626.78 595.401 609.297 605.301 590.887 594.473L400.645 483.377C382.235 472.535 369.825 445.056 372.941 422.008L401.914 202.583Z" fill="white"/>
<path fill-rule="evenodd" clip-rule="evenodd" d="M401.914 202.583C405.037 179.563 422.499 169.649 440.923 180.491L631.199 291.587C649.609 302.415 662.019 329.908 658.896 352.956L655.923 374.775L398.893 224.662L401.914 202.583Z" fill="url(#paint21_linear_636_208)"/>
<path fill-rule="evenodd" clip-rule="evenodd" d="M432.502 203.442C436.695 204.438 439.893 209.456 439.655 214.659C439.416 219.862 435.816 223.271 431.622 222.289C427.429 221.307 424.231 216.275 424.47 211.072C424.708 205.87 428.315 202.447 432.502 203.442Z" fill="white"/>
<path fill-rule="evenodd" clip-rule="evenodd" d="M454.874 217.386C459.068 218.382 462.266 223.401 462.027 228.603C461.788 233.806 458.188 237.215 454.001 236.22C449.815 235.224 446.624 230.206 446.849 225.017C447.074 219.828 450.715 216.391 454.874 217.386Z" fill="white"/>
<path fill-rule="evenodd" clip-rule="evenodd" d="M477.246 231.331C481.44 232.326 484.638 237.345 484.399 242.547C484.16 247.75 480.56 251.159 476.373 250.164C472.187 249.168 468.982 244.15 469.221 238.947C469.459 233.744 473.053 230.335 477.246 231.331Z" fill="white"/>
<path opacity="0.2" fill-rule="evenodd" clip-rule="evenodd" d="M442.273 268.261C461.7 272.863 476.537 296.142 475.412 320.24C474.287 344.337 457.629 360.142 438.203 355.54C418.776 350.937 403.939 327.665 405.064 303.561C406.189 279.457 422.854 263.651 442.273 268.261Z" fill="url(#paint22_linear_636_208)"/>
<path fill-rule="evenodd" clip-rule="evenodd" d="M441.339 288.369C451.813 290.851 459.811 303.37 459.204 316.394C458.597 329.417 449.617 337.913 439.123 335.431C428.629 332.949 420.651 320.43 421.258 307.407C421.865 294.383 430.866 285.887 441.339 288.369Z" fill="url(#paint23_linear_636_208)"/>
<g style="mix-blend-mode:multiply" opacity="0.35">
<g style="mix-blend-mode:multiply" opacity="0.2">
<path fill-rule="evenodd" clip-rule="evenodd" d="M487.093 315.023C487.775 309.902 491.661 307.761 495.752 310.25L620.125 381.942C624.216 384.424 626.944 390.602 626.262 395.722L624.898 405.848C624.216 410.969 620.323 413.11 616.239 410.621L491.893 338.93C487.802 336.448 485.074 330.27 485.756 325.156L487.093 315.023Z" fill="#59CAAF"/>
</g>
<g style="mix-blend-mode:multiply" opacity="0.2">
<path fill-rule="evenodd" clip-rule="evenodd" d="M482.149 352.28C482.558 349.26 484.876 347.992 487.263 349.458L560.707 391.788C563.121 393.254 564.744 396.902 564.335 399.923L563.544 405.903C563.135 408.923 560.816 410.192 558.43 408.726L484.986 366.395C482.572 364.929 480.949 361.281 481.358 358.26L482.149 352.28Z" fill="#59CAAF"/>
</g>
</g>
<g style="mix-blend-mode:multiply" opacity="0.35">
<g style="mix-blend-mode:multiply" opacity="0.2">
<path fill-rule="evenodd" clip-rule="evenodd" d="M399.138 361.779C399.643 358.049 402.466 356.488 405.446 358.301L620.234 481.529C623.207 483.336 625.212 487.836 624.707 491.559L624.025 496.441C623.521 500.171 620.691 501.732 617.718 499.919L402.929 376.691C399.95 374.884 397.952 370.384 398.456 366.654L399.138 361.779Z" fill="#59CAAF"/>
</g>
<g style="mix-blend-mode:multiply" opacity="0.2">
<path fill-rule="evenodd" clip-rule="evenodd" d="M394.645 397.918C395.15 394.188 397.973 392.627 400.952 394.44L615.727 517.668C618.7 519.475 620.705 523.975 620.2 527.705L619.518 532.587C619.014 536.317 616.184 537.878 613.211 536.064L398.423 412.837C395.443 411.03 393.445 406.53 393.95 402.8L394.645 397.918Z" fill="#59CAAF"/>
</g>
<g style="mix-blend-mode:multiply" opacity="0.2">
<path fill-rule="evenodd" clip-rule="evenodd" d="M389.94 432.352C390.445 428.622 393.268 427.061 396.247 428.875L611.036 552.102C614.009 553.909 616.013 558.409 615.509 562.139L614.827 567.021C614.322 570.751 611.493 572.312 608.52 570.499L393.731 447.272C390.751 445.458 388.754 440.964 389.258 437.234L389.94 432.352Z" fill="#59CAAF"/>
</g>
</g>
<path fill-rule="evenodd" clip-rule="evenodd" d="M667.46 177.893C668.142 173.12 664.964 169.438 667.037 166.301C669.281 162.892 676.897 160.437 680.191 159.244C684.861 157.559 690.364 158.105 695.969 161.289L924.395 291.908C937.732 299.538 946.624 319.374 944.23 336.168L918.613 515.411C917.44 523.641 913.771 529.628 908.773 532.689C905.719 534.564 897.345 538.144 893.554 537.68C890.888 537.36 892.913 533.589 890.104 532.014L661.678 401.395C648.32 393.759 639.442 373.93 641.836 357.135L667.46 177.893Z" fill="#D0E7FF"/>
<path fill-rule="evenodd" clip-rule="evenodd" d="M660.614 180.627C663.008 163.832 675.772 156.38 689.123 164.023L917.549 294.642C930.887 302.272 939.778 322.108 937.392 338.902L911.746 518.145C909.353 534.939 896.575 542.385 883.238 534.748L654.812 404.13C641.461 396.493 632.583 376.664 634.969 359.87L660.614 180.627Z" fill="url(#paint24_linear_636_208)"/>
<path fill-rule="evenodd" clip-rule="evenodd" d="M642.872 368.079C643.077 366.62 644.181 366 645.34 366.716L898.702 511.981C899.312 512.417 899.794 513.009 900.096 513.696C900.398 514.382 900.51 515.137 900.421 515.881L899.739 520.307C899.534 521.766 898.423 522.352 897.27 521.67L643.915 376.391C643.305 375.955 642.824 375.363 642.522 374.677C642.219 373.99 642.107 373.236 642.197 372.491L642.872 368.079Z" fill="#6D6AFD"/>
<g style="mix-blend-mode:multiply" opacity="0.35">
<path fill-rule="evenodd" clip-rule="evenodd" d="M643.002 368.209C643.2 366.804 644.27 366.204 645.382 366.845L747.573 425.486C748.161 425.907 748.625 426.479 748.917 427.141C749.208 427.803 749.317 428.532 749.23 429.25L748.548 433.518C748.35 434.923 747.28 435.523 746.169 434.882L644.004 376.248C643.415 375.827 642.951 375.256 642.659 374.593C642.368 373.931 642.26 373.203 642.347 372.484L643.002 368.209Z" fill="#59CAAF"/>
</g>
<path fill-rule="evenodd" clip-rule="evenodd" d="M743.161 281.98C743.727 277.984 746.768 276.211 749.946 278.032L820.274 318.262C823.445 320.076 825.565 324.794 824.992 328.79L815.514 395.709C814.948 399.704 811.907 401.477 808.696 399.657L738.368 359.426C735.19 357.606 733.077 352.887 733.649 348.898L743.161 281.98Z" fill="url(#paint25_linear_636_208)"/>
<path fill-rule="evenodd" clip-rule="evenodd" d="M783.283 311.096C771.105 304.134 759.486 310.918 757.297 326.233C755.108 341.548 763.202 359.645 775.38 366.586C787.558 373.528 799.177 366.763 801.366 351.435C803.555 336.107 795.447 318.057 783.283 311.096Z" fill="url(#paint26_linear_636_208)"/>
<path fill-rule="evenodd" clip-rule="evenodd" d="M772.018 318.535L768.172 346.26L791.663 346.894L772.018 318.535Z" fill="white"/>
<path fill-rule="evenodd" clip-rule="evenodd" d="M498.446 176.781C496.448 180.116 497.505 187.337 496.85 190.773C496.148 194.205 495.125 197.563 493.795 200.803C493.373 201.69 480.158 213.459 479.36 212.866C477.615 211.502 476.476 202.229 478.774 199.528C481.072 196.828 483.001 194.189 483.39 191.98C483.779 189.771 483.656 182.434 484.611 181.288C486.786 178.718 489.056 177.879 490.025 174.702L498.446 176.781Z" fill="url(#paint27_linear_636_208)"/>
<path fill-rule="evenodd" clip-rule="evenodd" d="M524.227 131.832C524.439 131.068 524.605 130.291 524.725 129.507C528.175 115.243 531.68 90.8317 531.23 76.6897C530.889 65.8889 525.631 56.745 512.956 60.2635C509.062 61.3681 504.582 64.3002 503.982 69.4278C503.3 75.5646 504.207 85.7926 504.787 96.1775C505.25 104.503 505.21 119.511 505.53 125.6C505.475 125.784 505.421 125.975 505.373 126.166C501.316 134.239 491.872 160.614 489.895 169.172C489.568 170.603 489.895 172.138 489.861 173.126C489.768 174.25 489.418 175.337 488.838 176.304C491.301 178.517 494.293 180.058 497.525 180.777C498.035 179.69 498.627 178.643 499.298 177.647C499.843 176.808 502.387 176.017 503.389 174.831C508.639 168.544 522.481 139.783 524.186 132.132C524.186 132.037 524.206 131.935 524.227 131.832Z" fill="url(#paint28_linear_636_208)"/>
<g style="mix-blend-mode:multiply" opacity="0.35">
<path fill-rule="evenodd" clip-rule="evenodd" d="M321.842 866.73L436.839 801.195C449.378 795.468 467.325 790.906 480.103 797.554C491.743 803.609 510.917 816.012 519.399 820.847C525.843 824.522 548.195 837.893 534.271 845.483C493.311 867.786 452.76 892.831 411.166 915.463C403.298 919.745 391.794 921.286 379.712 920.284C367.629 919.281 355.349 915.783 345.618 910.137L325.251 898.266C316.23 893.016 311.443 886.804 310.973 881.056C310.516 875.444 314.123 870.248 321.842 866.73Z" fill="#59CAAF"/>
</g>
<path fill-rule="evenodd" clip-rule="evenodd" d="M364.206 863.245C366.457 863.198 374.046 856.058 381.253 859.665C389.886 863.995 406.284 860.156 414.556 862.147C416.028 862.502 418.913 861.418 419.479 862.427C421.265 865.598 422.99 870.337 418.606 873.439C415.381 875.723 408.473 878.744 403.946 880.346C399.173 882.051 390.915 884.731 385.399 885.597C379.262 886.551 376.535 886.961 374.216 888.713C370.95 890.356 367.575 891.065 365.686 890.759C361.656 890.118 356.965 887.758 354.81 883.169C354.128 881.703 354.128 875.287 354.892 871.128C355.519 867.848 357.306 864.111 358.738 860.62L364.206 863.245Z" fill="white"/>
<path fill-rule="evenodd" clip-rule="evenodd" d="M381.846 847.917C379.119 854.476 379.951 864.623 373.48 868.141C369.157 870.494 362.379 870.514 359.426 863.791C357.783 860.04 359.965 853.638 359.481 845.38L381.846 847.917Z" fill="#FFA495"/>
<path fill-rule="evenodd" clip-rule="evenodd" d="M383.66 858.077C388.617 859.515 402.316 858.554 410.969 859.256C414.692 859.556 418.026 859.529 419.765 862.911C421.367 866.02 420.529 868.68 416.901 871.244C413.676 873.528 408.201 876.126 403.673 877.735C398.9 879.44 390.642 882.119 385.126 882.985C378.989 883.94 376.262 884.349 373.943 886.101C370.677 887.745 367.302 888.454 365.413 888.147C363.101 887.744 360.915 886.803 359.032 885.401C357.149 883.999 355.621 882.174 354.572 880.074C353.89 878.608 353.89 872.675 354.66 868.482C354.823 867.654 355.035 866.837 355.294 866.034C355.976 859.515 358.131 856.883 360.156 858.002C362.931 859.529 363.981 862.277 365.038 864.534C365.378 865.366 365.889 866.117 366.539 866.737C367.189 867.358 367.962 867.834 368.809 868.134C372.13 869.177 375.157 867.33 377.121 864.479C378.205 862.405 378.973 860.18 379.398 857.879C379.398 857.654 379.398 857.436 379.398 857.197C380.08 851.503 382.808 852.001 382.399 853.201C381.99 854.401 382.16 856.911 383.66 858.077Z" fill="#193161"/>
<path fill-rule="evenodd" clip-rule="evenodd" d="M418.04 861.943C417.971 864.145 421.347 864.35 420.372 868.223C421.994 866.634 419.731 862.086 418.728 861.404C418.319 861.091 417.985 860.975 418.04 861.943Z" fill="white"/>
<path fill-rule="evenodd" clip-rule="evenodd" d="M420.631 840.682C422.724 839.864 427.402 830.55 435.387 831.456C438.612 831.825 443.794 830.979 449.024 829.486C457.411 827.099 469.098 819.606 471.089 820.833C475.433 823.506 475.78 828.381 472.733 832.8C470.489 836.052 466.248 840.375 462.545 843.444C458.618 846.696 453.047 851.674 448.165 854.354C443.555 856.911 442.028 856.686 438.735 861.125C436.232 863.791 433.28 865.38 431.432 865.748C426.659 866.682 419.676 863.607 417.167 860.395C415.572 855.24 412.81 850.351 414.583 842.612L420.631 840.682Z" fill="white"/>
<path fill-rule="evenodd" clip-rule="evenodd" d="M431.704 818.712C431.575 825.817 436.089 834.941 431.363 840.6C428.206 844.378 421.913 846.894 416.69 841.725C413.778 838.841 413.458 832.084 409.98 824.604L431.704 818.712Z" fill="#FFA495"/>
<path fill-rule="evenodd" clip-rule="evenodd" d="M446.903 827.372L448.335 826.983C456.722 824.597 467.932 818.801 469.923 820.049C474.267 822.722 475.098 825.879 472.044 830.277C469.8 833.529 465.559 837.853 461.857 840.921C457.929 844.173 452.358 849.151 447.476 851.831C442.86 854.388 441.339 854.163 438.046 858.602C435.543 861.268 432.591 862.857 430.743 863.225C425.97 864.159 418.776 861.056 416.267 857.838C415.08 853.999 413.458 850.338 413.328 845.517C412.646 839.203 413.062 835.971 415.81 836.066C420.924 836.216 423.031 838.909 425.145 840.225C429.693 843.062 432.734 839.4 433.484 834.866C433.573 832.859 433.433 830.848 433.068 828.872C433 828.661 432.918 828.456 432.836 828.252C431.35 822.715 434.104 822.163 434.159 823.431C434.136 824.617 434.555 825.77 435.336 826.663C436.116 827.557 437.201 828.128 438.38 828.265C441.169 828.729 444.653 827.563 446.903 827.372Z" fill="#193161"/>
<path fill-rule="evenodd" clip-rule="evenodd" d="M469.405 820.751C470.291 822.797 473.428 821.501 474.212 825.415C474.989 823.281 470.98 820.137 469.78 819.96C469.289 819.865 468.927 819.906 469.405 820.751Z" fill="white"/>
<path fill-rule="evenodd" clip-rule="evenodd" d="M426.849 626.882C428.684 647.461 439 713.193 436.13 731.208C431.813 758.34 433.047 791.124 433.095 819.926C432.366 832.029 415.728 838.337 410.887 830.659C407 804.925 401.463 782.376 399.22 768.077C396.697 752.06 397.529 732.62 401.593 722.078C399.929 710.582 392.088 680.92 385.535 660.369C383.169 652.95 369.784 629.003 383.639 605.138L426.849 626.882Z" fill="url(#paint29_linear_636_208)"/>
<path fill-rule="evenodd" clip-rule="evenodd" d="M433.395 812.235C433.395 814.369 433.327 817.621 433.334 819.735C432.604 831.838 415.755 838.398 410.914 830.713C410.628 828.818 410.232 826.936 409.912 825.074C416.423 832.077 429.181 822.96 433.395 812.235Z" fill="url(#paint30_linear_636_208)"/>
<g style="mix-blend-mode:multiply" opacity="0.3">
<path fill-rule="evenodd" clip-rule="evenodd" d="M436.6 718.989C431.145 746.203 415.83 782.553 407.45 809.916C403.093 786.474 392.176 746.55 401.613 722.112C400.666 715.566 397.713 703.122 394.113 689.833C401.375 676.066 394.433 665.081 397.863 645.695C417.085 642.347 388.071 618.884 428.752 643.595C432.42 672.793 435.843 691.155 436.6 718.989Z" fill="#1E2353"/>
</g>
<path fill-rule="evenodd" clip-rule="evenodd" d="M425.547 744.805C414.46 769.911 393.997 819.128 383.114 849.969C377.482 858.152 357.408 857.299 357.449 849.669C361.881 823.908 367.09 784.21 376.337 761.586C379.166 754.671 389.613 738.034 393.383 733.097C396.308 721.724 399.977 691.019 402.807 674.402C400.27 660.655 389.169 637.663 410.485 617.677C419.083 623.814 445.662 627.619 457.718 620.807C459.654 675.118 446.324 697.77 425.547 744.805Z" fill="url(#paint31_linear_636_208)"/>
<path fill-rule="evenodd" clip-rule="evenodd" d="M385.371 844.596C384.887 845.96 383.919 848.687 383.469 849.949C377.673 858.37 357.006 857.497 357.046 849.635C357.265 848.362 357.492 847.058 357.728 845.721C362.631 850.747 377.53 850.815 385.371 844.596Z" fill="url(#paint32_linear_636_208)"/>
<path fill-rule="evenodd" clip-rule="evenodd" d="M493.536 325.892C492.745 327.556 491.988 329.24 491.17 330.883L487.761 337.668C487.038 334.341 484.351 333.072 482.34 334.743C481.62 335.338 481.054 336.099 480.69 336.959C480.363 336.052 477.799 334.006 474.321 338.943C472.153 338.705 471.014 339.625 470.1 341.377C469.532 342.526 469.044 343.713 468.641 344.93C468.026 346.466 467.682 348.097 467.625 349.751C467.625 353.024 467.789 356.569 467.693 360.477C467.591 364.718 462.784 370.091 460.193 373.18L475.944 378.185C478.351 375.164 479.653 372.975 482.081 370.52C484.508 368.066 487.672 367.718 490.031 365.788C491.354 364.704 492.077 363.272 494.348 360.102C496.202 357.47 497.218 354.647 498.991 351.755C500.716 348.776 500.614 349.437 500.784 346.096C500.921 343.519 501.753 340.968 501.964 339.407C498.732 337.798 496.182 341.787 496.202 345.68C494.348 346.723 493.134 349.273 492.711 350.419C490.141 347.057 491.675 345.646 492.711 341.33C494.252 338.579 495.489 335.668 496.4 332.65C496.905 331.286 497.402 329.922 497.941 328.449C498.671 326.029 497.737 324.31 497.007 323.833C496.4 323.444 494.852 323.622 493.536 325.892Z" fill="url(#paint33_linear_636_208)"/>
<path fill-rule="evenodd" clip-rule="evenodd" d="M500.096 339.059C497.798 339.393 496.175 342.564 496.195 345.666C494.463 346.641 493.284 348.939 492.786 350.167C493.727 348.953 496.134 346.355 496.925 346.076C497.17 343.082 498.234 340.621 500.089 339.086L500.096 339.059ZM488.068 337.082L487.774 337.668C487.623 336.924 487.332 336.216 486.915 335.582C486.744 337.449 485.955 339.205 484.672 340.573C485.466 340.285 486.185 339.821 486.775 339.217C487.366 338.612 487.812 337.882 488.081 337.082H488.068ZM480.717 336.911C480.534 336.55 480.243 336.254 479.885 336.066C479.577 337.666 478.978 339.195 478.119 340.58C479.338 339.649 480.244 338.37 480.717 336.911ZM474.444 338.841L474.369 338.943C474.033 338.912 473.695 338.912 473.36 338.943C473.206 340.759 472.571 342.501 471.519 343.989C473.155 342.346 474.001 341.234 474.41 338.848L474.444 338.841Z" fill="#FF8978"/>
<path fill-rule="evenodd" clip-rule="evenodd" d="M434.077 416.86C442 403.052 448.205 385.753 459.306 371.727C460.227 370.561 462.402 369.682 463.193 368.434C464.348 366.647 465.498 364.895 466.643 363.177C471.832 363.272 478.235 365.938 482.585 370.364C481.962 372.214 481.351 374.055 480.751 375.887C480.069 378.021 481.392 382.583 480.785 384.717C475.725 402.834 469.233 420.52 461.372 437.61C450.387 451.779 401.586 542.713 376.071 509.717C373.773 497.982 376.882 488.218 382.787 478.719C386.053 473.462 391.024 468.873 394.379 465.409C402.37 457.077 422.029 429.284 434.077 416.86Z" fill="url(#paint34_linear_636_208)"/>
<path fill-rule="evenodd" clip-rule="evenodd" d="M379.801 553.138C381.587 569.244 376.746 585.077 381.676 599.778C381.894 601.299 382.037 607.279 382.296 608.881C385.542 627.926 425.827 647.195 459.422 628.921C459.607 626.562 459.422 624.094 459.579 619.716C458.959 615.625 460.725 611.254 460.711 608.759C460.663 598.394 457.438 593.076 458.986 581.559C462.136 558.096 475.133 535.546 467.939 517.088C466.398 513.126 463.691 511.204 460.629 508.742C452.692 502.367 411.623 481.467 399.179 479.981C363.013 475.303 377.844 535.669 379.801 553.138Z" fill="url(#paint35_linear_636_208)"/>
<g style="mix-blend-mode:multiply" opacity="0.35">
<path fill-rule="evenodd" clip-rule="evenodd" d="M462.6 564.587C467.257 547.343 473.346 531.066 467.918 517.122C466.377 513.161 463.67 511.238 460.609 508.776C452.672 502.401 453.722 519.55 441.271 518.077C438.871 540.974 450.203 561.825 462.6 564.587Z" fill="#6266D7"/>
</g>
<path fill-rule="evenodd" clip-rule="evenodd" d="M437.255 472.78C436.819 479.385 437.126 486.018 438.168 492.554C426.399 492.173 410.041 489.091 408.255 480.329C408.337 479.278 408.412 478.215 408.466 477.165C408.314 477.028 408.152 476.903 407.982 476.79C403.761 473.98 396.779 471.901 392.299 466.766C385.126 458.584 381.314 447.544 386.946 436.457C397.222 416.206 422.083 415.865 435.932 432.236C438.659 435.434 436.655 438.748 438.196 441.83C438.496 442.437 439.6 442.703 440.882 443.76C442.655 445.226 447.824 457.881 447.701 464.489C447.646 467.148 441.564 470.898 438.837 472.371C438.326 472.567 437.796 472.704 437.255 472.78V472.78Z" fill="#FFA698"/>
<path fill-rule="evenodd" clip-rule="evenodd" d="M437.255 472.78C436.82 479.385 437.126 486.018 438.169 492.554C426.4 492.173 410.042 489.09 408.255 480.328C408.337 479.278 408.412 478.215 408.466 477.165C408.31 477.021 408.126 476.919 407.982 476.79C399.036 468.416 411.003 458.822 426.12 467.087C427.25 468.989 428.895 470.534 430.865 471.541C432.836 472.549 435.051 472.978 437.255 472.78V472.78Z" fill="url(#paint36_linear_636_208)"/>
<path fill-rule="evenodd" clip-rule="evenodd" d="M447.687 464.502C447.633 465.662 442.819 467.421 440.8 467.687C442.164 455.181 430.265 453.265 432.066 441.053C433.143 433.716 425.595 431.057 428.554 425.684C431.316 427.501 433.801 429.708 435.932 432.236C438.659 435.434 436.655 438.748 438.196 441.83C438.496 442.437 439.6 442.703 440.882 443.76C442.655 445.26 447.987 457.902 447.687 464.502Z" fill="url(#paint37_linear_636_208)"/>
<path fill-rule="evenodd" clip-rule="evenodd" d="M431.466 459.422C431.234 456.62 430.102 456.081 429.161 456.831C428.22 457.581 427.245 460.07 427.531 462.968C427.988 467.618 432.304 471.778 435.264 468.021C432.018 469.739 430.491 465.58 430.347 462.641C430.259 460.629 430.763 458.952 431.466 459.422Z" fill="#FFB49C"/>
<path fill-rule="evenodd" clip-rule="evenodd" d="M430.436 461.209C432.161 462.518 432.959 463.398 432.932 464.134C432.932 464.646 432.489 465.416 430.968 464.877C430.444 463.731 430.26 462.457 430.436 461.209V461.209Z" fill="#FF9D8E"/>
<g style="mix-blend-mode:multiply" opacity="0.35">
<path fill-rule="evenodd" clip-rule="evenodd" d="M408.118 480.035C404.634 481.106 401.382 484.693 402.016 486.99C405.486 501.16 431.452 504.323 447.605 500.907C447.803 500.866 441.557 492.616 438.468 491.607C428.302 492.589 411.248 488.381 408.118 480.035Z" fill="#59CAAF"/>
</g>
<path fill-rule="evenodd" clip-rule="evenodd" d="M406.864 479.142C402.561 474.546 395.272 472.323 390.594 467.005C385.917 461.686 380.932 453.64 384.014 445.328C378.559 428.281 397.14 414.705 412.769 411.63C423.951 409.428 430.64 421.422 425.779 429.536C429.972 434.227 429.829 440.446 429.536 442.021C428.643 446.897 428.765 447.51 430.327 451.165C431.561 454.049 434.629 461.011 429.072 456.62C425.479 453.77 422.969 460.07 424.183 464.421C425.042 467.139 425.308 470.011 424.96 472.842C423.938 481.958 409.264 481.699 406.864 479.142Z" fill="#562E65"/>
<path fill-rule="evenodd" clip-rule="evenodd" d="M389.204 437.596C385.501 421.054 407.246 412.68 415.756 412.489C424.265 412.299 431.111 426.454 420.904 431.227C413.942 434.48 400.161 428.118 389.204 437.596Z" fill="url(#paint38_linear_636_208)"/>
<path fill-rule="evenodd" clip-rule="evenodd" d="M561.621 461.018C561.225 462.091 560.995 463.217 560.939 464.359C560.233 465.992 559.692 467.692 559.323 469.432C558.791 472.112 558.995 474.205 558.914 477.785C558.913 479.523 559.158 481.251 559.643 482.92C557.557 487.011 554.27 489.513 551.202 492.888L561.116 500.491C565.309 497.723 568.617 494.818 572.196 492.418C575.128 491.259 576.158 490.604 577.038 489.691C579.342 487.29 586.12 480.144 586.509 477.356C586.938 474.246 586.113 467.046 585.404 463.098C583.611 453.02 579.772 442.437 579.111 447.108C578.149 448.226 578.933 457.336 578.326 458.7C575.974 461.427 574.849 462.525 571.903 465.75C570.076 466.793 568.869 467.878 567.989 468.116C566.973 468.389 566.414 467.68 566.38 466.787C566.339 465.784 566.98 464.018 567.505 461.413C567.505 457.097 566.435 454.649 564.096 454.874C563.549 454.899 563.03 455.119 562.632 455.495C562.234 455.87 561.984 456.376 561.927 456.92C561.723 457.861 561.784 459.252 561.621 461.018Z" fill="url(#paint39_linear_636_208)"/>
<path fill-rule="evenodd" clip-rule="evenodd" d="M461.413 503.301C475.105 505.414 501.514 520.47 519.74 528.632C529.9 514.149 543.237 496.789 551.468 490.945C552.415 490.263 554.822 488.9 555.559 488.006C556.754 486.543 557.916 485.038 559.043 483.492C564.184 484.174 571.63 490.625 571.535 493.659C570.703 495.173 569.864 496.762 569.005 498.391C568.419 499.51 568.637 501.964 568.289 503.219C565.5 513.358 550.111 536.787 542.937 547.24C538.792 553.282 537.332 556.821 534.53 558.628C530.03 561.519 523.981 559.944 512.342 557.011C502.543 554.55 470.912 548.795 456.354 541.11C446.092 535.696 438.216 525.939 442.294 514.708C444.905 507.515 452.61 501.944 461.413 503.301Z" fill="url(#paint40_linear_636_208)"/>
</g>
<defs>
<linearGradient id="paint0_linear_636_208" x1="544.213" y1="147.147" x2="544.199" y2="236.254" gradientUnits="userSpaceOnUse">
<stop stop-color="#324179"/>
<stop offset="1" stop-color="#0C124D"/>
</linearGradient>
<linearGradient id="paint1_linear_636_208" x1="61860" y1="46197.3" x2="61809.2" y2="91961.4" gradientUnits="userSpaceOnUse">
<stop stop-color="#324179"/>
<stop offset="1" stop-color="#0C124D"/>
</linearGradient>
<linearGradient id="paint2_linear_636_208" x1="630.455" y1="303.097" x2="534.885" y2="883.129" gradientUnits="userSpaceOnUse">
<stop stop-color="#D1E8FF"/>
<stop offset="1" stop-color="#EAEFFF"/>
</linearGradient>
<linearGradient id="paint3_linear_636_208" x1="685.925" y1="193.323" x2="462.913" y2="907.73" gradientUnits="userSpaceOnUse">
<stop stop-color="#6D6AFE"/>
<stop offset="1" stop-color="#3FB0F7"/>
</linearGradient>
<linearGradient id="paint4_linear_636_208" x1="788.526" y1="660.076" x2="844.814" y2="541.704" gradientUnits="userSpaceOnUse">
<stop stop-color="#965CF2"/>
<stop offset="1" stop-color="#FF8ADC"/>
</linearGradient>
<linearGradient id="paint5_linear_636_208" x1="363405" y1="211101" x2="412315" y2="140185" gradientUnits="userSpaceOnUse">
<stop stop-color="#965CF2"/>
<stop offset="1" stop-color="#FF8ADC"/>
</linearGradient>
<linearGradient id="paint6_linear_636_208" x1="90791" y1="245148" x2="121390" y2="193638" gradientUnits="userSpaceOnUse">
<stop stop-color="#965CF2"/>
<stop offset="1" stop-color="#FF8ADC"/>
</linearGradient>
<linearGradient id="paint7_linear_636_208" x1="210.943" y1="450.681" x2="185.052" y2="524.916" gradientUnits="userSpaceOnUse">
<stop stop-color="#1C8EF4"/>
<stop offset="1" stop-color="#00CFDD"/>
</linearGradient>
<linearGradient id="paint8_linear_636_208" x1="52800.3" y1="85445.9" x2="82382.7" y2="35647.1" gradientUnits="userSpaceOnUse">
<stop stop-color="#965CF2"/>
<stop offset="1" stop-color="#FF8ADC"/>
</linearGradient>
<linearGradient id="paint9_linear_636_208" x1="82336.8" y1="25339.6" x2="53657.3" y2="96660.6" gradientUnits="userSpaceOnUse">
<stop stop-color="#6D6AFE"/>
<stop offset="1" stop-color="#3FB0F7"/>
</linearGradient>
<linearGradient id="paint10_linear_636_208" x1="161270" y1="90863.7" x2="163324" y2="85304.1" gradientUnits="userSpaceOnUse">
<stop stop-color="#965CF2"/>
<stop offset="1" stop-color="#FF8ADC"/>
</linearGradient>
<linearGradient id="paint11_linear_636_208" x1="580.051" y1="673.563" x2="537.448" y2="739.834" gradientUnits="userSpaceOnUse">
<stop stop-color="#FF66BC"/>
<stop offset="0.56" stop-color="#FF8ADC"/>
<stop offset="1" stop-color="#FFBBA8"/>
</linearGradient>
<linearGradient id="paint12_linear_636_208" x1="149681" y1="230800" x2="121639" y2="231721" gradientUnits="userSpaceOnUse">
<stop stop-color="#FF66BC"/>
<stop offset="0.56" stop-color="#FF8ADC"/>
<stop offset="1" stop-color="#FFBBA8"/>
</linearGradient>
<linearGradient id="paint13_linear_636_208" x1="112966" y1="162627" x2="117656" y2="152523" gradientUnits="userSpaceOnUse">
<stop stop-color="#965CF2"/>
<stop offset="1" stop-color="#FF8ADC"/>
</linearGradient>
<linearGradient id="paint14_linear_636_208" x1="189645" y1="285990" x2="186416" y2="239741" gradientUnits="userSpaceOnUse">
<stop stop-color="#965CF2"/>
<stop offset="1" stop-color="#FF8ADC"/>
</linearGradient>
<linearGradient id="paint15_linear_636_208" x1="472.344" y1="10.7667" x2="472.487" y2="111.417" gradientUnits="userSpaceOnUse">
<stop stop-color="#5A2D68"/>
<stop offset="1" stop-color="#22043D"/>
</linearGradient>
<linearGradient id="paint16_linear_636_208" x1="475.16" y1="182.652" x2="470.844" y2="181.118" gradientUnits="userSpaceOnUse">
<stop stop-color="#FF8A78"/>
<stop offset="1" stop-color="#FFA799"/>
</linearGradient>
<linearGradient id="paint17_linear_636_208" x1="23197.3" y1="26569.2" x2="22795.1" y2="11132.5" gradientUnits="userSpaceOnUse">
<stop stop-color="#965CF2"/>
<stop offset="1" stop-color="#FF8ADC"/>
</linearGradient>
<linearGradient id="paint18_linear_636_208" x1="92982.9" y1="18940.8" x2="90353.4" y2="9048.92" gradientUnits="userSpaceOnUse">
<stop stop-color="#965CF2"/>
<stop offset="1" stop-color="#FF8ADC"/>
</linearGradient>
<linearGradient id="paint19_linear_636_208" x1="16919.8" y1="2284.19" x2="17140.8" y2="2504.97" gradientUnits="userSpaceOnUse">
<stop stop-color="#FF8A78"/>
<stop offset="1" stop-color="#FFA799"/>
</linearGradient>
<linearGradient id="paint20_linear_636_208" x1="251857" y1="347900" x2="159624" y2="101636" gradientUnits="userSpaceOnUse">
<stop stop-color="#965CF2"/>
<stop offset="1" stop-color="#FF8ADC"/>
</linearGradient>
<linearGradient id="paint21_linear_636_208" x1="215098" y1="69409.8" x2="205851" y2="86645" gradientUnits="userSpaceOnUse">
<stop stop-color="#6D6AFE"/>
<stop offset="1" stop-color="#3FB0F7"/>
</linearGradient>
<linearGradient id="paint22_linear_636_208" x1="46597" y1="39680.8" x2="45446.8" y2="40971.6" gradientUnits="userSpaceOnUse">
<stop stop-color="#6D6AFE"/>
<stop offset="1" stop-color="#3FB0F7"/>
</linearGradient>
<linearGradient id="paint23_linear_636_208" x1="25717.8" y1="21487.1" x2="24062.9" y2="22482.7" gradientUnits="userSpaceOnUse">
<stop stop-color="#6D6AFE"/>
<stop offset="1" stop-color="#3FB0F7"/>
</linearGradient>
<linearGradient id="paint24_linear_636_208" x1="357692" y1="162252" x2="332798" y2="229023" gradientUnits="userSpaceOnUse">
<stop stop-color="#6D6AFE"/>
<stop offset="1" stop-color="#3FB0F7"/>
</linearGradient>
<linearGradient id="paint25_linear_636_208" x1="104641" y1="64345.5" x2="108556" y2="55389.3" gradientUnits="userSpaceOnUse">
<stop stop-color="#965CF2"/>
<stop offset="1" stop-color="#FF8ADC"/>
</linearGradient>
<linearGradient id="paint26_linear_636_208" x1="51414.8" y1="31817.5" x2="52997" y2="29837.7" gradientUnits="userSpaceOnUse">
<stop stop-color="#6D6AFE"/>
<stop offset="1" stop-color="#3FB0F7"/>
</linearGradient>
<linearGradient id="paint27_linear_636_208" x1="15582.4" y1="11148.9" x2="15455.7" y2="11116.8" gradientUnits="userSpaceOnUse">
<stop stop-color="#FF8A78"/>
<stop offset="1" stop-color="#FFA799"/>
</linearGradient>
<linearGradient id="paint28_linear_636_208" x1="32423.6" y1="28555.3" x2="28749.5" y2="14727.5" gradientUnits="userSpaceOnUse">
<stop stop-color="#965CF2"/>
<stop offset="1" stop-color="#FF8ADC"/>
</linearGradient>
<linearGradient id="paint29_linear_636_208" x1="419.158" y1="655.725" x2="392.442" y2="783.535" gradientUnits="userSpaceOnUse">
<stop stop-color="#40457F"/>
<stop offset="1" stop-color="#1E2353"/>
</linearGradient>
<linearGradient id="paint30_linear_636_208" x1="425.042" y1="819.217" x2="415.005" y2="833.611" gradientUnits="userSpaceOnUse">
<stop stop-color="#3773B9"/>
<stop offset="1" stop-color="#003C76"/>
</linearGradient>
<linearGradient id="paint31_linear_636_208" x1="65618.1" y1="234607" x2="36779.2" y2="251202" gradientUnits="userSpaceOnUse">
<stop stop-color="#40457F"/>
<stop offset="1" stop-color="#1E2353"/>
</linearGradient>
<linearGradient id="paint32_linear_636_208" x1="15879.1" y1="14919.6" x2="15402.9" y2="15224.2" gradientUnits="userSpaceOnUse">
<stop stop-color="#3773B9"/>
<stop offset="1" stop-color="#003C76"/>
</linearGradient>
<linearGradient id="paint33_linear_636_208" x1="29165.4" y1="29920.6" x2="30790.9" y2="28140.5" gradientUnits="userSpaceOnUse">
<stop stop-color="#FF8A78"/>
<stop offset="1" stop-color="#FFA799"/>
</linearGradient>
<linearGradient id="paint34_linear_636_208" x1="428.615" y1="438.748" x2="450.79" y2="480.356" gradientUnits="userSpaceOnUse">
<stop stop-color="#A77EF7"/>
<stop offset="1" stop-color="#5E65D6"/>
</linearGradient>
<linearGradient id="paint35_linear_636_208" x1="59449.7" y1="116686" x2="54575.1" y2="142603" gradientUnits="userSpaceOnUse">
<stop stop-color="#A77EF7"/>
<stop offset="1" stop-color="#5E65D6"/>
</linearGradient>
<linearGradient id="paint36_linear_636_208" x1="21134.2" y1="20306.6" x2="20980.6" y2="20754.8" gradientUnits="userSpaceOnUse">
<stop stop-color="#FF8A78"/>
<stop offset="1" stop-color="#FFA799"/>
</linearGradient>
<linearGradient id="paint37_linear_636_208" x1="438.871" y1="443.712" x2="432.822" y2="455.318" gradientUnits="userSpaceOnUse">
<stop stop-color="#FFB89E"/>
<stop offset="1" stop-color="#FFA799"/>
</linearGradient>
<linearGradient id="paint38_linear_636_208" x1="426.059" y1="415.483" x2="399.363" y2="430.77" gradientUnits="userSpaceOnUse">
<stop stop-color="#8A4791"/>
<stop offset="1" stop-color="#562E65"/>
</linearGradient>
<linearGradient id="paint39_linear_636_208" x1="29716.7" y1="39176.4" x2="31185.6" y2="37915.2" gradientUnits="userSpaceOnUse">
<stop stop-color="#FF8A78"/>
<stop offset="1" stop-color="#FFA799"/>
</linearGradient>
<linearGradient id="paint40_linear_636_208" x1="97099" y1="55932.5" x2="97457.6" y2="68311.6" gradientUnits="userSpaceOnUse">
<stop stop-color="#A77EF7"/>
<stop offset="1" stop-color="#5E65D6"/>
</linearGradient>
<clipPath id="clip0_636_208">
<rect width="982.327" height="1020" fill="white"/>
</clipPath>
</defs>
</svg>
