<svg width="889" height="195" viewBox="0 0 889 195" fill="none" xmlns="http://www.w3.org/2000/svg">
<g clip-path="url(#clip0_638_703)">
<path d="M888.977 121.022C888.977 122.621 888.928 126.088 888.832 128.767C888.597 135.32 888.077 143.777 887.292 147.63C886.111 153.42 884.328 158.886 882.004 163.435C879.255 168.816 875.747 173.636 871.579 177.796C867.421 181.948 862.605 185.442 857.232 188.181C852.659 190.511 847.159 192.294 841.336 193.47C837.521 194.24 829.128 194.75 822.616 194.981C819.935 195.077 816.467 195.125 814.874 195.125L74.0974 195.102C72.4985 195.102 69.0316 195.053 66.3531 194.957C59.7993 194.722 51.3428 194.203 47.4894 193.417C41.6991 192.236 36.2335 190.454 31.6847 188.13C26.3032 185.38 21.4832 181.872 17.323 177.705C13.1712 173.546 9.67744 168.73 6.93908 163.357C4.60821 158.784 2.82485 153.285 1.64915 147.462C0.879225 143.647 0.36965 135.253 0.137818 128.741C0.0425762 126.061 -0.00561523 122.592 -0.00561523 121L0.0171973 73.6033C0.0171973 72.0044 0.065959 68.5372 0.162057 65.8587C0.397311 59.305 0.91658 50.8484 1.70219 46.9953C2.88302 41.205 4.66524 35.7394 6.98955 31.1903C9.73931 25.8091 13.247 20.9888 17.4146 16.8287C21.5733 12.6771 26.389 9.18305 31.7622 6.44441C36.3353 4.11411 41.8351 2.33075 47.6583 1.15505C51.4728 0.38484 59.8664 -0.124734 66.3782 -0.356281C69.0592 -0.451809 72.5276 -0.5 74.1199 -0.5L814.897 -0.476902C816.496 -0.476902 819.963 -0.428141 822.641 -0.332043C829.195 -0.0967891 837.651 0.42248 841.505 1.20809C847.295 2.38892 852.761 4.17114 857.31 6.49545C862.691 9.24521 867.511 12.7529 871.671 16.9205C875.823 21.0792 879.317 25.8946 882.055 31.2681C884.386 35.8412 886.169 41.3407 887.345 47.1639C888.115 50.9787 888.624 59.372 888.856 65.8841C888.952 68.5651 889 72.0332 889 73.6261L888.977 121.022Z" fill="url(#paint0_linear_638_703)"/>
<path d="M195.371 50.7293C183.996 39.3025 168.869 33.0064 152.752 33C119.545 33 92.5184 60.1178 92.5052 93.4501C92.5009 104.105 95.2751 114.505 100.547 123.673L92 155L123.938 146.593C132.738 151.409 142.645 153.948 152.729 153.952H152.753C185.957 153.952 212.987 126.831 213 93.4981C213.006 77.345 206.746 62.1561 195.371 50.7293V50.7293ZM152.753 143.742H152.733C143.747 143.738 134.934 141.316 127.246 136.738L125.417 135.649L106.465 140.638L111.524 122.096L110.333 120.195C105.32 112.195 102.673 102.948 102.677 93.454C102.688 65.7498 125.152 43.2103 152.773 43.2103C166.147 43.2154 178.72 48.449 188.175 57.9463C197.629 67.4437 202.833 80.0683 202.828 93.4943C202.817 121.201 180.353 143.742 152.753 143.742V143.742ZM180.22 106.109C178.715 105.353 171.314 101.699 169.934 101.195C168.554 100.691 167.551 100.439 166.547 101.951C165.544 103.463 162.659 106.866 161.78 107.874C160.902 108.882 160.024 109.008 158.519 108.252C157.013 107.496 152.163 105.901 146.413 100.755C141.938 96.7496 138.917 91.8026 138.039 90.2901C137.16 88.7779 137.945 87.9605 138.699 87.2073C139.376 86.5306 140.204 85.4431 140.957 84.561C141.709 83.6792 141.96 83.0488 142.462 82.0407C142.964 81.0326 142.713 80.1504 142.337 79.3943C141.96 78.6382 138.95 71.2032 137.695 68.1788C136.473 65.2333 135.232 65.6318 134.308 65.5856C133.431 65.5418 132.426 65.5325 131.423 65.5325C130.419 65.5325 128.789 65.9105 127.409 67.4228C126.029 68.935 122.14 72.5895 122.14 80.0244C122.14 87.4593 127.534 94.6422 128.287 95.6502C129.04 96.6584 138.902 111.916 154.003 118.459C157.594 120.015 160.398 120.945 162.585 121.641C166.191 122.79 169.472 122.628 172.067 122.239C174.959 121.806 180.973 118.585 182.227 115.057C183.482 111.528 183.482 108.504 183.106 107.874C182.729 107.244 181.726 106.866 180.22 106.109V106.109Z" fill="white"/>
<path d="M281.361 115.826C276.995 115.826 273.062 114.902 269.561 113.053C266.1 111.204 263.366 108.648 261.36 105.383C259.394 102.118 258.41 98.4407 258.41 94.35C258.41 90.2593 259.394 86.5817 261.36 83.317C263.366 80.0523 266.1 77.4957 269.561 75.647C273.062 73.7983 276.995 72.874 281.361 72.874C285.727 72.874 289.641 73.7983 293.102 75.647C296.603 77.4957 299.337 80.0523 301.303 83.317C303.309 86.5817 304.312 90.2593 304.312 94.35C304.312 98.4407 303.309 102.118 301.303 105.383C299.337 108.648 296.603 111.204 293.102 113.053C289.641 114.902 285.727 115.826 281.361 115.826ZM281.361 106.15C283.446 106.15 285.334 105.658 287.025 104.675C288.717 103.692 290.054 102.315 291.037 100.545C292.021 98.7357 292.512 96.6707 292.512 94.35C292.512 92.0293 292.021 89.984 291.037 88.214C290.054 86.4047 288.717 85.0083 287.025 84.025C285.334 83.0417 283.446 82.55 281.361 82.55C279.277 82.55 277.389 83.0417 275.697 84.025C274.006 85.0083 272.669 86.4047 271.685 88.214C270.702 89.984 270.21 92.0293 270.21 94.35C270.21 96.6707 270.702 98.7357 271.685 100.545C272.669 102.315 274.006 103.692 275.697 104.675C277.389 105.658 279.277 106.15 281.361 106.15ZM320.579 86.857C321.719 85.4017 323.194 84.32 325.004 83.612C326.852 82.8647 328.957 82.491 331.317 82.491V92.58C330.294 92.462 329.448 92.403 328.78 92.403C326.38 92.403 324.492 93.052 323.116 94.35C321.778 95.648 321.11 97.6343 321.11 100.309V115H309.9V83.022H320.579V86.857ZM351.998 115.531C348.458 115.531 345.291 114.823 342.499 113.407C339.706 111.991 337.523 110.024 335.95 107.507C334.416 104.99 333.649 102.138 333.649 98.952C333.649 95.766 334.416 92.934 335.95 90.456C337.523 87.9387 339.706 85.9917 342.499 84.615C345.291 83.199 348.458 82.491 351.998 82.491C355.616 82.491 358.743 83.2777 361.379 84.851C364.014 86.385 365.882 88.5287 366.984 91.282L358.311 95.707C356.855 92.8357 354.731 91.4 351.939 91.4C349.933 91.4 348.261 92.0687 346.924 93.406C345.626 94.7433 344.977 96.592 344.977 98.952C344.977 101.351 345.626 103.239 346.924 104.616C348.261 105.953 349.933 106.622 351.939 106.622C354.731 106.622 356.855 105.186 358.311 102.315L366.984 106.74C365.882 109.493 364.014 111.657 361.379 113.23C358.743 114.764 355.616 115.531 351.998 115.531ZM348.281 128.924C347.297 128.924 346.275 128.806 345.213 128.57C344.19 128.334 343.344 128.039 342.676 127.685L344.21 123.26C345.39 123.811 346.609 124.086 347.868 124.086C349.834 124.086 350.818 123.535 350.818 122.434C350.818 121.451 349.933 120.959 348.163 120.959H345.98L347.514 114.469H353.355L352.529 118.009C354.259 118.206 355.538 118.737 356.364 119.602C357.19 120.507 357.603 121.569 357.603 122.788C357.603 124.676 356.757 126.171 355.066 127.272C353.374 128.373 351.113 128.924 348.281 128.924ZM404.666 83.022V115H393.987V111.814C391.902 114.292 388.755 115.531 384.547 115.531C381.636 115.531 378.981 114.862 376.582 113.525C374.222 112.148 372.334 110.201 370.918 107.684C369.541 105.167 368.853 102.256 368.853 98.952C368.853 95.648 369.541 92.757 370.918 90.279C372.334 87.7617 374.222 85.8343 376.582 84.497C378.981 83.1597 381.636 82.491 384.547 82.491C388.323 82.491 391.292 83.5923 393.456 85.795V83.022H404.666ZM386.907 106.622C388.873 106.622 390.486 105.953 391.745 104.616C393.003 103.239 393.633 101.351 393.633 98.952C393.633 96.592 393.003 94.7433 391.745 93.406C390.486 92.0687 388.873 91.4 386.907 91.4C384.94 91.4 383.327 92.0687 382.069 93.406C380.81 94.7433 380.181 96.592 380.181 98.952C380.181 101.351 380.81 103.239 382.069 104.616C383.327 105.953 384.94 106.622 386.907 106.622ZM453.536 82.491C457.47 82.491 460.597 83.671 462.917 86.031C465.277 88.391 466.457 91.9507 466.457 96.71V115H455.247V98.539C455.247 96.297 454.815 94.645 453.949 93.583C453.123 92.521 451.943 91.99 450.409 91.99C448.718 91.99 447.361 92.58 446.338 93.76C445.316 94.94 444.804 96.7297 444.804 99.129V115H433.594V98.539C433.594 94.173 431.982 91.99 428.756 91.99C427.026 91.99 425.649 92.58 424.626 93.76C423.604 94.94 423.092 96.7297 423.092 99.129V115H411.882V83.022H422.561V86.385C423.741 85.087 425.138 84.1233 426.75 83.494C428.402 82.8253 430.192 82.491 432.119 82.491C434.361 82.491 436.367 82.904 438.137 83.73C439.907 84.556 441.343 85.8147 442.444 87.506C443.703 85.8933 445.296 84.6543 447.223 83.789C449.151 82.9237 451.255 82.491 453.536 82.491ZM491.104 106.976C492.638 106.976 493.955 106.76 495.057 106.327C496.197 105.894 497.338 105.186 498.479 104.203L504.32 110.339C501.291 113.8 496.768 115.531 490.75 115.531C487.013 115.531 483.729 114.823 480.897 113.407C478.065 111.991 475.862 110.024 474.289 107.507C472.755 104.99 471.988 102.138 471.988 98.952C471.988 95.8053 472.755 92.993 474.289 90.515C475.823 87.9977 477.927 86.031 480.602 84.615C483.316 83.199 486.344 82.491 489.688 82.491C492.795 82.491 495.627 83.14 498.184 84.438C500.78 85.6967 502.845 87.565 504.379 90.043C505.913 92.4817 506.68 95.3923 506.68 98.775L483.847 103.141C485.066 105.698 487.485 106.976 491.104 106.976ZM489.747 90.456C487.819 90.456 486.246 91.0657 485.027 92.285C483.807 93.465 483.119 95.176 482.962 97.418L495.942 94.881C495.548 93.5437 494.801 92.4817 493.7 91.695C492.598 90.869 491.281 90.456 489.747 90.456ZM532.675 82.491C536.648 82.491 539.834 83.671 542.233 86.031C544.672 88.391 545.891 91.9507 545.891 96.71V115H534.681V98.539C534.681 94.173 532.931 91.99 529.43 91.99C527.503 91.99 525.949 92.6193 524.769 93.878C523.628 95.1367 523.058 97.0247 523.058 99.542V115H511.848V83.022H522.527V86.503C523.786 85.205 525.28 84.2217 527.011 83.553C528.742 82.845 530.63 82.491 532.675 82.491ZM573.52 113.702C572.576 114.292 571.416 114.744 570.039 115.059C568.702 115.374 567.266 115.531 565.732 115.531C561.563 115.531 558.357 114.508 556.115 112.463C553.912 110.418 552.811 107.369 552.811 103.318V75.883H564.021V84.202H571.278V92.58H564.021V103.2C564.021 104.38 564.316 105.285 564.906 105.914C565.496 106.543 566.302 106.858 567.325 106.858C568.623 106.858 569.764 106.524 570.747 105.855L573.52 113.702ZM592.946 115.531C589.524 115.531 586.436 114.823 583.683 113.407C580.929 111.991 578.766 110.024 577.193 107.507C575.659 104.99 574.892 102.138 574.892 98.952C574.892 95.8053 575.659 92.9733 577.193 90.456C578.766 87.9387 580.91 85.9917 583.624 84.615C586.377 83.199 589.484 82.491 592.946 82.491C596.407 82.491 599.514 83.199 602.268 84.615C605.021 85.9917 607.165 87.9387 608.699 90.456C610.233 92.934 611 95.766 611 98.952C611 102.138 610.233 104.99 608.699 107.507C607.165 110.024 605.021 111.991 602.268 113.407C599.514 114.823 596.407 115.531 592.946 115.531ZM592.946 106.622C594.912 106.622 596.525 105.953 597.784 104.616C599.042 103.239 599.672 101.351 599.672 98.952C599.672 96.592 599.042 94.7433 597.784 93.406C596.525 92.0687 594.912 91.4 592.946 91.4C590.979 91.4 589.366 92.0687 588.108 93.406C586.849 94.7433 586.22 96.592 586.22 98.952C586.22 101.351 586.849 103.239 588.108 104.616C589.366 105.953 590.979 106.622 592.946 106.622ZM661.565 93.465H671.89V115H663.807V112.463C661.014 114.705 657.317 115.826 652.715 115.826C648.86 115.826 645.34 115 642.154 113.348C638.968 111.696 636.431 109.297 634.543 106.15C632.694 102.964 631.77 99.1683 631.77 94.763C631.77 90.515 632.753 86.739 634.72 83.435C636.686 80.0917 639.42 77.4957 642.921 75.647C646.421 73.7983 650.374 72.874 654.78 72.874C658.634 72.874 662.096 73.523 665.164 74.821C668.232 76.119 670.788 77.9873 672.834 80.426L665.4 87.152C662.607 84.084 659.264 82.55 655.37 82.55C651.79 82.55 648.919 83.6513 646.756 85.854C644.632 88.0173 643.57 90.9673 643.57 94.704C643.57 98.48 644.573 101.371 646.579 103.377C648.585 105.383 651.122 106.386 654.19 106.386C657.14 106.386 659.598 105.599 661.565 104.026V93.465ZM689.444 86.857C690.585 85.4017 692.06 84.32 693.869 83.612C695.718 82.8647 697.822 82.491 700.182 82.491V92.58C699.159 92.462 698.314 92.403 697.645 92.403C695.246 92.403 693.358 93.052 691.981 94.35C690.644 95.648 689.975 97.6343 689.975 100.309V115H678.765V83.022H689.444V86.857ZM738.327 83.022V115H727.648V111.814C725.563 114.292 722.417 115.531 718.208 115.531C715.297 115.531 712.642 114.862 710.243 113.525C707.883 112.148 705.995 110.201 704.579 107.684C703.202 105.167 702.514 102.256 702.514 98.952C702.514 95.648 703.202 92.757 704.579 90.279C705.995 87.7617 707.883 85.8343 710.243 84.497C712.642 83.1597 715.297 82.491 718.208 82.491C721.984 82.491 724.954 83.5923 727.117 85.795V83.022H738.327ZM720.568 106.622C722.535 106.622 724.147 105.953 725.406 104.616C726.665 103.239 727.294 101.351 727.294 98.952C727.294 96.592 726.665 94.7433 725.406 93.406C724.147 92.0687 722.535 91.4 720.568 91.4C718.601 91.4 716.989 92.0687 715.73 93.406C714.471 94.7433 713.842 96.592 713.842 98.952C713.842 101.351 714.471 103.239 715.73 104.616C716.989 105.953 718.601 106.622 720.568 106.622ZM724.108 70.219H735.318L724.226 79.187H716.202L724.108 70.219ZM766.134 113.702C765.19 114.292 764.03 114.744 762.653 115.059C761.316 115.374 759.88 115.531 758.346 115.531C754.177 115.531 750.971 114.508 748.729 112.463C746.527 110.418 745.425 107.369 745.425 103.318V75.883H756.635V84.202H763.892V92.58H756.635V103.2C756.635 104.38 756.93 105.285 757.52 105.914C758.11 106.543 758.917 106.858 759.939 106.858C761.237 106.858 762.378 106.524 763.361 105.855L766.134 113.702ZM770.434 83.022H781.644V115H770.434V83.022ZM776.039 79.482C773.994 79.482 772.342 78.9117 771.083 77.771C769.824 76.6303 769.195 75.2143 769.195 73.523C769.195 71.8317 769.824 70.4157 771.083 69.275C772.342 68.1343 773.994 67.564 776.039 67.564C778.084 67.564 779.736 68.1147 780.995 69.216C782.254 70.278 782.883 71.6547 782.883 73.346C782.883 75.116 782.254 76.591 780.995 77.771C779.736 78.9117 778.084 79.482 776.039 79.482ZM800.552 115.531C797.877 115.531 795.242 115.236 792.646 114.646C790.05 114.017 787.965 113.21 786.392 112.227L789.755 104.557C791.21 105.462 792.941 106.189 794.947 106.74C796.953 107.251 798.939 107.507 800.906 107.507C802.715 107.507 803.994 107.33 804.741 106.976C805.528 106.583 805.921 106.032 805.921 105.324C805.921 104.616 805.449 104.124 804.505 103.849C803.6 103.534 802.145 103.239 800.139 102.964C797.582 102.649 795.399 102.236 793.59 101.725C791.82 101.214 790.286 100.27 788.988 98.893C787.69 97.5163 787.041 95.589 787.041 93.111C787.041 91.0657 787.651 89.2563 788.87 87.683C790.089 86.0703 791.859 84.8117 794.18 83.907C796.54 82.963 799.352 82.491 802.617 82.491C804.938 82.491 807.239 82.727 809.52 83.199C811.801 83.671 813.709 84.3397 815.243 85.205L811.88 92.816C809.048 91.2427 805.98 90.456 802.676 90.456C800.906 90.456 799.608 90.6723 798.782 91.105C797.956 91.4983 797.543 92.0293 797.543 92.698C797.543 93.4453 797.995 93.9763 798.9 94.291C799.805 94.5663 801.299 94.8613 803.384 95.176C806.019 95.5693 808.202 96.0217 809.933 96.533C811.664 97.0443 813.158 97.9883 814.417 99.365C815.715 100.702 816.364 102.59 816.364 105.029C816.364 107.035 815.754 108.844 814.535 110.457C813.316 112.03 811.506 113.269 809.107 114.174C806.747 115.079 803.895 115.531 800.552 115.531Z" fill="white"/>
</g>
<defs>
<linearGradient id="paint0_linear_638_703" x1="146" y1="-51.7211" x2="146" y2="240.292" gradientUnits="userSpaceOnUse">
<stop stop-color="#61FD7D"/>
<stop offset="1" stop-color="#2BB826"/>
</linearGradient>
<clipPath id="clip0_638_703">
<rect width="889" height="195" fill="white"/>
</clipPath>
</defs>
</svg>
